<svg xmlns="http://www.w3.org/2000/svg" viewBox="0 0 243.02 243.07"><defs><style>.cls-1{fill:#b69477;}</style></defs><title>Asset 2</title><g id="Layer_2" data-name="Layer 2"><g id="Layer_1-2" data-name="Layer 1"><path class="cls-1" d="M60,218.32a2.38,2.38,0,1,0,.87,3.25A2.33,2.33,0,0,0,60,218.32Z"/><polygon class="cls-1" points="84.56 228.84 83.08 222.91 79.46 221.76 81.91 231.63 80.29 236.77 83.5 237.78 85.12 232.65 92.79 225.97 89.17 224.83 84.56 228.84"/><path class="cls-1" d="M103.49,227.6a7.23,7.23,0,1,0,6.13,8.18A7.19,7.19,0,0,0,103.49,227.6Zm2.79,7.7a3.86,3.86,0,1,1-3.24-4.57A3.86,3.86,0,0,1,106.28,235.3Z"/><path class="cls-1" d="M128.71,228.61l-3.36.11.26,7.73c.08,2.55-.66,3.39-2.42,3.45s-2.56-.73-2.65-3.28l-.26-7.72-3.37.11.26,7.72c.16,4.56,2.36,6.46,6.12,6.34s5.84-2.18,5.69-6.74Z"/><polygon class="cls-1" points="144.32 225.93 146.04 234.21 138.37 227.16 135.07 227.85 137.93 241.62 141.22 240.94 139.5 232.65 147.18 239.7 150.48 239.02 147.62 225.24 144.32 225.93"/><path class="cls-1" d="M161.55,226.64l1.18,2.94,4-1.62a3.49,3.49,0,0,1-2.42,3.16c-2.06.83-4-.26-4.88-2.41a3.88,3.88,0,0,1,2.21-5.27,3.59,3.59,0,0,1,3.33.36l1.62-2.74a6.77,6.77,0,0,0-6.14-.56,7.15,7.15,0,0,0-4.15,9.47,7.07,7.07,0,0,0,9.19,4.09c3.89-1.57,5.61-5.32,3.54-10.44Z"/><polygon class="cls-1" points="190.03 216.64 183.56 207.88 180.85 209.88 189.21 221.19 196.54 215.77 194.65 213.22 190.03 216.64"/><polygon class="cls-1" points="202.38 206.35 200.78 204.69 203.64 201.95 201.44 199.66 198.59 202.41 197.02 200.78 200.59 197.35 198.39 195.07 192.39 200.84 202.15 210.97 208.14 205.2 205.94 202.92 202.38 206.35"/><path class="cls-1" d="M205.23,187.07l8.1,12.57,2.12-2.77-1.52-2.36,3.1-4.06,2.67.84,2.12-2.77L207.56,184Zm8.58,2.37-1.7,2.24-2.27-3.5Z"/><path class="cls-1" d="M225.46,167.6a6.8,6.8,0,0,0-9.43,2.85l-2.42,4.62,12.46,6.52,2.42-4.62A6.81,6.81,0,0,0,225.46,167.6Zm.22,7.9-.85,1.63L218,173.55l.86-1.63c.86-1.65,2.63-2.6,5.06-1.33S226.55,173.85,225.68,175.5Z"/><polygon class="cls-1" points="232.7 159.62 230.54 158.85 231.86 155.12 228.87 154.06 227.55 157.79 225.42 157.04 227.07 152.37 224.08 151.32 221.31 159.16 234.57 163.85 237.34 156 234.36 154.95 232.7 159.62"/><path class="cls-1" d="M232.78,135.88a5.06,5.06,0,0,0-6,4.22l-1.1,5.54,13.79,2.75.66-3.3-4-.79.32-1.63,4.43-1.5.74-3.72-5.18,1.76A4.79,4.79,0,0,0,232.78,135.88Zm.77,5.57-.45,2.23-3.61-.72.44-2.24a1.85,1.85,0,1,1,3.62.73Z"/><path class="cls-1" d="M234.14,123.86c-.81,1.27-1.13,1.65-1.7,1.62s-.75-.49-.73-1c0-.77.6-1.26,1.75-1.21l.16-3.36a4.55,4.55,0,0,0-5.07,4.41c-.12,2.46,1.31,4.43,3.57,4.54,1.62.08,2.79-.4,4.95-3.59,1-1.42,1.3-2.16,2-2.12.44,0,.85.43.81,1.32a1.58,1.58,0,0,1-1.81,1.6l-.16,3.37a4.82,4.82,0,0,0,5.14-4.81c.11-2.46-1.12-4.72-3.68-4.85C237.26,119.67,236,121,234.14,123.86Z"/><path class="cls-1" d="M231.39,95.58a2.38,2.38,0,1,0,1.79-2.85A2.35,2.35,0,0,0,231.39,95.58Z"/><path class="cls-1" d="M99.39,114.64a3.76,3.76,0,0,0,3.36-5.42L82.69,68.46a3.75,3.75,0,0,0-3.36-2.09,3.85,3.85,0,0,0-1.67.39,3.76,3.76,0,0,0-1.69,5L96,112.55A3.75,3.75,0,0,0,99.39,114.64Z"/><path class="cls-1" d="M134.75,66.69a3.65,3.65,0,0,0-1.5-.32,3.75,3.75,0,0,0-3.44,2.26l-43,98.82a3.75,3.75,0,1,0,6.87,3l43-98.83A3.74,3.74,0,0,0,134.75,66.69Z"/><path class="cls-1" d="M166.88,170.94a3.75,3.75,0,0,0,.19-3.63l-4.61-9.49a3.77,3.77,0,0,0-3.38-2.11,3.75,3.75,0,0,0-3.37,5.39l2,4.1H115.57L156.3,71.62a3.74,3.74,0,0,0-1.94-4.93,3.65,3.65,0,0,0-1.5-.32,3.77,3.77,0,0,0-3.44,2.26l-43,98.82a3.75,3.75,0,0,0,3.44,5.25H163.7A3.75,3.75,0,0,0,166.88,170.94Z"/><path class="cls-1" d="M52.41,212.76A115,115,0,0,1,135.06,5h0A115.16,115.16,0,0,1,229,85.7v0a2,2,0,0,0,3.76-1.2,116.92,116.92,0,0,0-18.85-37A118.9,118.9,0,0,0,1.2,102.24a118.12,118.12,0,0,0,22.68,88.13c8,10.65,15.53,18.29,26.21,25.55a2,2,0,0,0,3.18-2.09A1.92,1.92,0,0,0,52.41,212.76Z"/></g></g></svg>