<svg id="visual" viewBox="0 0 900 100" width="900" height="100" xmlns="http://www.w3.org/2000/svg" xmlns:xlink="http://www.w3.org/1999/xlink" version="1.1"><path d="M0 26L16.7 26.2C33.3 26.3 66.7 26.7 100 28.2C133.3 29.7 166.7 32.3 200 31C233.3 29.7 266.7 24.3 300 25.8C333.3 27.3 366.7 35.7 400 38.3C433.3 41 466.7 38 500 36.5C533.3 35 566.7 35 600 32.2C633.3 29.3 666.7 23.7 700 23.7C733.3 23.7 766.7 29.3 800 33.7C833.3 38 866.7 41 883.3 42.5L900 44L900 101L883.3 101C866.7 101 833.3 101 800 101C766.7 101 733.3 101 700 101C666.7 101 633.3 101 600 101C566.7 101 533.3 101 500 101C466.7 101 433.3 101 400 101C366.7 101 333.3 101 300 101C266.7 101 233.3 101 200 101C166.7 101 133.3 101 100 101C66.7 101 33.3 101 16.7 101L0 101Z" fill="#081e74"></path><path d="M0 48L16.7 48.2C33.3 48.3 66.7 48.7 100 52.2C133.3 55.7 166.7 62.3 200 63.5C233.3 64.7 266.7 60.3 300 58.7C333.3 57 366.7 58 400 59.2C433.3 60.3 466.7 61.7 500 63.5C533.3 65.3 566.7 67.7 600 68.3C633.3 69 666.7 68 700 64.7C733.3 61.3 766.7 55.7 800 53.2C833.3 50.7 866.7 51.3 883.3 51.7L900 52L900 101L883.3 101C866.7 101 833.3 101 800 101C766.7 101 733.3 101 700 101C666.7 101 633.3 101 600 101C566.7 101 533.3 101 500 101C466.7 101 433.3 101 400 101C366.7 101 333.3 101 300 101C266.7 101 233.3 101 200 101C166.7 101 133.3 101 100 101C66.7 101 33.3 101 16.7 101L0 101Z" fill="#6783be"></path><path d="M0 64L16.7 65.8C33.3 67.7 66.7 71.3 100 72.8C133.3 74.3 166.7 73.7 200 74.3C233.3 75 266.7 77 300 75.3C333.3 73.7 366.7 68.3 400 66.5C433.3 64.7 466.7 66.3 500 70.2C533.3 74 566.7 80 600 79C633.3 78 666.7 70 700 69C733.3 68 766.7 74 800 74.8C833.3 75.7 866.7 71.3 883.3 69.2L900 67L900 101L883.3 101C866.7 101 833.3 101 800 101C766.7 101 733.3 101 700 101C666.7 101 633.3 101 600 101C566.7 101 533.3 101 500 101C466.7 101 433.3 101 400 101C366.7 101 333.3 101 300 101C266.7 101 233.3 101 200 101C166.7 101 133.3 101 100 101C66.7 101 33.3 101 16.7 101L0 101Z" fill="#ddedff"></path></svg>