<svg width="610" height="140" viewBox="0 0 610 140" fill="none" xmlns="http://www.w3.org/2000/svg">
<path d="M95.8196 100H116.124L108.132 10.9H86.5316L66.7676 62.308L47.0036 10.9H25.4036L17.4116 100H37.7156L41.9276 47.188H42.4676L60.7196 99.46H72.8156L91.0676 47.188H91.6076L95.8196 100ZM120.367 72.352C120.367 88.552 131.707 101.62 147.907 101.62C155.467 101.62 161.947 98.272 166.051 93.736H166.267V100H185.167V44.596H166.051V49.888C161.515 45.46 155.359 42.976 147.907 42.976C131.707 42.976 120.367 56.152 120.367 72.352ZM140.671 72.352C140.671 64.684 146.395 59.284 153.631 59.284C160.759 59.284 166.483 64.684 166.483 72.352C166.483 79.912 161.083 85.312 153.631 85.312C145.855 85.312 140.671 79.912 140.671 72.352ZM198.085 100H217.201V70.84C217.201 69.436 218.605 59.608 228.541 59.608C234.913 59.608 238.477 62.632 238.477 62.632L246.469 46.432C246.469 46.432 241.501 42.976 234.373 42.976C223.465 42.976 217.417 52.588 217.417 52.588H217.201V44.596H198.085V100ZM261.703 10.36C255.439 10.36 250.363 15.436 250.363 21.7C250.363 27.964 255.439 33.04 261.703 33.04C267.967 33.04 273.043 27.964 273.043 21.7C273.043 15.436 267.967 10.36 261.703 10.36ZM251.875 44.596H270.991V100H251.875V44.596ZM304.768 64.252H333.496V100H353.8V10.9H333.496V46.432H304.768V10.9H284.464V100H304.768V64.252ZM362.734 72.352C362.734 88.552 374.074 101.62 390.274 101.62C397.834 101.62 404.314 98.272 408.418 93.736H408.634V100H427.534V44.596H408.418V49.888C403.882 45.46 397.726 42.976 390.274 42.976C374.074 42.976 362.734 56.152 362.734 72.352ZM383.038 72.352C383.038 64.684 388.762 59.284 395.998 59.284C403.126 59.284 408.85 64.684 408.85 72.352C408.85 79.912 403.45 85.312 395.998 85.312C388.222 85.312 383.038 79.912 383.038 72.352ZM469.937 58.636C475.661 58.636 479.225 61.228 479.225 61.228L485.705 48.16C485.705 48.16 479.441 42.976 467.129 42.976C451.037 42.976 436.457 56.152 436.457 72.46C436.457 88.66 451.145 101.62 467.129 101.62C479.441 101.62 485.705 96.652 485.705 96.652L479.225 83.368C479.225 83.368 475.661 85.96 469.937 85.96C462.701 85.96 456.761 79.912 456.761 72.244C456.761 64.684 462.701 58.636 469.937 58.636ZM556.791 44.596H531.951L512.619 63.928V7.12H493.503V100H512.619V77.86L534.759 100H559.383L530.439 71.056L556.791 44.596ZM587.408 42.976C572.828 42.976 563.216 49.456 563.216 60.796C563.216 69.112 568.832 73 574.448 75.916C580.712 79.156 586.76 79.48 586.76 83.476C586.76 87.148 583.52 87.472 580.82 87.472C574.664 87.472 567.104 81.1 567.104 81.1L559.328 94.168C559.328 94.168 567.32 101.62 580.712 101.62C592.052 101.62 606.956 99.028 606.956 82.72C606.956 71.38 597.452 67.276 590.108 65.008C585.356 63.496 581.468 62.632 581.468 59.716C581.468 57.124 583.196 56.368 587.408 56.368C593.24 56.368 599.72 59.824 599.72 59.824L605.984 47.296C605.984 47.296 598.1 42.976 587.408 42.976Z" fill="white"/>
</svg>
