<svg width="808" height="202" viewBox="0 0 808 202" fill="none" xmlns="http://www.w3.org/2000/svg">
<path d="M95.8196 142H116.124L108.132 52.9H86.5316L66.7676 104.308L47.0036 52.9H25.4036L17.4116 142H37.7156L41.9276 89.188H42.4676L60.7196 141.46H72.8156L91.0676 89.188H91.6076L95.8196 142ZM120.367 114.352C120.367 130.552 131.707 143.62 147.907 143.62C155.467 143.62 161.947 140.272 166.051 135.736H166.267V142H185.167V86.596H166.051V91.888C161.515 87.46 155.359 84.976 147.907 84.976C131.707 84.976 120.367 98.152 120.367 114.352ZM140.671 114.352C140.671 106.684 146.395 101.284 153.631 101.284C160.759 101.284 166.483 106.684 166.483 114.352C166.483 121.912 161.083 127.312 153.631 127.312C145.855 127.312 140.671 121.912 140.671 114.352ZM198.085 142H217.201V112.84C217.201 111.436 218.605 101.608 228.541 101.608C234.913 101.608 238.477 104.632 238.477 104.632L246.469 88.432C246.469 88.432 241.501 84.976 234.373 84.976C223.465 84.976 217.417 94.588 217.417 94.588H217.201V86.596H198.085V142ZM261.703 52.36C255.439 52.36 250.363 57.436 250.363 63.7C250.363 69.964 255.439 75.04 261.703 75.04C267.967 75.04 273.043 69.964 273.043 63.7C273.043 57.436 267.967 52.36 261.703 52.36ZM251.875 86.596H270.991V142H251.875V86.596ZM304.768 106.252H333.496V142H353.8V52.9H333.496V88.432H304.768V52.9H284.464V142H304.768V106.252ZM362.734 114.352C362.734 130.552 374.074 143.62 390.274 143.62C397.834 143.62 404.314 140.272 408.418 135.736H408.634V142H427.534V86.596H408.418V91.888C403.882 87.46 397.726 84.976 390.274 84.976C374.074 84.976 362.734 98.152 362.734 114.352ZM383.038 114.352C383.038 106.684 388.762 101.284 395.998 101.284C403.126 101.284 408.85 106.684 408.85 114.352C408.85 121.912 403.45 127.312 395.998 127.312C388.222 127.312 383.038 121.912 383.038 114.352ZM469.937 100.636C475.661 100.636 479.225 103.228 479.225 103.228L485.705 90.16C485.705 90.16 479.441 84.976 467.129 84.976C451.037 84.976 436.457 98.152 436.457 114.46C436.457 130.66 451.145 143.62 467.129 143.62C479.441 143.62 485.705 138.652 485.705 138.652L479.225 125.368C479.225 125.368 475.661 127.96 469.937 127.96C462.701 127.96 456.761 121.912 456.761 114.244C456.761 106.684 462.701 100.636 469.937 100.636ZM556.791 86.596H531.951L512.619 105.928V49.12H493.503V142H512.619V119.86L534.759 142H559.383L530.439 113.056L556.791 86.596ZM587.408 84.976C572.828 84.976 563.216 91.456 563.216 102.796C563.216 111.112 568.832 115 574.448 117.916C580.712 121.156 586.76 121.48 586.76 125.476C586.76 129.148 583.52 129.472 580.82 129.472C574.664 129.472 567.104 123.1 567.104 123.1L559.328 136.168C559.328 136.168 567.32 143.62 580.712 143.62C592.052 143.62 606.956 141.028 606.956 124.72C606.956 113.38 597.452 109.276 590.108 107.008C585.356 105.496 581.468 104.632 581.468 101.716C581.468 99.124 583.196 98.368 587.408 98.368C593.24 98.368 599.72 101.824 599.72 101.824L605.984 89.296C605.984 89.296 598.1 84.976 587.408 84.976Z" fill="white"/>
<path d="M706.554 175.154C705.19 174.974 704.503 176.421 705.841 177.266C720.718 186.649 737.799 179.999 742.361 175.154C743.926 173.491 742.994 173.53 741.166 174.504C723.121 184.124 710.655 175.694 706.554 175.154Z" fill="white"/>
<path d="M707.733 165.519C705.292 164.556 704.04 167.224 706.554 168.618C721.772 177.052 738.367 170.396 742.39 165.519C743.74 163.882 742.818 163.891 741.071 164.854C722.128 172.814 712.441 167.376 707.733 165.519Z" fill="white"/>
<path d="M708.971 155.704C705.724 154.389 703.628 157.951 706.924 159.765C721.088 167.563 735.051 161.912 740.172 157.734C743.756 154.81 744.405 153.423 740.172 155.303C722.254 163.263 713.17 157.404 708.971 155.704Z" fill="white"/>
<path d="M706.449 148.312C705.748 142.525 702.151 115.427 691.944 105.914C667.37 83.0092 680.169 32.4889 724.026 32.4889C767.883 32.4889 780.682 83.0092 756.108 105.914C745.902 115.427 742.304 142.525 741.603 148.312C739.897 150.099 733.071 153.348 724.026 153.348C714.982 153.348 708.156 150.099 706.449 148.312Z" fill="white"/>
<path d="M650.638 102.53C645.468 108.217 647.94 112.164 655.757 110.971C662.003 110.018 672.822 104.799 668.612 98.2878C664.403 91.7763 654.675 98.0891 650.638 102.53Z" fill="white"/>
<path d="M648.419 50.0793C640.539 50.6208 639.355 55.0757 645.769 59.4939C650.893 63.0241 662.42 66.6159 664.281 59.1783C666.141 51.7407 654.573 49.6565 648.419 50.0793Z" fill="white"/>
<path d="M671.348 14.4292C664.24 11.1477 660.875 14.4423 664.108 21.3212C666.692 26.8174 674.788 35.4142 680.306 29.8586C685.823 24.3029 676.9 16.9921 671.348 14.4292Z" fill="white"/>
<path d="M783.066 21.3936C786.513 14.627 783.052 11.4236 775.826 14.5017C770.052 16.9611 761.021 24.6677 766.857 29.9202C772.694 35.1727 780.374 26.6783 783.066 21.3936Z" fill="white"/>
<path d="M802.209 59.5928C808.749 55.3736 807.434 50.952 799.559 50.1783C793.267 49.5601 781.398 51.9358 783.693 59.2624C785.989 66.5891 797.102 62.8881 802.209 59.5928Z" fill="white"/>
<path d="M792.968 112.684C800.726 114.103 803.081 110.091 798.087 104.244C794.097 99.5712 783.94 93.2619 780.12 99.9877C776.301 106.714 786.908 111.577 792.968 112.684Z" fill="white"/>
<path d="M729.206 5.30467C726.617 -1.80041 721.79 -1.73597 718.967 5.30467C716.711 10.9302 716.05 22.4584 724.079 22.2441C732.107 22.0297 731.228 10.8537 729.206 5.30467Z" fill="white"/>
</svg>
