<svg width="1280" height="832" viewBox="0 0 1280 832" fill="none" xmlns="http://www.w3.org/2000/svg">
<rect width="1280" height="832" fill="#001220"/>
<circle cx="2" cy="2" r="2" transform="matrix(-1 0 0 1 203 323)" fill="white"/>
<circle cx="5" cy="5" r="5" transform="matrix(-1 0 0 1 408 209)" fill="white"/>
<circle cx="5" cy="5" r="5" transform="matrix(-1 0 0 1 418 471)" fill="white"/>
<circle cx="5" cy="5" r="5" transform="matrix(-1 0 0 1 693 126)" fill="white"/>
<circle cx="5" cy="5" r="5" transform="matrix(-1 0 0 1 1154 124)" fill="white"/>
<circle cx="5" cy="5" r="5" transform="matrix(-1 0 0 1 1250 276)" fill="white"/>
<circle cx="5" cy="5" r="5" transform="matrix(-1 0 0 1 868 355)" fill="white"/>
<circle cx="5" cy="5" r="5" transform="matrix(-1 0 0 1 1144 18)" fill="white"/>
<circle cx="5" cy="5" r="5" transform="matrix(-1 0 0 1 1107 549)" fill="white"/>
<circle cx="5" cy="5" r="5" transform="matrix(-1 0 0 1 142 425)" fill="white"/>
<circle cx="5" cy="5" r="5" transform="matrix(-1 0 0 1 157 628)" fill="white"/>
<circle cx="5" cy="5" r="5" transform="matrix(-1 0 0 1 792 638)" fill="white"/>
<circle cx="5" cy="5" r="5" transform="matrix(-1 0 0 1 1144 430)" fill="white"/>
<circle cx="5" cy="5" r="5" transform="matrix(-1 0 0 1 459 621)" fill="white"/>
<circle cx="5" cy="5" r="5" transform="matrix(-1 0 0 1 147 102)" fill="white"/>
<circle cx="5" cy="5" r="5" transform="matrix(-1 0 0 1 683 435)" fill="white"/>
<circle cx="5" cy="5" r="5" transform="matrix(-1 0 0 1 945 209)" fill="white"/>
<circle cx="2" cy="2" r="2" transform="matrix(-1 0 0 1 382 323)" fill="white"/>
<circle cx="2" cy="2" r="2" transform="matrix(-1 0 0 1 937 459)" fill="white"/>
<circle cx="2" cy="2" r="2" transform="matrix(-1 0 0 1 1050 622)" fill="white"/>
<circle cx="2" cy="2" r="2" transform="matrix(-1 0 0 1 757 538)" fill="white"/>
<circle cx="2" cy="2" r="2" transform="matrix(-1 0 0 1 58 615)" fill="white"/>
<circle cx="2" cy="2" r="2" transform="matrix(-1 0 0 1 326 659)" fill="white"/>
<circle cx="2" cy="2" r="2" transform="matrix(-1 0 0 1 572 634)" fill="white"/>
<circle cx="2" cy="2" r="2" transform="matrix(-1 0 0 1 905 629)" fill="white"/>
<circle cx="2" cy="2" r="2" transform="matrix(-1 0 0 1 753 728)" fill="white"/>
<circle cx="2" cy="2" r="2" transform="matrix(-1 0 0 1 1139 315)" fill="white"/>
<circle cx="2" cy="2" r="2" transform="matrix(-1 0 0 1 1230 485)" fill="white"/>
<circle cx="2" cy="2" r="2" transform="matrix(-1 0 0 1 1212 675)" fill="white"/>
<circle cx="2" cy="2" r="2" transform="matrix(-1 0 0 1 84 286)" fill="white"/>
<circle cx="2" cy="2" r="2" transform="matrix(-1 0 0 1 939 47)" fill="white"/>
<circle cx="2" cy="2" r="2" transform="matrix(-1 0 0 1 836 112)" fill="white"/>
<circle cx="2" cy="2" r="2" transform="matrix(-1 0 0 1 522 319)" fill="white"/>
<circle cx="2" cy="2" r="2" transform="matrix(-1 0 0 1 587 445)" fill="white"/>
<circle cx="2" cy="2" r="2" transform="matrix(-1 0 0 1 280 481)" fill="white"/>
<circle cx="2" cy="2" r="2" transform="matrix(-1 0 0 1 306 212)" fill="white"/>
<circle cx="2" cy="2" r="2" transform="matrix(-1 0 0 1 139 176)" fill="white"/>
<circle cx="2" cy="2" r="2" transform="matrix(-1 0 0 1 483 124)" fill="white"/>
<circle cx="2" cy="2" r="2" transform="matrix(-1 0 0 1 368 51)" fill="white"/>
<circle cx="2" cy="2" r="2" transform="matrix(-1 0 0 1 697 236)" fill="white"/>
</svg>
