<svg id="visual" viewBox="0 0 900 100" width="900" height="100" xmlns="http://www.w3.org/2000/svg" xmlns:xlink="http://www.w3.org/1999/xlink" version="1.1"><path d="M0 35L21.5 32.3C43 29.7 86 24.3 128.8 23.7C171.7 23 214.3 27 257.2 27.7C300 28.3 343 25.7 385.8 25.2C428.7 24.7 471.3 26.3 514.2 27.5C557 28.7 600 29.3 642.8 30.2C685.7 31 728.3 32 771.2 29.3C814 26.7 857 20.3 878.5 17.2L900 14L900 101L878.5 101C857 101 814 101 771.2 101C728.3 101 685.7 101 642.8 101C600 101 557 101 514.2 101C471.3 101 428.7 101 385.8 101C343 101 300 101 257.2 101C214.3 101 171.7 101 128.8 101C86 101 43 101 21.5 101L0 101Z" fill="#081e74"></path><path d="M0 53L21.5 52.7C43 52.3 86 51.7 128.8 51.8C171.7 52 214.3 53 257.2 52.3C300 51.7 343 49.3 385.8 48.8C428.7 48.3 471.3 49.7 514.2 47.8C557 46 600 41 642.8 40.2C685.7 39.3 728.3 42.7 771.2 44.8C814 47 857 48 878.5 48.5L900 49L900 101L878.5 101C857 101 814 101 771.2 101C728.3 101 685.7 101 642.8 101C600 101 557 101 514.2 101C471.3 101 428.7 101 385.8 101C343 101 300 101 257.2 101C214.3 101 171.7 101 128.8 101C86 101 43 101 21.5 101L0 101Z" fill="#38509b"></path><path d="M0 64L21.5 63.2C43 62.3 86 60.7 128.8 57.5C171.7 54.3 214.3 49.7 257.2 47.7C300 45.7 343 46.3 385.8 49.7C428.7 53 471.3 59 514.2 60.5C557 62 600 59 642.8 58.2C685.7 57.3 728.3 58.7 771.2 56.8C814 55 857 50 878.5 47.5L900 45L900 101L878.5 101C857 101 814 101 771.2 101C728.3 101 685.7 101 642.8 101C600 101 557 101 514.2 101C471.3 101 428.7 101 385.8 101C343 101 300 101 257.2 101C214.3 101 171.7 101 128.8 101C86 101 43 101 21.5 101L0 101Z" fill="#6783be"></path><path d="M0 61L21.5 62.5C43 64 86 67 128.8 68.5C171.7 70 214.3 70 257.2 71.2C300 72.3 343 74.7 385.8 74.7C428.7 74.7 471.3 72.3 514.2 71.3C557 70.3 600 70.7 642.8 72C685.7 73.3 728.3 75.7 771.2 74.7C814 73.7 857 69.3 878.5 67.2L900 65L900 101L878.5 101C857 101 814 101 771.2 101C728.3 101 685.7 101 642.8 101C600 101 557 101 514.2 101C471.3 101 428.7 101 385.8 101C343 101 300 101 257.2 101C214.3 101 171.7 101 128.8 101C86 101 43 101 21.5 101L0 101Z" fill="#9eb8df"></path><path d="M0 81L21.5 81C43 81 86 81 128.8 81.8C171.7 82.7 214.3 84.3 257.2 85.5C300 86.7 343 87.3 385.8 86.8C428.7 86.3 471.3 84.7 514.2 82.5C557 80.3 600 77.7 642.8 76.8C685.7 76 728.3 77 771.2 78.3C814 79.7 857 81.3 878.5 82.2L900 83L900 101L878.5 101C857 101 814 101 771.2 101C728.3 101 685.7 101 642.8 101C600 101 557 101 514.2 101C471.3 101 428.7 101 385.8 101C343 101 300 101 257.2 101C214.3 101 171.7 101 128.8 101C86 101 43 101 21.5 101L0 101Z" fill="#ddedff"></path></svg>