<svg width="766" height="129" viewBox="0 0 766 129" fill="none" xmlns="http://www.w3.org/2000/svg">
<path d="M32.3817 95.6803L9.86005 95.6828C1.31356 95.6828 -0.577406 90.2484 0.836228 85.8143L0.694311 86.2522C-0.354491 90.0968 0.971223 92.032 2.15606 94.3132C6.05289 101.791 18.2962 124.226 18.2962 124.226C19.8292 126.91 21.9368 128.397 25.4242 128.397C32.2924 128.397 43.328 121.293 43.328 121.293L84.5026 95.6803H32.3817Z" fill="url(#paint0_linear)"/>
<path d="M40.7088 1.0229H40.6295C36.1176 1.0229 35.0961 3.88771 34.8719 4.42027L1.07619 85.1386C-0.762158 89.6755 0.871619 95.6831 9.85909 95.6831L32.3807 95.6806L58.5322 33.8136C51.5561 17.2964 46.4772 5.25499 46.4402 5.16726C46.111 4.36089 44.643 1.0229 40.7088 1.0229Z" fill="url(#paint1_linear)"/>
<path d="M82.0018 4.18516C81.6871 3.43019 80.3109 0.791349 76.5023 0.71337C76.5442 0.71337 76.3406 0.708935 76.3406 0.708935L40.6319 0.71337C36.8953 0.71337 35.471 3.15195 35.1885 3.74299C35.1885 3.74299 36.4432 1.02262 40.6305 1.02262H40.7098C44.644 1.02262 46.112 4.36061 46.4412 5.16698C46.4782 5.2547 51.5571 17.2961 58.5332 33.8134C73.8976 70.2201 98.4528 128.397 98.4528 128.397H134.451C134.451 128.397 82.3261 4.94722 82.0018 4.18516Z" fill="url(#paint2_linear)"/>
<path d="M197.305 36.7558L184.636 66.3328H210.084L197.305 36.7558ZM236.058 95.6792H222.334L214.833 77.8412H179.882L172.272 95.6792H158.98L191.5 21.2355H203.532L236.058 95.6792Z" fill="white"/>
<path d="M355.892 95.6792H342.797V33.7988H319.353V21.7618H380.388L375.351 33.7988H355.892V95.6792Z" fill="white"/>
<path d="M604.551 33.7988H564.973V52.6029H590.322V64.2234H564.973V83.865H604.567V95.6792H551.886V21.7618H604.551V33.7988Z" fill="white"/>
<path d="M697.365 95.6792H684.972V21.7618H697.365V95.6792Z" fill="white"/>
<path d="M644.696 32.4267C637.144 32.4267 630.731 34.7067 630.695 39.7239C630.658 45.5924 634.34 47.627 648.241 52.1462C663.604 57.204 671.767 62.3396 671.686 74.8356C671.598 88.92 660.715 96.9512 644.813 96.9512C633.562 96.9512 623.474 93.3046 615.782 86.5369L620.568 74.9446C627.545 80.7968 636.009 84.9394 645.154 84.9827C653.143 85.018 658.839 81.1302 658.839 75.3604C658.839 70.5421 656.055 67.3362 642.572 63.0638C627.104 57.9938 617.761 52.7014 617.835 40.1054C617.929 27.5779 629.682 20.4526 644.46 20.5262C659.238 20.598 667.558 25.9988 668.816 26.7299L664.178 37.2702C661.155 35.6442 654.538 32.4267 644.696 32.4267Z" fill="white"/>
<path d="M713.328 57.5439L746.42 21.7614H730.568L697.366 57.5439L733.85 95.6885H749.912L713.328 57.5439Z" fill="white"/>
<path d="M420.419 85.0239C405.893 85.0239 395.29 73.2496 395.29 58.7236C395.29 44.2023 405.893 32.4264 420.419 32.4264C434.944 32.4264 445.56 44.2023 445.56 58.7236C445.56 73.2496 434.944 85.0239 420.419 85.0239ZM420.419 20.493C399.308 20.493 382.193 37.6128 382.193 58.7236C382.193 79.8439 399.308 96.9561 420.419 96.9561C441.53 96.9561 458.655 79.8439 458.655 58.7236C458.655 37.6128 441.53 20.493 420.419 20.493Z" fill="white"/>
<path d="M500.373 83.8505L485.442 83.865V33.8112H500.431C514.954 33.8112 525.502 44.0999 525.502 58.6225C525.502 73.1428 514.89 83.8505 500.373 83.8505ZM500.373 21.7618H472.336V95.6792L500.373 95.6729C521.481 95.6729 538.593 79.7339 538.593 58.6225C538.593 37.5037 521.481 21.7618 500.373 21.7618Z" fill="white"/>
<path d="M305.075 62.9268C305.075 84.9606 292.142 96.8442 273.39 96.8442C254.644 96.8442 241.713 84.9606 241.713 62.9268V21.7618H254.808V64.4882C254.808 77.413 262.395 85.0056 273.396 85.0056C284.395 85.0056 291.984 77.413 291.984 64.4882V21.7618H305.075V62.9268Z" fill="white"/>
<path d="M765.182 90.7347C765.182 93.2026 763.397 94.9756 760.981 94.9756C758.587 94.9756 756.789 93.2026 756.789 90.7347C756.789 88.2709 758.587 86.4893 760.981 86.4893C763.397 86.4893 765.182 88.2709 765.182 90.7347ZM765.918 90.7347C765.918 88.0106 763.705 85.7977 760.981 85.7977C758.279 85.7977 756.06 88.0106 756.06 90.7347C756.06 93.4554 758.279 95.6616 760.981 95.6616C763.705 95.6616 765.918 93.4554 765.918 90.7347Z" fill="#231F20"/>
<path d="M761.894 89.584C761.894 90.3123 761.291 90.3878 760.71 90.3878H760.193V88.773H760.951C761.644 88.773 761.894 89.1088 761.894 89.584ZM763.116 93.2524L761.927 91.5743C761.719 91.2746 761.562 91.0745 761.334 90.9008C762.187 90.79 762.689 90.3265 762.689 89.584C762.689 88.826 762.16 88.1448 761.125 88.1448H759.452V93.2524H760.193V90.9627C760.587 90.9627 760.743 91.0831 760.997 91.4597L762.227 93.2524H763.116Z" fill="#231F20"/>
<defs>
<linearGradient id="paint0_linear" x1="10.2327" y1="108.729" x2="79.1872" y2="82.7466" gradientUnits="userSpaceOnUse">
<stop stop-color="#409F8B"/>
<stop offset="0.350401" stop-color="#70CEB9"/>
<stop offset="1" stop-color="#70CEB9"/>
</linearGradient>
<linearGradient id="paint1_linear" x1="12.3679" y1="98.1767" x2="53.1117" y2="5.92578" gradientUnits="userSpaceOnUse">
<stop stop-color="#CCE310"/>
<stop offset="0.390927" stop-color="#72BF2D"/>
<stop offset="0.403405" stop-color="#72BF2D"/>
<stop offset="0.699799" stop-color="#72BF2D"/>
<stop offset="0.978405" stop-color="#1F9642"/>
<stop offset="1" stop-color="#1F9642"/>
</linearGradient>
<linearGradient id="paint2_linear" x1="58.14" y1="0.825019" x2="110.43" y2="128.7" gradientUnits="userSpaceOnUse">
<stop stop-color="#67C5F0"/>
<stop offset="1" stop-color="#127BCA"/>
</linearGradient>
</defs>
</svg>
