<svg width="382" height="109" viewBox="0 0 382 109" fill="none" xmlns="http://www.w3.org/2000/svg">
<path d="M6.92285 83.9339C7.12347 80.6233 7.32408 75.7113 7.32408 71.3994V12.7427H16.0492V43.225H16.2499C19.3594 37.8101 24.9766 34.3004 32.799 34.3004C44.8359 34.3004 53.3604 44.3265 53.2601 59.0671C53.2601 76.4117 42.3266 85.0354 31.495 85.0354C24.4735 85.0354 18.8579 82.3295 15.2468 75.9119H14.9474L14.5462 83.9339H6.92285ZM16.0508 64.4804C16.0508 65.585 16.2514 66.6865 16.452 67.6908C18.1573 73.8061 23.2729 78.0192 29.691 78.0192C38.9193 78.0192 44.4362 70.4969 44.4362 59.3679C44.4362 49.6427 39.4208 41.3198 29.9935 41.3198C23.9751 41.3198 18.3579 45.4311 16.5524 52.1496C16.3517 53.1523 16.0508 54.3556 16.0508 55.7595V64.4804Z" fill="#CC0000"/>
<path d="M89.5323 83.9338L88.8302 77.8169H88.5292C85.8209 81.6274 80.605 85.0352 73.6838 85.0352C63.8552 85.0352 58.8398 78.1162 58.8398 71.0984C58.8398 59.3662 69.2718 52.9501 88.0277 53.0488V52.046C88.0277 48.035 86.9243 40.8167 76.9939 40.8167C72.4816 40.8167 67.7672 42.2205 64.3567 44.4266L62.3506 38.6122C66.3629 36.005 72.1807 34.3003 78.2979 34.3003C93.1434 34.3003 96.7529 44.4266 96.7529 54.1534V72.3018C96.7529 76.5133 96.9535 80.6231 97.5553 83.9338H89.5323ZM88.2283 59.1687C78.5988 58.9666 67.6669 60.6713 67.6669 70.0972C67.6669 75.813 71.4786 78.5189 75.9924 78.5189C82.3118 78.5189 86.3225 74.5094 87.7268 70.3981C88.0277 69.4956 88.2283 68.4928 88.2283 67.5904V59.1687Z" fill="#CC0000"/>
<path d="M108.453 12.7427H117.278V83.9339H108.453V12.7427Z" fill="#CC0000"/>
<path d="M127.881 74.9104C130.489 76.6151 135.102 78.4201 139.515 78.4201C145.935 78.4201 148.944 75.2097 148.944 71.2002C148.944 66.9886 146.436 64.6838 139.916 62.2756C131.191 59.1702 127.079 54.3554 127.079 48.5394C127.079 40.7179 133.398 34.3018 143.83 34.3018C148.745 34.3018 153.057 35.7056 155.765 37.31L153.558 43.7277C151.652 42.5244 148.142 40.92 143.629 40.92C138.413 40.92 135.505 43.9283 135.505 47.5382C135.505 51.5492 138.412 53.3542 144.731 55.7608C153.157 58.9697 157.469 63.1797 157.469 70.4011C157.469 78.9214 150.848 84.938 139.315 84.938C133.998 84.938 129.085 83.6344 125.673 81.6305L127.881 74.9104Z" fill="#CC0000"/>
<path d="M194.212 83.9338L193.51 77.8169H193.209C190.501 81.6274 185.287 85.0352 178.365 85.0352C168.537 85.0352 163.521 78.1162 163.521 71.0984C163.521 59.3662 173.953 52.9501 192.708 53.0488V52.046C192.708 48.035 191.606 40.8167 181.676 40.8167C177.162 40.8167 172.447 42.2205 169.038 44.4266L167.032 38.6122C171.045 36.005 176.861 34.3003 182.98 34.3003C197.823 34.3003 201.434 44.4266 201.434 54.1534V72.3018C201.434 76.5133 201.634 80.6231 202.237 83.9338H194.212ZM192.908 59.1687C183.279 58.9666 172.347 60.6713 172.347 70.0972C172.347 75.813 176.159 78.5189 180.672 78.5189C186.992 78.5189 191.003 74.5094 192.407 70.3981C192.706 69.4956 192.908 68.4928 192.908 67.5904V59.1687Z" fill="#CC0000"/>
<path d="M213.059 48.5379C213.059 43.5241 212.959 39.4128 212.658 35.4033H220.381L220.783 43.2249H221.082C223.792 38.6122 228.306 34.3003 236.33 34.3003C242.949 34.3003 247.966 38.3113 250.072 44.0271H250.271C251.778 41.3196 253.682 39.2138 255.69 37.7097C258.597 35.5036 261.805 34.3003 266.419 34.3003C272.839 34.3003 282.368 38.5119 282.368 55.3567V83.9338H273.742V56.4597C273.742 47.1341 270.331 41.5202 263.211 41.5202C258.197 41.5202 254.285 45.2304 252.779 49.5422C252.378 50.7456 252.078 52.35 252.078 53.9528V83.9338H243.452V54.8553C243.452 47.1341 240.042 41.5202 233.323 41.5202C227.806 41.5202 223.793 45.9307 222.388 50.3429C221.889 51.6465 221.687 53.1506 221.687 54.6547V83.9338H213.06V48.5379H213.059Z" fill="#CC0000"/>
<path d="M303.978 21.7676C304.079 24.7759 301.872 27.1825 298.361 27.1825C295.255 27.1825 293.046 24.7759 293.046 21.7676C293.046 18.6591 295.352 16.2524 298.563 16.2524C301.872 16.2524 303.978 18.6591 303.978 21.7676ZM294.15 83.934V35.4036H302.978V83.934H294.15Z" fill="#CC0000"/>
<path d="M348.502 76.4131H348.3C345.692 81.2263 340.277 85.0368 332.453 85.0368C321.121 85.0368 311.892 75.2113 311.892 60.4708C311.892 42.3224 323.628 34.3003 333.859 34.3003C341.38 34.3003 346.397 38.0105 348.803 42.7219H349.005L349.305 35.4033H357.629C357.43 39.5146 357.329 43.7262 357.329 48.7385V103.785H348.504V76.4131H348.502ZM348.502 55.0559C348.502 53.8525 348.402 52.4487 348.101 51.3456C346.797 45.9307 342.083 41.318 335.462 41.318C326.337 41.318 320.817 49.0393 320.817 59.9694C320.817 69.5943 325.433 78.0191 335.161 78.0191C340.879 78.0191 345.792 74.5094 347.797 68.391C348.198 67.1877 348.501 65.4846 348.501 64.1794V55.0559H348.502Z" fill="#CC0000"/>
<path d="M380.204 41.1191C380.204 45.1991 377 48.4001 372.831 48.4001C368.706 48.4001 365.417 45.1975 365.417 41.1191C365.417 37.1269 368.708 33.9243 372.831 33.9243C377 33.9243 380.204 37.1269 380.204 41.1191ZM367.258 41.1191C367.258 44.3217 369.628 46.8662 372.875 46.8662C376.035 46.8662 378.361 44.3217 378.361 41.163C378.361 37.9604 376.035 35.3721 372.831 35.3721C369.628 35.3721 367.258 37.9604 367.258 41.1191ZM371.69 44.892H370.023V37.6972C370.681 37.5656 371.603 37.4778 372.788 37.4778C374.148 37.4778 374.764 37.6972 375.291 38.0043C375.685 38.3114 375.991 38.8817 375.991 39.5836C375.991 40.3733 375.377 40.9875 374.501 41.2507V41.3385C375.201 41.6017 375.596 42.1281 375.817 43.0933C376.037 44.1901 376.168 44.6288 376.344 44.892H374.544C374.325 44.6288 374.193 43.9707 373.976 43.1372C373.844 42.3475 373.405 41.995 372.483 41.995H371.694V44.892H371.69ZM371.734 40.812H372.524C373.447 40.812 374.192 40.5065 374.192 39.7591C374.192 39.1011 373.709 38.6624 372.656 38.6624C372.219 38.6624 371.91 38.7062 371.734 38.7501V40.812Z" fill="#CC0000"/>
</svg>
