<svg width="693" height="495" viewBox="0 0 693 495" fill="none" xmlns="http://www.w3.org/2000/svg">
<path d="M173.486 128.7C169.498 131.45 164.823 132.825 159.048 132.962C152.448 133.1 146.536 130.9 142.411 126.775C138.561 122.925 136.636 117.837 136.636 112.062C136.636 106.012 138.973 100.512 143.098 96.6623C147.086 92.8123 152.723 90.6123 158.773 90.7498C163.311 90.7498 166.198 91.5748 170.048 93.7748L171.973 94.8748V86.7623L171.148 86.4873C166.748 84.5623 163.723 84.2873 158.636 84.1498C149.836 84.0123 141.861 87.1748 136.223 92.8123C131.136 97.8998 128.386 104.775 128.386 112.062C128.386 119.625 131.411 126.637 136.636 131.725C142.411 137.225 150.386 139.975 159.186 139.562H159.873C164.411 139.425 167.436 139.287 171.836 137.775L172.386 137.637L176.923 126.362L173.486 128.7Z" fill="white"/>
<path d="M217.486 108.213C214.049 104.638 209.374 102.575 204.424 102.438C199.474 102.3 194.661 104.363 191.086 107.8C187.511 111.238 185.586 115.913 185.586 120.725C185.586 130.763 193.699 138.875 203.736 139.15C208.686 139.288 213.499 137.363 217.074 133.925C220.511 130.488 222.436 126.088 222.574 121.275C222.574 116.462 220.786 111.788 217.486 108.213ZM204.011 133.1C197.961 133.1 193.286 127.875 193.286 121C193.286 117.425 194.661 113.85 196.999 111.513C198.924 109.588 201.399 108.625 204.149 108.625C210.061 108.9 214.874 114.4 214.874 120.725V121.138C214.736 127.738 209.924 133.1 204.011 133.1Z" fill="white"/>
<path d="M309.611 130.9C307.549 132.412 303.699 133.375 299.986 133.512C296.686 133.512 293.524 132.275 291.049 129.937C288.711 127.6 287.336 124.3 287.474 120.862C287.474 113.85 292.699 108.487 299.711 108.35C302.736 108.35 306.036 109.312 308.099 110.825L310.161 112.337V104.5L309.336 104.225C305.899 102.85 303.424 102.712 299.986 102.712H299.711C294.074 102.575 288.849 104.5 285.136 108.212C281.836 111.512 279.911 116.05 279.911 120.862C279.911 121 279.911 121.137 279.911 121.275C280.049 126.225 281.974 130.762 285.411 134.062C289.124 137.637 294.349 139.425 300.124 139.287H301.224C304.386 139.15 306.861 139.15 310.161 137.775L310.436 137.637L310.849 137.5L312.224 129.25L309.611 130.9Z" fill="white"/>
<path d="M355.261 108.35C351.823 104.775 347.148 102.712 342.198 102.575C337.248 102.437 332.436 104.5 328.861 107.937C325.286 111.375 323.361 116.05 323.361 120.862C323.361 130.9 331.473 139.012 341.511 139.287C346.461 139.425 351.273 137.5 354.848 134.062C358.286 130.625 360.211 126.225 360.348 121.412C360.348 121.275 360.348 121.137 360.348 121C360.348 116.187 358.561 111.65 355.261 108.35ZM341.923 133.1C335.873 133.1 331.198 127.875 331.198 121C331.198 117.425 332.573 113.85 334.911 111.512C336.836 109.587 339.311 108.625 342.061 108.625C348.111 108.9 352.923 114.262 352.923 120.725V121.137C352.648 127.737 347.698 133.1 341.923 133.1Z" fill="white"/>
<path d="M520.673 138.6L519.711 136.812C519.298 135.987 519.161 135.575 518.886 134.75C518.611 133.925 518.611 133.512 518.611 132.55V114.675C518.611 106.7 514.073 102.712 504.448 102.437C500.873 102.437 497.436 102.575 493.861 104.775L493.311 105.187V112.612L495.373 110.825C497.161 109.175 500.186 108.487 504.311 108.487C508.298 108.487 511.323 110.412 511.323 113.162C511.323 115.5 510.086 116.05 507.473 116.462C507.473 116.462 506.923 116.6 500.598 117.7C493.723 118.8 490.698 121.825 490.423 128.012C490.423 128.287 490.423 128.425 490.423 128.7C490.423 131.45 491.386 133.925 493.173 135.85C495.511 138.187 498.948 139.562 502.936 139.562C505.548 139.562 508.573 139.15 511.461 137.225C511.461 137.775 511.461 139.15 511.461 139.15L520.673 138.6ZM511.461 121.275C511.461 122.65 511.461 127.462 511.461 127.462C511.461 131.175 507.473 133.512 503.623 133.512C501.698 133.512 499.911 132.825 498.673 131.587C497.848 130.625 497.436 129.662 497.436 128.425V128.012C497.573 125.4 499.361 123.612 502.386 123.062L508.573 121.962C508.573 121.962 510.361 121.55 511.461 121.275Z" fill="white"/>
<path d="M259.011 137.362L257.223 139.562H269.736L268.086 137.5C267.673 136.95 267.536 136.675 267.398 136.262C266.986 135.025 266.986 134.475 266.986 133.512V116.462C266.986 112.887 265.611 109.587 262.998 107.112C260.111 104.362 256.261 102.987 252.136 103.125C248.561 103.262 245.811 104.225 243.473 106.012C243.473 105.6 243.473 104.362 243.473 104.362H242.786H234.673L235.773 107.662C235.773 107.8 235.773 107.937 235.911 108.075L236.186 109.312V135.575C236.186 135.987 236.186 136.262 236.048 136.537L235.498 137.637L234.811 138.6L234.123 139.7H245.536L243.886 136.262C243.611 135.3 243.473 134.612 243.473 133.237V116.737C243.473 112.337 246.498 109.175 250.898 109.037C253.511 109.037 256.123 109.862 257.773 111.512C258.873 112.612 259.561 113.987 259.561 115.5V133.375V134.475V136.262C259.698 136.537 259.561 136.812 259.011 137.362Z" fill="white"/>
<path d="M393.899 102.025C391.286 101.612 389.086 101.887 386.886 103.125C385.924 103.675 385.236 104.225 384.549 104.775C384.549 104.5 384.549 103.4 384.549 103.4H374.236L375.611 105.187C376.161 105.875 376.574 106.287 376.711 107.112C376.986 107.8 376.986 108.35 376.986 109.037V132.55V133.1C376.986 134.062 376.986 134.612 376.711 135.437C376.574 135.85 376.436 135.987 376.161 136.4L374.649 138.875H376.986H387.161L385.924 136.95C385.374 136.125 385.099 135.575 384.961 134.75C384.686 133.512 384.549 132.962 384.549 131.725V117.012C384.549 113.85 386.061 110.825 388.124 109.587C389.774 108.625 391.149 108.487 393.074 109.175L394.724 109.725V102.437L393.899 102.025Z" fill="white"/>
<path d="M470.898 89.2373H462.373V98.0373H470.898V89.2373ZM462.923 136.675L461.411 138.875H472.961L471.586 136.537L471.173 135.575C471.036 135.162 471.036 134.887 471.036 134.2V103.4H460.998L462.511 104.912C462.923 105.325 463.061 105.6 463.336 106.012C463.473 106.425 463.473 106.7 463.473 107.25C463.473 107.387 463.473 107.937 463.473 107.937V134.337V134.887L463.336 136.125C463.198 136.262 463.198 136.4 462.923 136.675Z" fill="white"/>
<path d="M442.986 138.875L441.336 136.4C441.061 135.987 440.924 135.712 440.786 135.437C440.374 132.687 440.374 131.175 440.374 128.287V85.2498H430.199L431.986 87.3123C431.986 87.3123 432.399 87.8623 432.536 87.9998V88.1373L432.674 89.0998C432.674 89.0998 432.674 100.787 432.674 104.912C429.924 102.987 427.174 102.162 423.599 102.3C413.424 102.712 407.511 109.312 407.236 120.587C407.236 126.362 409.299 131.862 412.874 135.3C415.899 138.187 419.886 139.7 424.286 139.425C427.586 139.287 430.061 138.6 432.536 136.95C432.536 137.5 432.536 138.875 432.536 138.875H442.986ZM432.949 116.737V124.575C432.949 127.325 432.124 129.525 430.474 131.037C428.961 132.55 426.761 133.1 424.286 132.962C421.811 132.825 419.611 131.725 417.824 129.8C415.486 127.187 414.386 123.2 414.799 119.35C415.349 114.537 417.411 108.762 424.286 108.487C426.761 108.35 428.961 109.175 430.474 110.687C432.124 112.337 432.949 114.262 432.949 116.737Z" fill="white"/>
<path d="M193.423 63.9375V70.675C193.423 74.6625 190.811 76.0375 187.511 76.0375C184.073 76.0375 181.598 74.3875 181.598 70.8125V64.075H184.623V70.95C184.623 72.6 185.861 73.7 187.511 73.7C189.023 73.7 190.536 72.875 190.536 70.8125V64.2125H193.423V63.9375Z" fill="white"/>
<path d="M222.16 75.7625H219.685L213.085 68.2V75.7625H210.06V63.9375H212.81L219.135 71.225V63.9375H222.16V75.7625Z" fill="white"/>
<path d="M241.961 75.7625H238.936V63.9375H241.961V75.7625Z" fill="white"/>
<path d="M264.511 75.8999H263.273L257.498 63.7999H260.661L263.823 70.5374L266.848 63.7999H270.011L264.511 75.8999Z" fill="white"/>
<path d="M294.211 75.7625H285.411V63.9375H294.073V66H288.436V68.475H293.798V70.675H288.436V73.5625H294.211V75.7625Z" fill="white"/>
<path d="M315.936 63.9375C318.411 63.9375 319.786 65.5875 319.786 67.375C319.786 68.75 319.098 69.7125 317.723 70.2625C318.961 70.8125 319.373 72.325 321.023 75.7625H317.723C316.486 73.2875 315.936 70.95 314.423 70.95H313.598V75.7625H310.573V63.9375H315.936ZM313.598 68.75H315.111C315.936 68.75 316.761 68.3375 316.761 67.375C316.761 66.55 316.211 66 315.111 66H313.598V68.75Z" fill="white"/>
<path d="M344.535 66.9625C342.748 66.1375 341.785 65.8625 340.823 65.8625C339.723 65.8625 339.035 66.275 339.035 66.825C339.035 68.6125 345.085 68.0625 345.085 72.1875C345.085 74.525 343.16 75.7625 340.548 75.7625C338.485 75.7625 337.523 75.2125 336.285 74.6625V72.05C337.935 73.15 339.035 73.5625 340.41 73.5625C341.51 73.5625 342.198 73.15 342.198 72.4625C342.198 70.5375 336.148 71.225 336.148 66.9625C336.148 64.9 337.935 63.525 340.685 63.525C342.06 63.525 343.16 63.8 344.673 64.4875V66.9625H344.535Z" fill="white"/>
<path d="M364.199 75.7625H361.174V63.9375H364.199V75.7625Z" fill="white"/>
<path d="M391.836 65.9999H387.573V75.7624H384.548V65.9999H380.286V63.7999H391.836V65.9999Z" fill="white"/>
<path d="M416.448 75.7624H407.648V63.9374H416.311V65.9999H410.673V68.4749H416.036V70.6749H410.673V73.5624H416.448V75.7624ZM411.773 62.6999H410.536L411.773 60.0874H414.661L411.773 62.6999Z" fill="white"/>
<path d="M311.124 163.764V170.502C311.124 174.489 308.374 175.864 305.211 175.864C301.774 175.864 299.299 174.214 299.299 170.639V163.902H302.324V170.777C302.324 172.427 303.561 173.527 305.211 173.527C306.724 173.527 308.236 172.702 308.236 170.639V164.039H311.124V163.764Z" fill="white"/>
<path d="M339.723 175.725H337.248L330.648 168.162V175.725H327.761V163.9H330.511L336.836 171.187V163.9H339.861V175.725H339.723Z" fill="white"/>
<path d="M359.661 175.725H356.636V163.9H359.661V175.725Z" fill="white"/>
<path d="M382.211 175.862H380.973L375.198 163.762H378.361L381.523 170.5L384.548 163.762H387.711L382.211 175.862Z" fill="white"/>
<path d="M411.911 175.725H403.111V163.9H411.774V166.1H406.136V168.575H411.499V170.775H406.136V173.662H411.911V175.725Z" fill="white"/>
<path d="M433.636 163.762C436.111 163.762 437.486 165.412 437.486 167.2C437.486 168.437 436.798 169.537 435.423 170.087C436.661 170.637 437.073 172.15 438.723 175.587H435.423C434.186 172.975 433.636 170.775 432.123 170.775H431.298V175.587H428.273V163.762H433.636ZM431.161 168.712H432.673C433.498 168.712 434.323 168.3 434.323 167.337C434.323 166.512 433.773 165.962 432.673 165.962H431.161V168.712Z" fill="white"/>
<path d="M462.099 166.925C460.311 166.1 459.349 165.825 458.386 165.825C457.286 165.825 456.599 166.237 456.599 166.787C456.599 168.575 462.649 168.025 462.649 172.287C462.649 174.625 460.724 175.862 458.111 175.862C456.049 175.862 454.949 175.312 453.849 174.762V172.15C455.499 173.25 456.599 173.662 457.974 173.662C459.074 173.662 459.761 173.25 459.761 172.562C459.761 170.637 453.711 171.325 453.711 167.062C453.711 165 455.499 163.625 458.249 163.625C459.624 163.625 460.724 163.9 462.236 164.587V166.925H462.099Z" fill="white"/>
<path d="M481.898 175.725H478.873V163.9H481.898V175.725Z" fill="white"/>
<path d="M509.398 165.962H505.136V175.725H502.111V165.962H497.849V163.762H509.398V165.962Z" fill="white"/>
<path d="M528.648 170.087L523.973 163.762H527.548L530.161 167.475L532.773 163.762H536.348L531.673 170.087V175.587H528.648V170.087Z" fill="white"/>
<path d="M24.5732 75.4873L37.3607 96.9373C36.5357 93.0873 34.8857 85.7998 34.8857 85.7998C36.6732 87.1748 55.7857 93.9123 59.7732 95.1498C57.1607 91.0248 53.0357 87.0373 49.3232 83.0498C52.0732 85.7998 56.8858 88.5498 60.7358 91.0248C62.1108 91.9873 63.6232 92.8123 65.2732 93.7748C65.1357 89.3748 62.9357 84.8373 61.2857 80.7123C62.5232 84.0123 65.9607 87.4498 68.7107 90.4748C69.5357 91.2998 70.2233 92.1248 71.1858 93.0873C73.3858 88.8248 74.0732 84.1498 74.2108 79.8873C74.2108 83.8748 75.0358 88.9623 77.2358 93.0873C78.3358 91.9873 79.2983 91.0248 80.2608 89.9248C82.7358 87.0373 86.0358 83.7373 87.1358 80.7123C85.4858 85.1123 83.5607 89.5123 83.2857 93.9123C89.4733 90.7498 94.4232 86.6248 99.0983 83.1873C95.2483 86.0748 92.6357 89.9248 90.1608 93.0873C89.6107 93.7748 89.0608 94.5998 88.6483 95.2873H88.7858C92.7732 94.0498 111.611 88.4123 111.611 88.4123L81.6358 102.575L111.198 88.5498L109.548 97.3498L109.961 98.4498L123.848 75.4873H24.5732Z" fill="white"/>
<path d="M73.5235 54.8623C44.236 52.7998 28.011 57.8873 24.986 58.4373V66.6873C33.511 64.7623 48.636 62.1498 70.2235 61.4623C99.786 60.9123 117.936 64.3498 123.024 65.5873C123.024 65.4498 123.024 65.7248 123.024 65.5873C123.024 65.5873 105.973 57.7498 73.5235 54.8623Z" fill="white"/>
<path d="M111.748 135.3C99.2354 150.562 81.7729 161.425 74.7604 164.587C64.0354 159.637 38.5979 142.175 27.0479 108.075C26.7729 107.112 26.4979 106.15 26.2229 105.188C26.3604 106.425 26.4979 107.662 26.7729 108.9V108.762C27.1854 110.962 27.5979 113.025 28.1479 115.087C38.8729 151.525 64.8604 170.5 74.6229 175.725C82.1854 171.875 99.3729 157.3 111.748 135.3Z" fill="white"/>
<path d="M36.6733 87.9998L42.1733 120.587C42.1733 120.587 55.0983 139.975 73.3859 150.287V107.25L36.6733 87.9998Z" fill="white"/>
<path d="M76.1357 105.875V150.012C76.5482 149.737 76.9607 149.6 77.2357 149.325C77.5107 149.187 77.9232 148.912 78.1982 148.775V105.462L76.1357 105.875Z" fill="white"/>
<path d="M113.673 86.3498C113.673 86.3498 83.5608 102.025 74.4858 102.85C64.3108 101.75 36.6733 87.9998 36.6733 87.9998C54.5483 102.85 74.0733 107.525 74.7608 107.662C74.7608 107.662 89.4733 104.775 109.686 90.3373C109.548 93.4998 108.586 102.712 106.936 113.162L113.673 86.3498C113.811 86.2123 113.673 86.3498 113.673 86.3498Z" fill="white"/>
<path d="M163.586 259.188C160.973 260.425 156.711 262.075 150.798 262.075C137.323 262.075 131.823 252.45 131.823 244.613C131.823 235.4 138.698 226.463 150.661 226.463C155.611 226.463 159.186 227.838 162.898 229.35V234.438C157.261 231.138 152.586 230.863 150.523 230.863C143.648 230.863 137.048 236.088 137.048 244.2C137.048 251.9 142.548 257.675 150.936 257.675C153.548 257.675 155.198 257.263 158.498 256.163V248.875H151.898V244.475H163.586V259.188Z" fill="white"/>
<path d="M180.498 261.663H175.548V226.875H180.498V261.663Z" fill="white"/>
<path d="M226.01 261.663H221.748L198.51 234.987V261.663H193.835V226.875H197.823L221.198 253.825V226.875H225.873V261.663H226.01Z" fill="white"/>
<path d="M269.186 261.663H264.098L259.423 251.488H244.711L240.311 261.663H235.223L250.073 226.738H253.648L269.186 261.663ZM257.498 246.95L251.861 234.438L246.636 246.95H257.498Z" fill="white"/>
<path d="M322.81 234.712C319.098 232.65 314.973 231.275 310.848 231.275C302.46 231.275 297.098 237.462 297.098 244.475C297.098 250.937 301.635 257.537 310.848 257.537C315.248 257.537 319.51 256.025 323.223 253.687V259.187C319.235 261.387 314.973 262.212 310.573 262.212C297.648 262.212 291.873 252.587 291.873 244.475C291.873 234.85 299.71 226.6 310.71 226.6C316.073 226.6 320.61 228.525 322.81 229.487V234.712Z" fill="white"/>
<path d="M366.535 244.2C366.535 254.238 358.973 262.075 347.56 262.075C336.698 262.075 329.273 254.1 329.273 244.338C329.273 235.125 336.01 226.463 347.835 226.463C359.385 226.463 366.535 234.988 366.535 244.2ZM334.36 244.338C334.36 252.175 340.548 257.4 347.835 257.4C351.548 257.4 355.535 255.888 358.01 253.275C360.21 250.938 361.448 247.088 361.448 244.063C361.448 238.288 357.048 231 347.973 231C338.348 231.138 334.36 238.563 334.36 244.338Z" fill="white"/>
<path d="M385.923 226.875C389.223 226.875 394.86 226.875 399.398 230.45C403.248 233.338 405.998 238.288 405.998 244.2C405.998 253 399.81 257.675 397.61 258.913C393.348 261.525 388.673 261.525 385.098 261.525H374.098V226.875H385.923ZM379.185 231.413V257.125H385.648C388.26 257.125 392.248 256.988 395.273 255.2C398.848 253 401.048 248.738 401.048 244.063C401.048 239.8 399.123 234.987 393.76 232.65C390.873 231.412 388.535 231.413 385.373 231.413H379.185Z" fill="white"/>
<path d="M425.66 243.237V261.663H420.573V243.237L407.785 226.875H413.835L423.185 238.838L432.535 226.875H438.585L425.66 243.237Z" fill="white"/>
<path d="M145.023 286C143.098 284.213 141.173 283.8 139.523 283.8C137.185 283.8 135.81 284.9 135.81 286.275C135.81 288.063 137.185 288.888 141.585 291.225C142.548 291.775 143.648 292.463 144.61 293.563C145.298 294.388 145.848 295.625 145.848 297.138C145.848 300.575 143.235 303.05 139.11 303.05C136.773 303.05 134.573 302.363 132.785 301.125V297.138C133.473 297.963 135.535 300.3 139.11 300.3C140.898 300.3 142.685 299.338 142.685 297.413C142.685 295.625 140.76 294.25 139.66 293.7C135.948 291.638 134.848 291.088 133.885 289.85C133.198 289.025 132.785 287.925 132.785 286.688C132.785 283.388 135.398 280.913 139.66 280.913C141.585 280.913 143.373 281.463 145.023 282.425V286Z" fill="white" stroke="white" stroke-width="0.4"/>
<path d="M170.185 286.138C167.71 284.9 164.96 283.938 162.073 283.938C156.435 283.938 152.86 287.788 152.86 292.188C152.86 296.175 155.885 300.3 162.073 300.3C164.96 300.3 167.848 299.338 170.323 297.963V301.4C167.573 302.775 164.823 303.325 161.798 303.325C153.135 303.325 149.285 297.275 149.285 292.325C149.285 286.413 154.51 281.188 161.935 281.188C165.51 281.188 168.535 282.425 170.048 282.975V286.138H170.185Z" fill="white" stroke="white" stroke-width="0.4"/>
<path d="M194.936 302.912H191.498V293.562H178.436V302.912H175.136V281.325H178.436V290.675H191.498V281.325H194.936V302.912Z" fill="white" stroke="white" stroke-width="0.4"/>
<path d="M224.773 292.05C224.773 298.237 219.685 303.187 211.985 303.187C204.698 303.187 199.748 298.237 199.748 292.187C199.748 286.412 204.285 281.05 212.26 281.05C219.96 281.05 224.773 286.275 224.773 292.05ZM203.185 292.187C203.185 297.137 207.31 300.3 212.26 300.3C214.735 300.3 217.485 299.337 218.998 297.687C220.51 296.175 221.335 293.837 221.335 292.05C221.335 288.475 218.448 283.937 212.26 283.937C205.798 283.937 203.185 288.612 203.185 292.187Z" fill="white" stroke="white" stroke-width="0.4"/>
<path d="M253.51 292.05C253.51 298.237 248.422 303.187 240.722 303.187C233.435 303.187 228.485 298.237 228.485 292.187C228.485 286.412 233.022 281.05 240.997 281.05C248.697 281.05 253.51 286.275 253.51 292.05ZM231.922 292.187C231.922 297.137 236.047 300.3 240.997 300.3C243.472 300.3 246.222 299.337 247.735 297.687C249.247 296.175 250.072 293.837 250.072 292.05C250.072 288.475 247.185 283.937 240.997 283.937C234.535 283.937 231.922 288.612 231.922 292.187Z" fill="white" stroke="white" stroke-width="0.4"/>
<path d="M261.623 300.025H272.073V302.775H258.186V281.188H261.623V300.025Z" fill="white" stroke="white" stroke-width="0.4"/>
<path d="M309.885 292.05C309.885 298.237 304.798 303.187 297.098 303.187C289.81 303.187 284.86 298.237 284.86 292.187C284.86 286.412 289.398 281.05 297.373 281.05C305.073 281.05 309.885 286.275 309.885 292.05ZM288.298 292.187C288.298 297.137 292.423 300.3 297.373 300.3C299.848 300.3 302.598 299.337 304.11 297.687C305.623 296.175 306.448 293.837 306.448 292.05C306.448 288.475 303.56 283.937 297.373 283.937C291.048 283.937 288.298 288.612 288.298 292.187Z" fill="white" stroke="white" stroke-width="0.4"/>
<path d="M327.21 284.075H318.135V289.988H327.21V292.738H318.135V302.775H314.835V281.188H327.21V284.075Z" fill="white" stroke="white" stroke-width="0.4"/>
<path d="M354.848 284.075H344.948V290.675H354.435V293.425H344.948V300.162H355.123V302.912H341.648V281.325H354.848V284.075Z" fill="white" stroke="white" stroke-width="0.4"/>
<path d="M381.798 302.912H378.911L363.373 286.275V302.912H360.211V281.325H362.961L378.636 298.1V281.325H381.798V302.912Z" fill="white" stroke="white" stroke-width="0.4"/>
<path d="M407.923 301.4C406.136 302.087 403.248 303.187 399.398 303.187C390.323 303.187 386.61 297.275 386.61 292.325C386.61 286.687 391.286 281.05 399.261 281.05C402.561 281.05 404.898 281.875 407.511 282.837V286C403.661 283.937 400.498 283.8 399.261 283.8C394.586 283.8 390.185 286.962 390.185 292.05C390.185 296.862 393.898 300.437 399.536 300.437C401.186 300.437 402.423 300.162 404.623 299.475V294.937H400.086V292.187H407.923V301.4Z" fill="white" stroke="white" stroke-width="0.4"/>
<path d="M416.723 302.912H413.423V281.325H416.723V302.912Z" fill="white" stroke="white" stroke-width="0.4"/>
<path d="M444.36 302.912H441.473L425.935 286.275V302.912H422.773V281.325H425.523L441.198 298.1V281.325H444.36V302.912Z" fill="white" stroke="white" stroke-width="0.4"/>
<path d="M463.198 284.075H453.298V290.675H462.786V293.425H453.298V300.162H463.473V302.912H449.998V281.325H463.198V284.075Z" fill="white" stroke="white" stroke-width="0.4"/>
<path d="M481.623 284.075H471.723V290.675H481.21V293.425H471.723V300.162H481.898V302.912H468.423V281.325H481.623V284.075Z" fill="white" stroke="white" stroke-width="0.4"/>
<path d="M492.898 281.325C493.998 281.325 495.373 281.463 496.885 282.013C499.36 282.975 500.598 285.175 500.598 287.375C500.598 289.85 499.223 291.775 496.748 292.738C498.81 293.975 500.185 296.038 501.973 298.65C502.935 300.163 503.485 300.85 505.135 302.913H501.01C500.185 301.813 497.023 297.138 496.198 296.175C493.86 293.425 492.76 293.425 491.11 293.425H490.285V302.775H486.985V281.188H492.898V281.325ZM490.285 283.938V290.675H491.523C492.073 290.675 493.86 290.675 494.823 290.4C496.335 289.85 497.023 288.475 497.023 287.238C497.023 286 496.335 284.9 495.235 284.35C494.41 283.938 493.31 283.8 491.248 283.8H490.285V283.938Z" fill="white" stroke="white" stroke-width="0.4"/>
<path d="M511.598 302.912H508.298V281.325H511.598V302.912Z" fill="white" stroke="white" stroke-width="0.4"/>
<path d="M539.098 302.912H536.211L520.673 286.275V302.912H517.511V281.325H520.261L535.936 298.1V281.325H539.098V302.912Z" fill="white" stroke="white" stroke-width="0.4"/>
<path d="M565.223 301.4C563.435 302.087 560.548 303.187 556.698 303.187C547.623 303.187 543.91 297.275 543.91 292.325C543.91 286.687 548.585 281.05 556.56 281.05C559.86 281.05 562.198 281.875 564.81 282.837V286C560.96 283.937 557.798 283.8 556.56 283.8C551.885 283.8 547.485 286.962 547.485 292.05C547.485 296.862 551.198 300.437 556.835 300.437C558.485 300.437 559.723 300.162 561.923 299.475V294.937H557.385V292.187H565.223V301.4Z" fill="white" stroke="white" stroke-width="0.4"/>
<path d="M154.235 344.163H150.798L147.635 337.838H137.735L134.848 344.163H131.41L141.448 322.438H143.785L154.235 344.163ZM146.26 334.95L142.548 327.113L139.11 334.95H146.26Z" fill="white" stroke="white" stroke-width="0.4"/>
<path d="M179.123 344.162H176.235L160.698 327.525V344.162H157.535V322.575H160.285L175.96 339.35V322.575H179.123V344.162Z" fill="white" stroke="white" stroke-width="0.4"/>
<path d="M192.735 322.575C194.935 322.575 198.648 322.575 201.81 324.775C204.423 326.562 206.348 329.587 206.348 333.3C206.348 338.8 202.223 341.687 200.71 342.512C197.823 344.162 194.66 344.162 192.323 344.162H184.898V322.575H192.735ZM188.198 325.325V341.412H192.46C194.248 341.412 196.998 341.275 198.923 340.175C201.26 338.8 202.773 336.187 202.773 333.3C202.773 330.687 201.535 327.662 197.96 326.15C196.035 325.325 194.523 325.325 192.323 325.325H188.198Z" fill="white" stroke="white" stroke-width="0.4"/>
<path d="M241.136 327.388C238.661 326.15 235.911 325.188 233.023 325.188C227.386 325.188 223.811 329.038 223.811 333.438C223.811 337.425 226.836 341.55 233.023 341.55C235.911 341.55 238.798 340.588 241.273 339.213V342.65C238.523 344.025 235.773 344.575 232.748 344.575C224.086 344.575 220.236 338.525 220.236 333.575C220.236 327.663 225.461 322.438 232.886 322.438C236.461 322.438 239.486 323.675 240.998 324.225V327.388H241.136Z" fill="white" stroke="white" stroke-width="0.4"/>
<path d="M270.148 333.3C270.148 339.487 265.06 344.437 257.36 344.437C250.073 344.437 245.123 339.487 245.123 333.437C245.123 327.662 249.66 322.3 257.635 322.3C265.335 322.3 270.148 327.525 270.148 333.3ZM248.56 333.437C248.56 338.387 252.685 341.55 257.635 341.55C260.11 341.55 262.86 340.587 264.373 338.937C265.885 337.425 266.71 335.087 266.71 333.3C266.71 329.725 263.823 325.187 257.635 325.187C251.173 325.187 248.56 329.862 248.56 333.437Z" fill="white" stroke="white" stroke-width="0.4"/>
<path d="M296.548 344.162H293.248V327.387L286.098 335.775H285.548L278.261 327.387V344.162H274.961V322.575H278.123L285.823 331.375L293.523 322.575H296.686V344.162H296.548Z" fill="white" stroke="white" stroke-width="0.4"/>
<path d="M308.098 322.575C310.848 322.575 313.048 322.575 314.973 324.362C315.935 325.325 316.76 326.7 316.76 328.625C316.76 329.725 316.623 331.375 314.835 333.025C313.323 334.262 311.535 334.812 307.96 334.812H305.485V344.162H302.185V322.575H308.098ZM305.485 325.325V332.062H308.098C309.473 332.062 310.848 332.062 311.81 331.512C312.773 330.962 313.323 330 313.323 328.625C313.323 327.8 313.185 326.975 312.36 326.287C311.398 325.325 310.435 325.325 307.96 325.325H305.485Z" fill="white" stroke="white" stroke-width="0.4"/>
<path d="M339.998 334.812C339.998 336.875 339.998 339.9 337.386 342.1C335.323 343.75 332.711 344.437 330.098 344.437C326.798 344.437 323.223 343.337 321.298 340.725C320.061 338.8 320.061 336.325 320.061 334.812V322.575H323.361V334.812C323.361 337.7 323.636 338.8 324.873 339.9C325.836 340.862 327.348 341.687 330.098 341.687C333.811 341.687 335.461 339.9 336.148 338.8C336.561 337.975 336.836 336.875 336.836 334.812V322.575H340.136V334.812H339.998Z" fill="white" stroke="white" stroke-width="0.4"/>
<path d="M362.685 325.325H354.573V344.162H351.273V325.325H343.298V322.575H362.823V325.325H362.685Z" fill="white" stroke="white" stroke-width="0.4"/>
<path d="M379.735 325.325H369.835V331.925H379.323V334.675H369.835V341.412H380.01V344.162H366.535V322.575H379.735V325.325Z" fill="white" stroke="white" stroke-width="0.4"/>
<path d="M391.011 322.575C392.111 322.575 393.486 322.713 394.998 323.263C397.473 324.225 398.711 326.425 398.711 328.625C398.711 331.1 397.336 333.025 394.861 333.988C396.923 335.225 398.298 337.288 400.086 339.9C401.048 341.413 401.598 342.1 403.248 344.163H399.261C398.436 343.063 395.273 338.388 394.448 337.425C392.111 334.675 391.011 334.675 389.361 334.675H388.536V344.025H385.236V322.438H391.011V322.575ZM388.536 325.188V331.925H389.773C390.323 331.925 392.111 331.925 393.073 331.65C394.586 331.1 395.273 329.725 395.273 328.488C395.273 327.25 394.586 326.15 393.486 325.6C392.661 325.188 391.561 325.05 389.498 325.05H388.536V325.188Z" fill="white" stroke="white" stroke-width="0.4"/>
<path d="M427.585 327.25C425.66 325.463 423.735 325.05 422.085 325.05C419.748 325.05 418.373 326.15 418.373 327.525C418.373 329.313 419.748 330.138 424.148 332.475C425.11 333.025 426.21 333.713 427.172 334.813C427.86 335.638 428.41 336.875 428.41 338.388C428.41 341.825 425.798 344.3 421.673 344.3C419.335 344.3 417.135 343.613 415.348 342.375V338.388C416.035 339.213 418.098 341.55 421.673 341.55C423.46 341.55 425.248 340.588 425.248 338.663C425.248 336.875 423.323 335.5 422.223 334.95C418.51 332.888 417.41 332.338 416.448 331.1C415.76 330.275 415.348 329.175 415.348 327.938C415.348 324.638 417.96 322.163 422.223 322.163C424.148 322.163 425.935 322.713 427.585 323.675V327.25Z" fill="white" stroke="white" stroke-width="0.4"/>
<path d="M452.748 327.388C450.273 326.15 447.523 325.188 444.635 325.188C438.998 325.188 435.423 329.038 435.423 333.438C435.423 337.425 438.448 341.55 444.635 341.55C447.523 341.55 450.41 340.588 452.885 339.213V342.65C450.135 344.025 447.385 344.575 444.36 344.575C435.698 344.575 431.848 338.525 431.848 333.575C431.848 327.663 437.073 322.438 444.498 322.438C448.073 322.438 451.098 323.675 452.61 324.225V327.388H452.748Z" fill="white" stroke="white" stroke-width="0.4"/>
<path d="M461.135 344.162H457.835V322.575H461.135V344.162Z" fill="white" stroke="white" stroke-width="0.4"/>
<path d="M480.11 325.325H470.21V331.925H479.698V334.675H470.21V341.412H480.385V344.162H466.91V322.575H480.11V325.325Z" fill="white" stroke="white" stroke-width="0.4"/>
<path d="M507.06 344.162H504.173L488.635 327.525V344.162H485.473V322.575H488.223L503.898 339.35V322.575H507.06V344.162Z" fill="white" stroke="white" stroke-width="0.4"/>
<path d="M532.635 327.388C530.16 326.15 527.41 325.188 524.523 325.188C518.885 325.188 515.31 329.038 515.31 333.438C515.31 337.425 518.335 341.55 524.523 341.55C527.41 341.55 530.298 340.588 532.773 339.213V342.65C530.023 344.025 527.273 344.575 524.248 344.575C515.585 344.575 511.735 338.525 511.735 333.575C511.735 327.663 516.96 322.438 524.385 322.438C527.96 322.438 530.985 323.675 532.498 324.225V327.388H532.635Z" fill="white" stroke="white" stroke-width="0.4"/>
<path d="M550.923 325.325H541.023V331.925H550.51V334.675H541.023V341.412H551.198V344.162H537.723V322.575H550.923V325.325Z" fill="white" stroke="white" stroke-width="0.4"/>
</svg>
