<svg id="svg" version="1.1" xmlns="http://www.w3.org/2000/svg" xmlns:xlink="http://www.w3.org/1999/xlink" width="400" height="59.495798319327726" viewBox="0, 0, 400,59.495798319327726"><g id="svgg"><path id="path0" d="M20.152 1.032 C 17.170 4.611,16.460 10.542,18.261 16.833 C 18.405 17.337,18.588 18.005,18.666 18.316 C 18.745 18.627,18.876 18.927,18.957 18.983 C 19.297 19.214,23.112 30.441,23.833 33.333 C 23.936 33.746,24.058 34.215,24.104 34.375 C 24.184 34.650,23.742 34.667,16.456 34.667 L 8.723 34.667 8.783 33.708 C 8.951 31.058,9.259 29.311,10.196 25.698 C 12.315 17.523,12.346 12.492,10.302 8.626 C 9.691 7.471,9.088 7.137,8.926 7.864 C 8.879 8.076,8.643 9.150,8.403 10.250 C 7.789 13.063,6.260 17.589,3.083 26.000 C 1.427 30.384,0.000 37.097,0.000 40.506 L 0.000 41.833 4.255 41.833 C 7.519 41.833,8.523 41.882,8.565 42.042 C 8.596 42.156,8.784 43.278,8.984 44.534 C 9.183 45.790,9.672 47.928,10.068 49.284 C 10.465 50.640,10.883 52.313,10.997 53.000 C 11.309 54.880,11.488 54.970,11.499 53.250 C 11.549 45.278,14.427 41.180,19.281 42.169 C 22.930 42.913,24.483 45.619,24.870 51.908 C 25.081 55.341,25.176 55.383,25.526 52.193 C 25.763 50.035,25.821 43.178,25.621 41.042 L 25.492 39.667 30.660 39.667 L 35.827 39.667 35.930 39.257 C 36.581 36.663,32.996 26.376,28.770 18.710 C 25.110 12.071,22.502 5.519,21.953 1.583 C 21.678 -0.396,21.410 -0.478,20.152 1.032 " stroke="none" fill="#7149df" fill-rule="evenodd"></path><path id="path1" d="M18.904 19.375 C 18.946 19.581,19.030 20.050,19.091 20.417 C 19.151 20.783,19.239 21.271,19.287 21.500 C 20.316 26.496,17.522 30.064,13.700 28.634 C 11.971 27.987,11.353 26.816,11.183 23.864 L 11.083 22.132 10.121 25.941 C 9.215 29.529,8.931 31.165,8.789 33.625 L 8.729 34.667 16.459 34.667 C 23.741 34.667,24.184 34.650,24.107 34.375 C 24.062 34.215,23.783 33.190,23.486 32.097 C 22.650 29.019,19.185 19.003,18.955 19.001 C 18.885 19.000,18.862 19.169,18.904 19.375 M35.833 39.500 C 35.833 39.608,33.998 39.667,30.660 39.667 L 25.486 39.667 25.618 40.958 C 25.965 44.352,25.675 52.633,25.134 54.802 C 24.857 55.916,24.908 55.932,28.042 55.701 C 34.632 55.217,35.132 54.810,35.921 49.272 C 36.397 45.933,36.439 39.333,35.984 39.333 C 35.901 39.333,35.833 39.408,35.833 39.500 M0.048 43.792 C 0.237 47.530,1.062 51.723,1.959 53.500 C 2.402 54.378,2.468 54.432,3.536 54.790 C 5.911 55.586,11.071 56.111,11.275 55.578 C 11.457 55.103,10.860 51.986,10.069 49.284 C 9.672 47.928,9.183 45.790,8.984 44.534 C 8.784 43.278,8.596 42.156,8.565 42.042 C 8.523 41.882,7.514 41.833,4.230 41.833 L -0.051 41.833 0.048 43.792 " stroke="none" fill="#5424bc" fill-rule="evenodd"></path><path id="path2" d="M299.462 23.250 C 299.437 26.871,299.473 29.833,299.542 29.833 C 299.610 29.833,299.667 26.871,299.667 23.250 C 299.667 19.629,299.631 16.667,299.587 16.667 C 299.543 16.667,299.487 19.629,299.462 23.250 M178.758 28.379 C 178.803 28.495,179.007 28.692,179.212 28.817 C 179.566 29.033,179.565 29.024,179.179 28.605 C 178.728 28.116,178.639 28.068,178.758 28.379 M332.048 37.250 C 332.049 37.708,332.081 37.876,332.120 37.623 C 332.158 37.369,332.157 36.994,332.117 36.789 C 332.078 36.584,332.046 36.792,332.048 37.250 M81.717 38.167 C 81.717 38.671,81.748 38.877,81.786 38.625 C 81.824 38.373,81.824 37.960,81.786 37.708 C 81.748 37.456,81.717 37.662,81.717 38.167 M299.542 38.083 C 299.544 38.450,299.578 38.580,299.618 38.373 C 299.658 38.166,299.656 37.866,299.615 37.706 C 299.573 37.547,299.540 37.717,299.542 38.083 M298.750 41.500 C 298.687 41.697,298.674 41.896,298.720 41.942 C 298.765 41.988,298.854 41.864,298.917 41.667 C 298.979 41.470,298.993 41.271,298.947 41.225 C 298.901 41.179,298.813 41.303,298.750 41.500 M381.716 59.291 C 382.431 59.322,383.556 59.322,384.216 59.290 C 384.876 59.259,384.292 59.233,382.917 59.233 C 381.542 59.234,381.001 59.259,381.716 59.291 " stroke="none" fill="#343c54" fill-rule="evenodd"></path><path id="path3" d="M152.083 16.647 C 148.430 17.586,149.117 22.667,152.898 22.667 C 155.379 22.667,156.669 21.092,156.106 18.750 C 156.062 18.567,156.020 18.375,156.013 18.324 C 155.868 17.266,153.539 16.273,152.083 16.647 M299.629 23.167 C 299.659 27.627,299.618 29.833,299.504 29.833 C 299.410 29.833,299.333 29.730,299.333 29.603 C 299.333 29.369,298.003 27.897,297.996 28.125 C 297.994 28.194,297.863 28.086,297.705 27.885 C 296.579 26.458,291.943 25.694,288.842 26.425 C 287.709 26.692,285.667 27.612,285.667 27.856 C 285.667 27.935,285.554 28.000,285.417 28.000 C 285.279 28.000,285.167 28.078,285.167 28.172 C 285.167 28.267,284.916 28.493,284.609 28.673 C 281.379 30.579,279.736 37.780,281.425 42.630 C 283.979 49.963,293.278 52.470,298.594 47.258 C 299.454 46.414,299.658 46.281,299.656 46.565 C 299.648 47.379,299.824 48.558,299.977 48.710 C 300.067 48.800,300.101 48.977,300.052 49.104 C 299.980 49.292,300.386 49.333,302.316 49.333 L 304.667 49.333 304.667 32.917 L 304.667 16.500 302.125 16.500 L 299.583 16.500 299.629 23.167 M51.000 33.417 L 51.000 49.333 53.583 49.333 L 56.167 49.333 56.167 42.333 L 56.167 35.333 63.667 35.333 L 71.167 35.333 71.167 42.333 L 71.167 49.333 73.667 49.333 L 76.167 49.333 76.167 33.417 L 76.167 17.500 73.667 17.500 L 71.167 17.500 71.167 24.333 L 71.167 31.167 63.667 31.167 L 56.167 31.167 56.167 24.333 L 56.167 17.500 53.583 17.500 L 51.000 17.500 51.000 33.417 M209.176 18.862 C 208.890 19.611,208.633 20.342,208.605 20.487 C 208.578 20.631,208.468 20.938,208.361 21.167 C 207.885 22.189,206.526 26.074,206.602 26.197 C 206.648 26.272,206.622 26.333,206.544 26.333 C 206.466 26.333,206.259 26.765,206.084 27.292 C 205.909 27.819,205.255 29.636,204.630 31.329 C 204.004 33.022,203.463 34.560,203.427 34.746 C 203.391 34.931,203.250 35.308,203.115 35.583 C 202.980 35.858,202.252 37.771,201.498 39.833 C 200.743 41.896,200.025 43.780,199.903 44.021 C 199.780 44.261,199.727 44.505,199.784 44.562 C 199.842 44.620,199.817 44.667,199.730 44.667 C 199.642 44.667,199.559 44.829,199.544 45.027 C 199.529 45.225,199.432 45.439,199.327 45.504 C 199.223 45.568,199.150 45.670,199.165 45.730 C 199.229 45.991,198.959 46.833,198.810 46.833 C 198.720 46.833,198.699 46.917,198.762 47.019 C 198.825 47.121,198.805 47.252,198.718 47.310 C 198.527 47.439,198.000 48.743,198.000 49.087 C 198.000 49.294,198.431 49.333,200.732 49.333 L 203.464 49.333 203.735 48.656 C 203.884 48.283,203.967 47.914,203.919 47.837 C 203.871 47.759,203.892 47.670,203.967 47.639 C 204.042 47.608,204.430 46.646,204.828 45.500 C 205.227 44.354,205.697 43.023,205.872 42.542 L 206.191 41.667 212.486 41.667 L 218.781 41.667 219.004 42.375 C 219.127 42.765,219.214 43.140,219.197 43.208 C 219.180 43.277,219.246 43.333,219.343 43.333 C 219.440 43.333,219.468 43.417,219.405 43.519 C 219.342 43.621,219.371 43.753,219.468 43.814 C 219.566 43.874,219.686 44.110,219.734 44.337 C 219.782 44.564,220.089 45.462,220.417 46.333 C 220.744 47.204,221.128 48.235,221.270 48.625 L 221.528 49.333 224.180 49.333 C 226.192 49.333,226.833 49.283,226.833 49.125 C 226.834 48.736,220.598 31.856,220.481 31.928 C 220.417 31.968,220.401 31.859,220.447 31.686 C 220.492 31.513,220.448 31.321,220.348 31.259 C 220.248 31.197,220.167 30.997,220.167 30.814 C 220.167 30.630,220.092 30.527,220.000 30.583 C 219.908 30.640,219.833 30.565,219.833 30.416 C 219.833 30.267,219.646 29.735,219.417 29.234 C 219.188 28.733,219.000 28.201,219.000 28.051 C 219.000 27.816,216.741 21.495,216.153 20.083 C 216.038 19.808,215.929 19.527,215.910 19.458 C 215.891 19.390,215.856 19.296,215.833 19.250 C 215.810 19.204,215.777 19.110,215.760 19.042 C 215.743 18.973,215.628 18.598,215.505 18.208 L 215.281 17.500 212.488 17.500 L 209.696 17.500 209.176 18.862 M134.333 21.177 C 134.333 21.274,134.427 21.297,134.542 21.228 C 134.706 21.129,134.706 21.157,134.540 21.362 C 134.424 21.505,134.297 21.988,134.257 22.436 C 134.217 22.884,134.094 24.019,133.985 24.958 L 133.786 26.667 131.893 26.667 L 130.000 26.667 130.000 28.917 L 130.000 31.167 131.917 31.167 L 133.833 31.167 133.836 37.458 C 133.838 44.278,133.931 45.202,134.757 46.610 C 135.197 47.361,136.302 48.372,136.529 48.232 C 136.605 48.185,136.667 48.221,136.667 48.312 C 136.667 48.448,136.992 48.621,137.500 48.756 C 137.546 48.768,137.808 48.880,138.083 49.004 C 138.431 49.162,139.583 49.251,141.875 49.297 L 145.167 49.363 145.167 47.182 L 145.167 45.000 143.292 44.999 C 141.055 44.998,140.295 44.815,139.602 44.111 C 138.891 43.388,138.931 43.765,138.868 37.125 L 138.811 31.167 142.072 31.167 L 145.333 31.167 145.333 28.917 L 145.333 26.667 142.083 26.667 L 138.833 26.667 138.833 23.833 L 138.833 21.000 136.583 21.000 C 135.111 21.000,134.333 21.061,134.333 21.177 M213.599 27.260 C 214.207 28.996,214.803 30.717,214.922 31.083 C 215.041 31.450,215.595 33.053,216.153 34.645 C 216.710 36.237,217.167 37.568,217.167 37.603 C 217.167 37.638,215.029 37.667,212.417 37.667 C 209.804 37.667,207.667 37.632,207.667 37.590 C 207.667 37.548,208.264 35.804,208.995 33.715 C 209.725 31.626,210.786 28.584,211.352 26.955 C 211.918 25.325,212.406 24.017,212.437 24.048 C 212.467 24.078,212.990 25.524,213.599 27.260 M89.729 26.496 C 87.406 27.106,84.548 29.193,83.667 30.926 C 83.530 31.196,83.364 31.457,83.299 31.506 C 82.074 32.425,81.181 40.389,82.131 41.909 C 82.191 42.005,82.261 42.233,82.285 42.417 C 82.411 43.343,83.786 45.610,84.918 46.756 C 90.557 52.470,101.893 49.959,103.568 42.625 L 103.673 42.167 101.007 42.167 L 98.340 42.167 98.018 42.792 C 97.729 43.351,96.907 44.234,96.138 44.810 C 92.843 47.281,87.577 44.507,86.769 39.875 L 86.675 39.333 95.401 39.333 L 104.128 39.333 104.236 38.125 C 104.462 35.611,103.792 32.902,102.441 30.870 C 101.605 29.612,100.255 28.259,99.996 28.419 C 99.906 28.474,99.833 28.405,99.833 28.265 C 99.833 28.115,99.737 28.047,99.600 28.100 C 99.472 28.149,99.310 28.098,99.241 27.986 C 99.155 27.847,99.190 27.821,99.349 27.903 C 99.478 27.970,99.433 27.898,99.250 27.744 C 97.571 26.328,92.770 25.699,89.729 26.496 M114.290 26.427 C 112.941 26.754,110.717 28.011,110.917 28.333 C 110.957 28.398,110.819 28.529,110.610 28.624 C 109.806 28.990,108.920 31.193,108.890 32.901 C 108.814 37.125,110.835 38.488,120.250 40.565 C 121.300 40.796,122.168 41.866,122.160 42.917 C 122.136 46.008,116.952 46.834,114.208 44.184 C 113.818 43.808,113.549 43.500,113.609 43.500 C 113.669 43.500,113.589 43.357,113.430 43.181 C 113.179 42.904,113.062 42.607,113.013 42.125 C 113.006 42.056,111.831 42.000,110.402 42.000 L 107.804 42.000 107.922 42.699 C 108.421 45.652,111.112 48.734,113.621 49.225 C 113.784 49.257,114.029 49.330,114.167 49.387 C 116.586 50.389,121.959 49.916,124.154 48.508 C 127.692 46.238,128.520 40.678,125.672 38.308 C 124.946 37.703,123.057 36.778,122.832 36.917 C 122.741 36.974,122.667 36.952,122.667 36.869 C 122.667 36.711,120.547 36.092,119.432 35.925 C 116.634 35.504,113.833 33.983,113.833 32.884 C 113.833 29.564,120.854 29.678,121.585 33.010 L 121.693 33.500 124.180 33.500 C 125.548 33.500,126.666 33.444,126.664 33.375 C 126.565 28.318,120.511 24.919,114.290 26.427 M168.586 26.436 C 167.266 26.755,165.333 27.655,165.333 27.951 C 165.333 28.081,165.264 28.144,165.180 28.092 C 165.011 27.987,163.000 29.955,163.000 30.226 C 163.000 30.319,162.856 30.550,162.680 30.739 C 162.273 31.177,161.667 32.976,161.667 33.745 L 161.667 34.333 164.154 34.333 L 166.641 34.333 166.838 33.708 C 167.519 31.547,169.478 30.412,172.321 30.529 C 173.045 30.559,173.608 30.613,173.573 30.648 C 173.538 30.684,173.808 30.861,174.173 31.042 C 175.548 31.722,176.387 33.083,176.614 34.998 L 176.711 35.817 172.397 35.878 C 167.075 35.954,166.859 35.987,164.636 37.069 C 160.041 39.304,159.945 46.392,164.477 48.808 C 166.617 49.948,170.795 50.286,172.769 49.479 C 173.034 49.371,173.338 49.264,173.446 49.241 C 174.069 49.110,176.042 47.363,176.725 46.338 C 176.998 45.929,177.000 45.933,177.000 46.806 C 177.000 47.290,177.056 47.651,177.125 47.609 C 177.194 47.566,177.250 47.918,177.250 48.390 L 177.250 49.250 179.542 49.296 L 181.833 49.343 181.831 41.546 C 181.829 35.178,181.782 33.554,181.576 32.681 C 181.288 31.458,180.534 29.960,180.284 30.114 C 180.190 30.172,180.166 30.136,180.231 30.031 C 180.334 29.863,179.250 28.667,178.993 28.667 C 178.936 28.667,178.791 28.482,178.670 28.256 C 178.549 28.030,178.386 27.884,178.308 27.932 C 178.230 27.980,178.167 27.936,178.167 27.834 C 178.167 27.557,176.006 26.600,175.381 26.600 C 175.083 26.600,174.918 26.551,175.015 26.491 C 175.620 26.117,170.100 26.069,168.586 26.436 M237.303 26.424 C 236.115 26.712,234.317 27.505,234.431 27.690 C 234.479 27.767,234.388 27.780,234.230 27.719 C 234.013 27.636,233.967 27.675,234.045 27.876 C 234.120 28.072,234.065 28.128,233.837 28.084 C 233.666 28.051,233.485 28.131,233.435 28.262 C 233.385 28.393,233.240 28.500,233.114 28.500 C 232.714 28.500,230.113 31.765,230.025 32.377 C 230.015 32.446,229.899 32.712,229.767 32.967 C 228.489 35.438,228.610 40.892,230.005 43.703 C 232.043 47.810,236.933 50.537,241.167 49.927 C 241.487 49.880,242.158 49.796,242.657 49.739 C 246.598 49.291,250.581 45.818,251.102 42.375 L 251.209 41.667 248.521 41.667 C 245.926 41.667,245.474 41.759,245.870 42.208 C 245.915 42.260,244.948 43.630,244.546 44.083 C 242.354 46.555,237.023 45.659,235.207 42.514 C 234.965 42.094,234.725 41.712,234.675 41.667 C 234.574 41.575,234.574 41.574,234.218 39.917 C 233.908 38.473,234.020 36.575,234.495 35.221 C 234.682 34.687,234.854 34.180,234.876 34.095 C 235.056 33.407,236.697 31.836,237.768 31.325 C 240.770 29.892,244.490 31.031,245.597 33.721 L 245.917 34.499 248.563 34.499 L 251.209 34.500 251.103 33.834 C 250.838 32.181,248.295 28.250,247.490 28.250 C 247.436 28.250,247.259 28.116,247.095 27.952 C 245.620 26.478,240.425 25.667,237.303 26.424 M262.727 26.487 C 261.274 26.880,259.945 27.535,259.599 28.029 C 259.457 28.231,259.294 28.349,259.236 28.292 C 259.089 28.144,258.682 28.551,258.793 28.734 C 258.844 28.817,258.807 28.837,258.713 28.778 C 258.002 28.339,255.843 32.163,255.835 33.875 L 255.833 34.333 258.403 34.333 L 260.973 34.333 261.251 33.496 C 261.404 33.036,261.800 32.380,262.131 32.038 C 262.461 31.696,262.711 31.342,262.685 31.250 C 262.660 31.158,262.690 31.134,262.751 31.196 C 262.813 31.258,263.213 31.151,263.640 30.958 C 264.839 30.416,267.287 30.436,268.417 30.997 C 268.875 31.224,269.312 31.391,269.387 31.368 C 269.463 31.344,269.487 31.386,269.441 31.461 C 269.395 31.535,269.633 31.899,269.970 32.269 C 270.307 32.638,270.598 33.048,270.616 33.179 C 270.634 33.310,270.726 33.717,270.821 34.083 C 270.915 34.450,270.994 34.987,270.996 35.278 L 271.000 35.805 266.458 35.875 C 261.589 35.950,260.426 36.144,258.528 37.192 C 255.288 38.983,254.286 43.699,256.471 46.875 C 259.284 50.963,267.622 50.984,270.671 46.910 L 271.250 46.137 271.377 46.943 C 271.447 47.387,271.510 47.975,271.517 48.250 C 271.545 49.367,271.469 49.333,273.942 49.333 L 276.195 49.333 276.125 41.458 C 276.049 32.785,276.032 32.629,274.961 30.620 C 274.443 29.647,272.778 27.778,272.594 27.962 C 272.542 28.013,272.500 27.970,272.500 27.864 C 272.500 27.605,271.202 26.959,270.969 27.103 C 270.858 27.171,270.828 27.143,270.896 27.034 C 271.341 26.313,264.952 25.886,262.727 26.487 M317.917 26.431 C 316.815 26.692,316.615 26.765,315.458 27.328 C 315.023 27.540,314.667 27.778,314.667 27.856 C 314.667 27.935,314.554 28.000,314.417 28.000 C 314.279 28.000,314.167 28.075,314.167 28.167 C 314.167 28.258,314.060 28.333,313.929 28.333 C 313.011 28.333,310.420 32.538,309.924 34.833 C 309.168 38.332,309.992 43.950,311.397 44.872 C 311.499 44.940,311.521 44.996,311.444 44.997 C 311.268 45.001,312.215 46.201,312.991 46.959 C 313.766 47.715,314.930 48.515,315.062 48.382 C 315.120 48.325,315.167 48.356,315.167 48.452 C 315.167 48.646,316.400 49.209,317.417 49.479 C 319.492 50.029,323.267 50.026,324.616 49.474 C 324.873 49.369,325.225 49.255,325.399 49.222 C 327.096 48.897,329.734 46.419,330.858 44.095 C 331.841 42.061,331.945 42.167,328.958 42.167 L 326.416 42.167 326.015 42.922 C 325.570 43.762,324.286 44.974,323.655 45.150 C 323.524 45.186,323.042 45.323,322.583 45.452 C 319.441 46.343,316.031 44.377,314.945 41.048 C 314.326 39.150,313.430 39.333,323.328 39.333 C 330.086 39.333,331.981 39.288,332.039 39.125 C 332.324 38.327,331.957 34.349,331.481 33.073 C 330.878 31.458,328.787 28.500,328.248 28.500 C 328.131 28.500,327.992 28.387,327.940 28.250 C 327.887 28.113,327.729 28.000,327.589 28.000 C 327.448 28.000,327.333 27.929,327.333 27.842 C 327.333 26.702,320.867 25.733,317.917 26.431 M345.822 26.481 C 344.676 26.848,343.818 27.341,343.951 27.556 C 344.006 27.645,343.970 27.668,343.870 27.606 C 343.769 27.544,343.276 27.908,342.773 28.416 C 341.745 29.451,341.767 29.464,341.579 27.708 L 341.467 26.667 339.150 26.667 L 336.833 26.667 336.833 38.000 L 336.833 49.333 339.420 49.333 L 342.008 49.333 341.962 42.849 C 341.937 39.283,341.963 36.393,342.019 36.428 C 342.075 36.463,342.168 36.100,342.224 35.622 C 342.776 30.966,348.871 28.824,351.185 32.473 C 352.215 34.096,352.230 34.226,352.294 42.125 L 352.353 49.333 354.827 49.333 L 357.302 49.333 357.372 42.625 C 357.450 35.179,357.513 34.711,358.668 32.967 C 360.393 30.362,364.079 29.860,366.358 31.920 C 366.712 32.239,366.961 32.500,366.913 32.500 C 366.864 32.500,366.939 32.721,367.079 32.992 C 367.778 34.344,367.841 35.129,367.835 42.375 L 367.829 49.333 370.426 49.333 L 373.023 49.333 372.956 41.542 C 372.881 32.967,372.851 32.675,371.800 30.542 C 369.293 25.448,361.478 24.511,357.208 28.793 C 356.635 29.368,356.166 29.931,356.166 30.044 C 356.165 30.229,356.007 30.024,355.296 28.918 C 354.574 27.794,352.470 26.483,351.318 26.440 C 350.979 26.427,350.735 26.360,350.777 26.292 C 350.943 26.019,346.769 26.178,345.822 26.481 M150.500 38.000 L 150.500 49.333 153.000 49.333 L 155.500 49.333 155.500 38.000 L 155.500 26.667 153.000 26.667 L 150.500 26.667 150.500 38.000 M375.333 26.811 C 375.333 27.123,376.053 28.667,376.199 28.667 C 376.284 28.667,376.311 28.735,376.259 28.818 C 376.134 29.021,376.333 29.520,376.499 29.418 C 376.570 29.373,376.626 29.430,376.622 29.543 C 376.601 30.114,376.680 30.345,376.859 30.234 C 376.973 30.164,377.006 30.188,376.942 30.293 C 376.824 30.484,378.597 34.851,378.859 35.015 C 378.946 35.069,379.029 35.275,379.044 35.473 C 379.059 35.671,379.134 35.833,379.212 35.833 C 379.290 35.833,379.307 35.908,379.250 36.000 C 379.193 36.092,379.214 36.167,379.296 36.167 C 379.378 36.167,379.448 36.260,379.453 36.375 C 379.458 36.490,379.822 37.333,380.261 38.250 C 380.701 39.167,381.077 39.992,381.097 40.083 C 381.151 40.327,382.781 44.092,383.025 44.537 C 383.140 44.746,383.248 44.992,383.265 45.083 C 383.282 45.175,383.503 45.700,383.757 46.250 C 384.011 46.800,384.207 47.306,384.193 47.375 C 384.178 47.444,384.464 47.500,384.827 47.500 L 385.487 47.500 384.585 49.420 C 384.089 50.477,383.680 51.377,383.677 51.422 C 383.674 51.466,383.482 51.876,383.250 52.333 C 383.018 52.790,382.826 53.201,382.823 53.245 C 382.820 53.290,382.475 54.059,382.057 54.955 C 381.639 55.850,381.192 56.877,381.063 57.236 C 380.934 57.594,380.766 57.969,380.689 58.069 C 380.611 58.169,380.473 58.475,380.381 58.750 L 380.213 59.250 382.917 59.250 L 385.621 59.250 386.433 57.417 C 386.880 56.408,387.250 55.546,387.255 55.500 C 387.260 55.454,387.381 55.192,387.524 54.917 C 387.667 54.642,388.627 52.504,389.656 50.167 C 390.685 47.829,391.593 45.793,391.672 45.641 C 391.942 45.124,396.200 35.584,396.235 35.417 C 396.254 35.325,396.425 34.950,396.615 34.583 C 396.898 34.036,397.542 32.568,398.662 29.917 C 398.821 29.542,399.043 28.960,399.076 28.833 C 399.089 28.787,399.254 28.450,399.444 28.083 C 399.635 27.717,399.843 27.248,399.907 27.042 L 400.022 26.667 397.298 26.667 L 394.573 26.667 394.266 27.458 C 394.097 27.894,393.975 28.317,393.994 28.398 C 394.013 28.479,393.963 28.592,393.882 28.648 C 393.710 28.767,392.480 31.680,392.509 31.898 C 392.520 31.979,392.463 32.092,392.382 32.148 C 392.302 32.204,391.984 32.850,391.677 33.583 C 391.369 34.317,390.932 35.325,390.706 35.824 C 390.101 37.154,388.640 40.556,388.591 40.750 C 388.497 41.119,387.744 42.659,387.655 42.663 C 387.603 42.665,386.070 39.067,384.248 34.667 L 380.936 26.667 378.135 26.667 C 376.594 26.667,375.333 26.732,375.333 26.811 M95.584 30.983 C 97.268 31.728,98.606 33.404,99.090 35.375 L 99.203 35.833 93.018 35.833 C 89.616 35.833,86.833 35.773,86.833 35.699 C 86.833 32.238,92.056 29.423,95.584 30.983 M323.563 30.974 C 323.995 31.165,324.542 31.473,324.778 31.659 C 325.013 31.844,325.274 31.953,325.357 31.902 C 325.440 31.851,325.489 31.870,325.465 31.946 C 325.441 32.022,325.654 32.421,325.940 32.833 C 326.475 33.607,327.000 34.930,327.000 35.506 C 327.000 35.825,326.852 35.833,320.842 35.833 L 314.685 35.833 314.940 34.958 C 315.246 33.910,315.812 32.896,316.396 32.351 C 316.631 32.131,316.789 31.896,316.747 31.828 C 316.705 31.760,316.801 31.715,316.960 31.727 C 317.120 31.740,317.230 31.651,317.204 31.529 C 317.179 31.408,317.233 31.354,317.323 31.411 C 317.414 31.467,317.790 31.359,318.158 31.171 C 319.648 30.411,322.089 30.322,323.563 30.974 M293.921 30.848 C 295.106 31.067,296.289 31.643,297.148 32.420 C 297.498 32.735,297.844 32.939,297.919 32.872 C 297.993 32.805,298.000 32.842,297.936 32.955 C 297.826 33.145,298.372 34.095,298.750 34.372 C 298.842 34.440,298.859 34.496,298.788 34.497 C 298.717 34.499,298.782 34.688,298.932 34.917 C 299.082 35.146,299.150 35.333,299.083 35.333 C 299.016 35.333,299.091 35.530,299.248 35.771 C 299.406 36.011,299.444 36.152,299.333 36.083 C 299.223 36.015,299.261 36.156,299.419 36.397 C 299.642 36.737,299.662 36.888,299.512 37.069 C 299.379 37.230,299.372 37.338,299.492 37.412 C 299.742 37.566,299.713 38.664,299.458 38.680 C 299.312 38.689,299.307 38.717,299.443 38.772 C 299.625 38.847,299.517 39.586,299.214 40.333 C 299.158 40.471,299.096 40.640,299.077 40.708 C 299.058 40.777,299.023 40.890,299.001 40.958 C 298.979 41.027,298.972 41.147,298.986 41.226 C 299.028 41.458,298.810 42.032,298.716 41.938 C 298.668 41.890,298.305 42.278,297.909 42.800 C 296.083 45.208,292.886 46.089,290.167 44.933 C 289.571 44.680,288.994 44.466,288.884 44.458 C 288.775 44.451,288.700 44.399,288.718 44.343 C 288.735 44.288,288.442 43.964,288.067 43.624 C 282.862 38.917,287.135 29.594,293.921 30.848 M176.547 39.661 C 176.591 39.832,176.574 40.034,176.509 40.111 C 176.443 40.187,176.293 40.587,176.176 41.000 C 175.300 44.078,173.104 45.788,170.250 45.614 C 168.334 45.498,168.334 45.498,167.386 44.583 L 166.522 43.750 166.553 42.653 C 166.625 40.057,168.508 39.196,173.885 39.300 C 176.241 39.345,176.472 39.376,176.547 39.661 M270.781 40.047 C 270.078 45.178,263.552 47.814,261.148 43.939 C 260.841 43.445,260.724 41.081,261.015 41.260 C 261.069 41.293,261.277 41.099,261.477 40.828 C 262.343 39.657,263.534 39.376,267.731 39.352 L 270.879 39.333 270.781 40.047 " stroke="none" fill="#2c3c54" fill-rule="evenodd"></path><path id="path4" d="" stroke="none" fill="#2c4880" fill-rule="evenodd"></path></g></svg>