<svg width="489" height="124" viewBox="0 0 489 124" fill="none" xmlns="http://www.w3.org/2000/svg">
<path d="M317.254 107.29V104.372H348.264V107.29H317.254Z" fill="#DA5251"/>
<path d="M315.001 29.0438L295.123 20.0257V16.8428L318.844 27.7176V30.5027L295.123 41.2449V38.062L315.001 29.0438Z" fill="#DA5251"/>
<path d="M346.143 104.372L342.3 37.9293H344.023V35.5421H340.975V24.0042H344.685L332.626 12.7314L321.362 24.0042H324.542V35.5421H321.362V37.9293H323.482L319.374 104.372H346.143ZM338.722 24.0042V34.7464H327.325V24.0042H338.722ZM335.409 101.985V97.078H330.903V101.985H322.024L322.554 94.956L342.83 85.2748L343.758 101.985H335.409ZM325.072 56.0983L340.71 48.8042L341.637 63.9229L324.012 73.0737L325.072 56.0983Z" fill="white"/>
<path d="M20.6733 98.4043V63.3926H24.3839V95.2215H42.2742V98.537H20.6733V98.4043Z" fill="white"/>
<path d="M48.8999 98.4043V63.3926H52.6105V98.537H48.8999V98.4043Z" fill="white"/>
<path d="M82.958 94.6909C81.7654 96.0171 80.4402 96.9454 78.7174 97.6085C77.1271 98.2716 75.4044 98.6695 73.6816 98.6695C70.1036 98.6695 67.3206 97.7412 65.4654 95.7518C63.4776 93.7625 62.2849 91.9059 62.0198 90.0492C61.6223 88.1925 61.4897 85.1422 61.4897 80.8984C61.4897 77.4502 61.6223 74.6652 61.7548 72.5433C61.8873 70.4214 63.08 68.2994 65.2003 66.1775C67.3206 64.0556 70.1036 62.9946 73.6816 62.9946C75.8019 62.9946 77.7897 63.3925 79.38 64.1882C80.9702 64.9839 82.5605 66.1775 84.2832 67.769L81.6328 70.2887C80.1751 68.8299 78.9824 67.9016 77.9223 67.2385C76.8621 66.5754 75.4044 66.3101 73.6816 66.3101C71.2962 66.3101 69.3084 66.9732 67.9832 68.4321C66.658 69.8909 65.8629 71.2171 65.5979 72.8085C65.3328 74.2674 65.2003 77.0524 65.2003 80.8984C65.2003 84.7444 65.3328 87.3968 65.5979 88.9882C65.8629 90.5797 66.658 92.0385 67.9832 93.3647C69.3084 94.6909 71.1637 95.354 73.6816 95.354C76.4645 95.354 78.4523 94.6909 79.5125 93.2321C80.7052 91.7732 81.3678 90.5797 81.7654 89.5187C82.0304 88.4577 82.1629 87.2642 82.1629 85.938V83.2855H73.6816V79.97H85.8735V85.5401C85.8735 87.5294 85.6084 89.2535 85.2109 90.7123C84.8133 92.1711 84.0182 93.4973 82.958 94.6909Z" fill="white"/>
<path d="M114.895 98.4043V82.3573H98.1979V98.4043H94.4873V63.3926H98.1979V79.0418H114.895V63.3926H118.606V98.537H114.895V98.4043Z" fill="white"/>
<path d="M139.014 66.7081V98.537H135.303V66.7081H125.232V63.3926H149.218V66.7081H139.014Z" fill="white"/>
<path d="M176.12 98.4043V82.3573H159.422V98.4043H155.711V63.3926H159.422V79.0418H176.12V63.3926H179.83V98.537H176.12V98.4043Z" fill="white"/>
<path d="M209.912 95.0887C207.527 97.4759 204.479 98.6695 200.901 98.6695C197.323 98.6695 194.54 97.7412 192.685 95.7518C190.829 93.7625 189.504 91.9059 189.239 90.0492C188.842 88.1925 188.709 85.1422 188.709 80.8984C188.709 77.4502 188.842 74.6652 188.974 72.5433C189.107 70.4214 190.299 68.2994 192.42 66.1775C194.54 64.0556 197.323 62.9946 200.901 62.9946C204.479 62.9946 207.262 63.923 209.117 65.9123C210.972 67.9016 212.298 69.7583 212.563 71.615C212.96 73.4716 213.093 76.5219 213.093 80.7658C213.093 84.2139 212.96 86.9989 212.828 89.1208C212.695 91.2428 211.635 93.2321 209.912 95.0887ZM206.997 68.9625C205.407 67.2385 203.419 66.4428 200.901 66.4428C198.516 66.4428 196.528 67.1059 195.202 68.5647C193.877 70.0235 193.082 71.3497 192.817 72.9412C192.552 74.4 192.42 77.185 192.42 81.031C192.42 84.877 192.552 87.5294 192.817 89.1208C193.082 90.7123 193.877 92.0385 195.202 93.4973C196.528 94.8235 198.383 95.6192 200.901 95.6192C203.286 95.6192 205.274 94.9561 206.599 93.4973C207.924 92.0385 208.72 90.7123 208.985 89.1208C209.25 87.662 209.382 84.877 209.382 81.031C209.382 77.185 209.25 74.5326 208.985 72.9412C208.72 71.3497 208.057 70.0235 206.997 68.9625Z" fill="white"/>
<path d="M233.633 98.6696C230.055 98.6696 227.14 97.6086 224.887 95.3541C222.634 93.0995 221.441 90.3145 221.441 86.8664V63.3926H225.152V86.6011C225.152 89.2535 225.947 91.3755 227.405 92.9669C228.995 94.5584 230.983 95.3541 233.501 95.3541C236.019 95.3541 238.139 94.5584 239.597 92.9669C241.187 91.3755 241.982 89.2535 241.982 86.6011V63.3926H245.693V86.8664C245.693 90.3145 244.5 93.2322 242.247 95.4867C240.127 97.6086 237.211 98.6696 233.633 98.6696Z" fill="white"/>
<path d="M264.511 98.6695C261.86 98.6695 259.607 98.2716 257.752 97.6085C255.897 96.9454 254.174 95.7519 252.451 94.0278L254.969 91.508C256.427 92.9668 257.752 93.8952 259.21 94.4256C260.667 94.9561 262.39 95.354 264.511 95.354C267.028 95.354 269.149 94.8235 270.606 93.6299C272.064 92.4363 272.859 90.8449 272.859 88.8556C272.859 86.8663 272.462 85.5401 271.667 84.877C270.872 84.2139 270.076 83.6834 269.414 83.4182C268.751 83.1529 267.824 83.0203 266.631 82.7551L262.523 82.092C259.74 81.6941 257.487 80.6331 255.897 79.1743C254.306 77.7155 253.379 75.5936 253.379 72.8085C253.379 69.7583 254.439 67.3711 256.427 65.647C258.415 63.7904 261.198 62.9946 264.643 62.9946C266.896 62.9946 268.751 63.2599 270.341 63.923C271.932 64.4535 273.522 65.5144 274.98 66.8406L272.594 69.2278C271.534 68.2994 270.341 67.5037 269.016 66.9732C267.691 66.4428 266.233 66.1775 264.378 66.1775C261.993 66.1775 260.27 66.708 258.945 67.9016C257.619 69.0952 256.957 70.6866 256.957 72.6759C256.957 74.4 257.354 75.7262 258.15 76.3893C258.945 77.0524 259.74 77.5829 260.667 77.9807C261.463 78.3786 262.39 78.6438 263.318 78.7765L267.161 79.3069C268.751 79.5722 270.076 79.8374 271.004 80.2353C271.932 80.6331 273.124 81.4289 274.45 82.4898C275.775 83.6834 276.437 85.6727 276.437 88.723C276.437 91.7732 275.377 94.1604 273.124 96.0171C271.269 97.7412 268.221 98.6695 264.511 98.6695Z" fill="white"/>
<path d="M284.521 98.4043V63.3926H306.255V66.7081H288.232V79.0418H303.604V82.3573H288.232V95.0888H306.255V98.4043H284.521Z" fill="white"/>
<path d="M359.528 98.6693V63.5249H363.238V95.3538H381.129V98.6693H359.528Z" fill="white"/>
<path d="M408.03 98.6693L405.247 90.7121H390.007L387.092 98.6693H383.116L395.971 63.5249H399.151L412.006 98.6693H408.03ZM397.693 68.9623L391.067 87.3966H404.187L397.693 68.9623Z" fill="white"/>
<path d="M431.354 98.6693H417.704V63.5249H430.956C434.004 63.5249 436.522 64.3206 438.377 66.0447C440.233 67.7687 441.293 70.0233 441.293 72.9409C441.293 74.7976 440.763 76.3891 439.835 77.7153C438.907 79.0415 437.582 80.1024 436.124 80.6329C437.847 81.296 439.172 82.357 440.233 83.8158C441.293 85.2746 441.823 86.9987 441.823 88.988C441.823 92.1709 440.895 94.5581 439.04 96.1495C437.185 97.7409 434.667 98.6693 431.354 98.6693ZM430.691 66.8404H421.547V79.0415H430.691C432.811 79.0415 434.402 78.511 435.727 77.45C437.052 76.3891 437.582 74.9303 437.582 72.8083C437.582 70.819 436.92 69.3602 435.727 68.2992C434.402 67.3709 432.679 66.8404 430.691 66.8404ZM431.089 82.357H421.547V95.2212H431.089C433.209 95.2212 434.932 94.6907 436.257 93.4971C437.582 92.3035 438.112 90.7121 438.112 88.7228C438.112 86.7335 437.45 85.142 436.257 84.0811C434.932 82.8875 433.209 82.357 431.089 82.357Z" fill="white"/>
<path d="M459.581 98.8021C456.93 98.8021 454.678 98.4043 452.822 97.7411C450.967 97.078 449.244 95.8845 447.521 94.1604L450.039 91.6406C451.497 93.0994 452.822 94.0278 454.28 94.5583C455.738 95.0888 457.46 95.354 459.581 95.354C462.099 95.354 464.219 94.8235 465.677 93.6299C467.134 92.4363 467.93 90.8449 467.93 88.8556C467.93 86.8663 467.532 85.5401 466.737 84.877C465.942 84.2139 465.147 83.6834 464.484 83.4182C463.821 83.1529 462.894 83.0203 461.701 82.7551L457.593 82.092C454.81 81.6941 452.557 80.6331 450.967 79.1743C449.377 77.7155 448.449 75.5936 448.449 72.8085C448.449 69.7583 449.509 67.3711 451.497 65.647C453.485 63.7904 456.268 62.9946 459.713 62.9946C461.966 62.9946 463.821 63.2599 465.412 63.923C467.002 64.4535 468.592 65.5144 470.05 66.8406L467.665 69.2278C466.604 68.2994 465.412 67.5037 464.087 66.9732C462.761 66.4428 461.304 66.1775 459.448 66.1775C457.063 66.1775 455.34 66.708 454.015 67.9016C452.69 69.0952 452.027 70.6866 452.027 72.6759C452.027 74.4 452.425 75.7262 453.22 76.3893C454.015 77.0524 454.81 77.5829 455.738 77.9807C456.533 78.3786 457.46 78.6438 458.388 78.7764L462.231 79.3069C463.821 79.5722 465.147 79.8374 466.074 80.2353C467.002 80.6331 468.195 81.4289 469.52 82.4898C470.845 83.6834 471.508 85.6727 471.508 88.723C471.508 91.7732 470.447 94.1604 468.195 96.0171C466.339 98.0064 463.291 98.8021 459.581 98.8021Z" fill="white"/>
</svg>
