<svg width="559" height="124" viewBox="0 0 559 124" fill="none" xmlns="http://www.w3.org/2000/svg">
<mask id="mask0" mask-type="alpha" maskUnits="userSpaceOnUse" x="0" y="0" width="559" height="124">
<rect x="0.724121" y="0.816895" width="558.276" height="122.581" fill="#C4C4C4"/>
</mask>
<g mask="url(#mask0)">
<path d="M2.42188 14.2266H548.156V22.8781H2.42188V14.2266Z" fill="white"/>
<path fill-rule="evenodd" clip-rule="evenodd" d="M205.413 101.065C203.735 100.123 201.821 99.6298 199.873 99.637C193.677 99.637 189.561 103.865 189.561 109.622C189.561 115.623 194.101 119.607 199.678 119.607C201.605 119.607 204.181 119.132 205.529 118.365L205.758 121.913C203.705 122.716 201.221 122.827 199.641 122.827C191.138 122.827 185.482 117.623 185.482 109.511C185.482 101.65 191.487 96.417 199.678 96.417C201.751 96.3766 203.81 96.7511 205.721 97.5164L205.413 101.065Z" fill="white"/>
<path fill-rule="evenodd" clip-rule="evenodd" d="M212.072 109.623C212.072 117.377 216.804 122.828 224.998 122.828C233.193 122.828 237.925 117.377 237.925 109.623C237.925 102.051 233.155 96.418 224.998 96.418C216.841 96.418 212.072 102.051 212.072 109.623ZM216.15 109.623C216.15 104.419 219.072 99.6021 224.998 99.6379C230.924 99.6021 233.85 104.429 233.85 109.623C233.85 114.707 231.195 119.608 224.998 119.608C218.802 119.608 216.15 114.707 216.15 109.623Z" fill="white"/>
<path fill-rule="evenodd" clip-rule="evenodd" d="M246.431 96.8569H250.28V119.169H261.513V122.389H246.431V96.8569Z" fill="white"/>
<path fill-rule="evenodd" clip-rule="evenodd" d="M268.748 96.8569H272.594V119.169H283.83V122.389H268.748V96.8569Z" fill="white"/>
<path fill-rule="evenodd" clip-rule="evenodd" d="M291.295 96.8569H306.339V100.077H295.141V107.538H305.337V110.758H295.141V119.169H306.339V122.389H291.295V96.8569Z" fill="white"/>
<path fill-rule="evenodd" clip-rule="evenodd" d="M335.968 101.394C334.083 100.223 332.044 99.6379 328.581 99.6379C322.385 99.6379 318.268 103.918 318.268 109.623C318.268 115.624 322.805 119.608 328.386 119.608C329.838 119.654 331.289 119.506 332.697 119.169V111.415H327.041V108.416H336.543V121.693C335.082 122.168 332.543 122.828 328.331 122.828C319.825 122.828 314.173 117.624 314.173 109.512C314.173 101.651 320.174 96.418 328.369 96.418C332.293 96.418 334.028 96.9676 336.256 97.6994L335.951 101.394H335.968Z" fill="white"/>
<path fill-rule="evenodd" clip-rule="evenodd" d="M346.625 96.8569H361.665V100.077H350.47V107.538H360.666V110.758H350.47V119.169H361.665V122.389H346.625V96.8569Z" fill="white"/>
<path d="M4.02197 108.545H172.08V111.593H4.02197V108.545Z" fill="white"/>
<path d="M378.693 108.158H550.911V111.205H378.693V108.158Z" fill="white"/>
<path fill-rule="evenodd" clip-rule="evenodd" d="M68.1552 79.6288C68.4632 82.2731 69.0072 86.3907 72.3295 87.4185C73.9616 87.8768 75.6575 88.0961 77.3591 88.069C77.7457 88.069 77.975 88.1406 77.975 88.4366C77.975 88.8756 77.2907 89.0871 76.3532 89.0871C74.6424 89.0871 66.3008 88.8659 63.437 88.648C61.6578 88.4984 61.2746 88.2804 61.2746 87.9129C61.2746 87.6169 61.4286 87.4706 61.8152 87.3958C62.2018 87.321 62.2771 86.0753 62.1231 84.7515L58.4108 46.8407H58.1815L39.2332 85.067C37.6114 88.3032 37.3788 88.97 36.6808 88.97C36.1402 88.97 35.7535 88.2349 34.2857 85.5874C32.2739 81.9804 25.6225 69.2665 25.2392 68.5282C24.5549 67.2044 15.8814 49.563 15.0295 47.5757H14.7215L11.6422 81.6844C11.5635 82.8618 11.5635 84.1856 11.5635 85.4345C11.5722 85.9761 11.7771 86.4982 12.1436 86.9129C12.51 87.3276 13.0157 87.6096 13.5753 87.7113C14.539 87.9299 15.524 88.0531 16.5144 88.0788C16.8223 88.0788 17.1303 88.2251 17.1303 88.4463C17.1303 88.9602 16.6684 89.0968 15.7377 89.0968C12.8773 89.0968 9.16499 88.8756 8.55254 88.8756C7.86823 88.8756 4.14563 89.0968 2.05167 89.0968C1.26472 89.1066 0.724121 88.9635 0.724121 88.4561C0.724121 88.2349 1.11075 88.0885 1.49738 88.0885C2.2728 88.0986 3.04678 88.0222 3.80348 87.8609C6.35593 87.4185 6.58517 84.5531 6.88284 81.7592L12.477 33.8308C12.6344 33.0209 12.8636 32.5103 13.329 32.5103C13.7943 32.5103 14.1022 32.803 14.4889 33.6096L38.152 79.8468L60.888 33.6844C61.1959 33.0339 61.5038 32.5103 62.0444 32.5103C62.585 32.5103 62.8211 33.0957 62.9751 34.4943L68.1552 79.6288Z" fill="white"/>
<path fill-rule="evenodd" clip-rule="evenodd" d="M82.5578 82.4067C81.4116 85.438 80.1388 87.7342 77.21 88.0985C76.7002 88.1603 75.8072 88.2188 75.3624 88.2188C75.0442 88.2188 74.7876 88.3424 74.7876 88.5831C74.7876 88.9474 75.1708 89.0677 75.9988 89.0677C78.9926 89.0677 82.4997 88.8856 83.184 88.8856C83.8683 88.8856 86.6226 89.0677 88.152 89.0677C88.7234 89.0677 89.1066 88.9474 89.1066 88.5831C89.1066 88.3424 88.915 88.2188 88.4702 88.2188H87.8338C86.7492 88.2188 85.4148 87.6757 85.4148 86.4658C85.4782 85.0759 85.7787 83.705 86.3044 82.4067L90.1262 71.693C90.1636 71.558 90.2456 71.438 90.3602 71.3508C90.4748 71.2635 90.6159 71.2136 90.7626 71.2084H104.449C104.573 71.199 104.697 71.2299 104.801 71.2961C104.905 71.3622 104.982 71.4596 105.02 71.5727L110.943 86.4658C111.326 87.4415 110.943 87.9781 110.563 88.092C110.306 88.1538 110.115 88.2741 110.115 88.5148C110.115 88.8791 110.816 88.8791 112.027 88.9409C116.42 89.0612 121.07 89.0612 122.025 89.0612C122.726 89.0612 123.298 88.9409 123.298 88.5766C123.298 88.2741 123.045 88.2123 122.661 88.2123C121.797 88.2198 120.937 88.098 120.112 87.8513C118.778 87.487 116.93 86.521 114.638 81.1317C110.751 71.9304 100.753 46.9287 99.7988 44.6259C99.0358 42.7493 98.7724 42.4468 98.396 42.4468C98.0196 42.4468 97.7596 42.8111 96.9966 44.8081L82.5578 82.4067ZM91.4743 69.0292C91.2827 69.0292 91.1561 68.9089 91.2827 68.6064L96.8871 52.2627C97.2064 51.352 97.5246 51.352 97.8417 52.2627L103.891 68.6129C103.956 68.8569 103.956 69.0357 103.638 69.0357L91.4743 69.0292Z" fill="white"/>
<path fill-rule="evenodd" clip-rule="evenodd" d="M131.145 71.5134C131.145 77.3256 131.145 82.1099 130.827 84.6501C130.574 86.4065 130.256 87.7367 128.983 87.9807C128.355 88.1198 127.715 88.2004 127.07 88.2214C126.687 88.2214 126.561 88.4035 126.561 88.5856C126.561 88.9499 126.879 89.0702 127.587 89.0702C129.496 89.0702 133.51 88.8881 133.575 88.8881C133.893 88.8881 137.903 89.0702 141.406 89.0702C142.108 89.0702 142.433 88.8881 142.433 88.5856C142.433 88.4035 142.306 88.2214 141.923 88.2214C140.964 88.1878 140.007 88.1075 139.056 87.9807C137.147 87.7367 136.763 86.4065 136.572 84.6501C136.254 82.1099 136.254 77.3256 136.254 71.5134V70.0628C136.254 69.7603 136.384 69.5782 136.702 69.5782L144.534 69.6985C144.692 69.6944 144.849 69.7252 144.993 69.7884C145.136 69.8516 145.263 69.9455 145.362 70.0628C146.635 71.637 149.628 75.6928 152.304 79.0234C155.934 83.5768 158.162 86.5301 160.902 87.9189C162.558 88.7678 164.149 89.0702 167.714 89.0702H172.238C173.384 89.0702 173.764 88.9499 173.764 88.5856C173.764 88.4035 173.511 88.2214 173.192 88.2214C172.361 88.2253 171.53 88.1654 170.708 88.0425C169.117 87.7985 166.377 87.1318 162.938 83.6809C159.246 79.9308 154.915 74.5414 149.693 68.1861C155.424 63.161 157.399 58.6824 157.399 54.2005C157.399 50.0243 154.596 47.045 153.002 45.9685C149.628 43.6657 145.362 43.3047 141.348 43.3047C139.374 43.3047 134.536 43.4868 133.821 43.4868C133.503 43.4868 129.489 43.3047 126.636 43.3047C125.934 43.3047 125.609 43.425 125.609 43.786C125.609 44.03 125.863 44.1503 126.119 44.1503C126.845 44.1486 127.57 44.2096 128.285 44.3325C130.386 44.7553 130.896 45.7245 131.022 47.7833C131.149 49.7348 131.149 51.4163 131.149 60.8615V71.5134H131.145ZM136.24 46.3327C136.231 46.1753 136.276 46.0193 136.368 45.8881C136.46 45.7568 136.594 45.6572 136.75 45.6042C138.15 45.3323 139.578 45.2101 141.006 45.2399C147.822 45.2399 152.023 49.7934 152.023 57.3489C152.023 61.9479 150.367 65.2199 148.14 66.6705C146.676 67.6462 144.893 67.8218 143.35 67.8218C140.548 67.8218 137.619 67.3958 136.664 66.8461C136.526 66.7773 136.41 66.6728 136.331 66.5445C136.252 66.4163 136.212 66.2695 136.216 66.1208V46.3327H136.24Z" fill="white"/>
<path fill-rule="evenodd" clip-rule="evenodd" d="M183.239 71.5134C183.239 77.3256 183.239 82.1099 183.561 84.6501C183.749 86.4065 184.132 87.7367 186.045 87.9807C186.995 88.1076 187.951 88.188 188.909 88.2214C189.292 88.2214 189.419 88.4035 189.419 88.5856C189.419 88.8881 189.1 89.0702 188.392 89.0702C184.892 89.0702 180.865 88.8881 180.56 88.8881C180.256 88.8881 176.229 89.0702 174.32 89.0702C173.618 89.0702 173.293 88.9499 173.293 88.5856C173.293 88.4035 173.42 88.2214 173.803 88.2214C174.446 88.2005 175.086 88.1198 175.712 87.9807C176.985 87.7367 177.307 86.4065 177.56 84.6501C177.878 82.1099 177.878 77.3256 177.878 71.5134V60.8615C177.878 51.4294 177.878 49.7218 177.748 47.7833C177.621 45.7245 176.985 44.6968 175.586 44.3943C174.94 44.2385 174.277 44.1566 173.611 44.1503C173.358 44.1503 173.102 44.03 173.102 43.786C173.102 43.425 173.42 43.3047 174.128 43.3047C176.229 43.3047 180.239 43.4868 180.56 43.4868C180.882 43.4868 184.892 43.3047 186.801 43.3047C187.486 43.3047 187.828 43.425 187.828 43.786C187.828 44.03 187.574 44.1503 187.321 44.1503C186.785 44.1685 186.252 44.2295 185.727 44.3325C184.016 44.635 183.499 45.6627 183.369 47.7833C183.243 49.7348 183.243 51.4163 183.243 60.8615V71.5134H183.239Z" fill="white"/>
<path fill-rule="evenodd" clip-rule="evenodd" d="M199.349 82.4096C198.203 85.4409 196.93 87.7372 194.001 88.1014C193.491 88.1632 192.598 88.2218 192.153 88.2218C191.835 88.2218 191.579 88.3454 191.579 88.5861C191.579 88.9503 191.962 89.0707 192.79 89.0707C195.784 89.0707 199.291 88.8885 199.975 88.8885C200.659 88.8885 203.397 89.0707 204.94 89.0707C205.514 89.0707 205.898 88.9503 205.898 88.5861C205.898 88.3454 205.703 88.2218 205.258 88.2218H204.645C203.564 88.2218 202.226 87.6786 202.226 86.4687C202.29 85.0788 202.59 83.7079 203.116 82.4096L206.938 71.6959C206.975 71.5609 207.057 71.4409 207.172 71.3537C207.286 71.2664 207.427 71.2165 207.574 71.2113H221.26C221.385 71.2023 221.509 71.2333 221.614 71.2994C221.718 71.3654 221.796 71.4626 221.835 71.5756L227.754 86.4687C228.137 87.4444 227.754 87.9811 227.374 88.0949C227.118 88.1567 226.93 88.2771 226.93 88.5178C226.93 88.882 227.614 88.882 228.839 88.9438C233.232 89.0642 237.882 89.0642 238.836 89.0642C239.538 89.0642 240.109 88.9438 240.109 88.5796C240.109 88.2771 239.856 88.2153 239.473 88.2153C238.61 88.2229 237.751 88.101 236.927 87.8543C235.589 87.49 233.742 86.524 231.453 81.1346C227.569 71.9398 217.565 46.938 216.621 44.6352C215.854 42.7585 215.594 42.4561 215.218 42.4561C214.841 42.4561 214.581 42.8203 213.815 44.8174L199.349 82.4096ZM208.265 69.0321C208.074 69.0321 207.947 68.9118 208.074 68.6093L213.678 52.2655C213.997 51.3548 214.316 51.3548 214.633 52.2655L220.685 68.6158C220.747 68.8597 220.747 69.0386 220.429 69.0386L208.265 69.0321Z" fill="white"/>
<path fill-rule="evenodd" clip-rule="evenodd" d="M249.662 80.8386C249.785 85.8019 250.425 87.3761 252.143 87.8607C253.186 88.0971 254.255 88.2183 255.328 88.2218C255.646 88.2218 255.834 88.3454 255.834 88.5861C255.834 88.9503 255.455 89.0707 254.688 89.0707C251.061 89.0707 248.53 88.8885 247.941 88.8885C247.353 88.8885 244.691 89.0707 241.827 89.0707C241.187 89.0707 240.8 89.0089 240.8 88.5861C240.8 88.3454 240.992 88.2218 241.31 88.2218C242.194 88.2223 243.074 88.1007 243.921 87.8607C245.512 87.4347 245.83 85.6816 245.83 80.1719L245.895 45.4841C245.895 43.1228 246.087 42.4561 246.579 42.4561C247.072 42.4561 248.17 43.7863 248.807 44.4075C249.761 45.4353 259.249 55.183 269.059 65.1714C275.388 71.5755 282.331 78.9619 284.367 80.9752L283.682 50.223C283.617 46.2875 283.172 44.954 281.198 44.4726C280.17 44.2789 279.126 44.1766 278.078 44.1669C277.63 44.1669 277.568 43.988 277.568 43.744C277.568 43.3798 278.078 43.3212 278.841 43.3212C281.705 43.3212 284.763 43.5033 285.461 43.5033C286.159 43.5033 288.264 43.3212 290.874 43.3212C291.579 43.3212 292.024 43.3798 292.024 43.744C292.024 43.988 291.767 44.1669 291.323 44.1669C290.807 44.1603 290.294 44.2216 289.796 44.349C287.692 44.7718 287.439 46.1053 287.439 49.7384L287.295 85.2035C287.295 89.1975 287.169 89.5 286.724 89.5C286.214 89.5 285.448 88.8495 282.074 85.6263C281.39 85.0213 272.203 76.1225 265.452 69.2207C258.065 61.6522 250.87 54.0251 248.831 51.846L249.662 80.8451V80.8386Z" fill="white"/>
<path fill-rule="evenodd" clip-rule="evenodd" d="M299.716 66.1276C299.716 77.0235 306.977 89.9196 324.426 89.9196C339.772 89.9196 349.835 78.718 349.835 65.1584C349.835 51.0524 339.136 42.4561 324.806 42.4561C307.23 42.4561 299.716 56.3181 299.716 66.1276ZM305.766 64.4331C305.766 51.176 313.724 44.5149 324.361 44.5149C334.421 44.5149 343.72 52.3208 343.72 66.8529C343.72 84.4717 331.875 87.6168 326.144 87.6168C314.682 87.6168 305.766 78.5391 305.766 64.4331Z" fill="white"/>
<path fill-rule="evenodd" clip-rule="evenodd" d="M363.973 60.8615C363.973 51.4294 363.973 49.7218 363.846 47.7833C363.716 45.7245 363.206 44.7553 361.109 44.3325C360.394 44.2095 359.669 44.1485 358.943 44.1503C358.69 44.1503 358.433 44.03 358.433 43.786C358.433 43.425 358.755 43.3047 359.46 43.3047C362.327 43.3047 366.145 43.4868 366.645 43.4868C368.048 43.4868 371.739 43.3047 374.672 43.3047C382.63 43.3047 385.497 45.8481 386.513 46.7556C388.51 48.6774 389.65 51.2562 389.699 53.9565C389.699 62.5561 383.075 68.3682 374.032 68.3682C373.586 68.3786 373.14 68.3579 372.697 68.3064C372.376 68.3064 371.996 68.1861 371.996 67.8836C371.996 67.3958 372.376 67.3372 373.707 67.3372C379.886 67.3372 384.724 63.0407 384.724 57.4692C384.724 55.4722 384.532 51.4164 381.159 48.1476C377.785 44.8789 373.898 45.1196 372.434 45.1196C371.353 45.1196 370.268 45.2399 369.697 45.4838C369.314 45.6042 369.187 46.027 369.187 46.6352V71.5134C369.187 77.3256 369.187 82.1099 369.505 84.6501C369.697 86.4065 370.08 87.7367 371.989 87.9807C372.939 88.1076 373.895 88.188 374.853 88.2214C375.236 88.2214 375.363 88.4035 375.363 88.5856C375.363 88.8881 375.048 89.0702 374.336 89.0702C370.836 89.0702 366.809 88.8881 366.504 88.8881C366.313 88.8881 362.303 89.0702 360.39 89.0702C359.706 89.0702 359.364 88.9499 359.364 88.5856C359.364 88.4035 359.49 88.2214 359.87 88.2214C360.514 88.2004 361.155 88.1198 361.783 87.9807C363.056 87.7367 363.374 86.4065 363.63 84.6501C363.949 82.1099 363.949 77.3256 363.949 71.5134V60.8615H363.973Z" fill="white"/>
<path fill-rule="evenodd" clip-rule="evenodd" d="M396.322 66.1276C396.322 77.0235 403.583 89.9196 421.032 89.9196C436.378 89.9196 446.441 78.718 446.441 65.1584C446.441 51.0524 435.742 42.4561 421.412 42.4561C403.836 42.4561 396.322 56.3181 396.322 66.1276ZM402.372 64.4331C402.372 51.176 410.333 44.5149 420.967 44.5149C431.03 44.5149 440.326 52.3208 440.326 66.8529C440.326 84.4717 428.481 87.6168 422.75 87.6168C411.288 87.6168 402.372 78.5391 402.372 64.4331Z" fill="white"/>
<path fill-rule="evenodd" clip-rule="evenodd" d="M465.926 71.637C465.926 80.5357 466.182 84.4094 467.329 85.499C468.355 86.4748 470.004 86.8911 474.969 86.8911C478.346 86.8911 481.148 86.8293 482.678 85.0762C483.525 84.0076 484.092 82.7621 484.33 81.4432C484.395 80.9586 484.522 80.6561 484.905 80.6561C485.223 80.6561 485.288 80.9 485.288 81.5635C485.138 83.6021 484.817 85.626 484.33 87.6164C483.885 89.0084 483.694 89.2426 480.32 89.2426C471.15 89.2426 466.945 88.8783 463.254 88.8783C463 88.8783 461.916 88.9401 460.64 88.9401C459.367 88.9987 457.967 89.0605 457.013 89.0605C456.328 89.0605 455.986 88.9401 455.986 88.5759C455.986 88.3937 456.113 88.2116 456.496 88.2116C457.139 88.1904 457.779 88.1098 458.405 87.9709C459.678 87.727 459.996 86.3967 460.253 84.6404C460.571 82.1002 460.571 77.3158 460.571 71.5036V60.8615C460.571 51.4294 460.571 49.7218 460.445 47.7833C460.318 45.7245 459.805 44.7553 457.707 44.3325C456.994 44.2094 456.27 44.1485 455.545 44.1503C455.288 44.1503 455.032 44.03 455.032 43.786C455.032 43.425 455.353 43.3047 456.058 43.3047C458.922 43.3047 462.935 43.4868 463.243 43.4868C463.551 43.4868 468.211 43.3047 470.121 43.3047C470.805 43.3047 471.147 43.425 471.147 43.786C471.147 44.03 470.894 44.1503 470.637 44.1503C469.934 44.1644 469.234 44.2252 468.54 44.3325C466.692 44.635 466.182 45.6627 466.052 47.7833C465.926 49.7348 465.926 51.4163 465.926 60.8615V71.637Z" fill="white"/>
<path fill-rule="evenodd" clip-rule="evenodd" d="M502.356 71.5134C502.356 77.3256 502.356 82.1099 502.674 84.6501C502.866 86.4065 503.246 87.7367 505.158 87.9807C506.108 88.1076 507.064 88.188 508.022 88.2214C508.405 88.2214 508.532 88.4035 508.532 88.5856C508.532 88.8881 508.214 89.0702 507.506 89.0702C504.005 89.0702 499.978 88.8881 499.674 88.8881C499.369 88.8881 495.342 89.0702 493.429 89.0702C492.745 89.0702 492.403 88.9499 492.403 88.5856C492.403 88.4035 492.533 88.2214 492.913 88.2214C493.556 88.2005 494.195 88.1198 494.822 87.9807C496.098 87.7367 496.416 86.4065 496.67 84.6501C496.988 82.1099 496.988 77.3256 496.988 71.5134V60.8615C496.988 51.4294 496.988 49.7218 496.861 47.7833C496.735 45.7245 496.098 44.6968 494.695 44.3943C494.05 44.2383 493.387 44.1564 492.721 44.1503C492.468 44.1503 492.215 44.03 492.215 43.786C492.215 43.425 492.533 43.3047 493.241 43.3047C495.342 43.3047 499.356 43.4868 499.674 43.4868C499.992 43.4868 504.005 43.3047 505.915 43.3047C506.599 43.3047 506.941 43.425 506.941 43.786C506.941 44.03 506.684 44.1503 506.431 44.1503C505.895 44.1685 505.362 44.2295 504.837 44.3325C503.126 44.635 502.609 45.6627 502.483 47.7833C502.356 49.7348 502.356 51.4163 502.356 60.8615V71.5134Z" fill="white"/>
<path fill-rule="evenodd" clip-rule="evenodd" d="M521.234 88.1527C520.149 87.6388 520.074 87.3461 520.074 85.3621C520.074 81.6835 520.385 78.7466 520.457 77.5562C520.536 76.7463 520.693 76.3788 521.08 76.3788C521.542 76.3788 521.62 76.5999 521.62 77.1886C521.597 78.1001 521.674 79.0114 521.849 79.9077C523.013 85.3491 528.118 87.3884 533.298 87.3884C540.723 87.3884 544.353 82.3178 544.353 77.6115C544.353 72.5409 542.112 69.6006 535.457 64.3804L531.981 61.6614C523.769 55.2637 521.925 50.707 521.925 45.708C521.925 37.8435 528.114 32.4802 537.934 32.4802C540.351 32.4488 542.764 32.6945 545.119 33.212C546.005 33.4278 546.912 33.5511 547.826 33.5796C548.445 33.5796 548.602 33.7259 548.602 34.0967C548.602 34.4675 548.291 36.8873 548.291 41.8863C548.291 43.0637 548.137 43.5776 547.75 43.5776C547.285 43.5776 547.21 43.2101 547.131 42.6214C547.056 41.74 546.59 39.756 546.125 38.9461C545.66 38.1363 543.576 35.0432 536.459 35.0432C531.125 35.0432 526.948 38.2046 526.948 43.5711C526.948 47.7603 529.113 50.2615 536.384 55.9305L538.55 57.5567C547.672 64.3869 549.841 68.9404 549.841 74.8339C549.841 77.8456 548.606 83.4334 543.268 87.0339C539.942 89.239 535.768 90.1205 531.594 90.1205C527.957 90.1205 524.409 89.6066 521.23 88.1365L521.234 88.1527Z" fill="white"/>
</g>
</svg>
