<svg width="179" height="37" viewBox="0 0 179 37" fill="none" xmlns="http://www.w3.org/2000/svg">
<g clip-path="url(#clip0)">
<path d="M0.55214 0H178.104V2.95647H0.55214V0Z" fill="#0632AD"/>
<path fill-rule="evenodd" clip-rule="evenodd" d="M66.5943 29.6747C66.0485 29.353 65.4259 29.1844 64.7921 29.1868C62.7761 29.1868 61.437 30.6317 61.437 32.599C61.437 34.6496 62.9142 36.0112 64.7286 36.0112C65.3553 36.0112 66.1936 35.8489 66.6321 35.5866L66.7067 36.7992C66.0388 37.0737 65.2307 37.1115 64.7164 37.1115C61.9501 37.1115 60.1101 35.3332 60.1101 32.5612C60.1101 29.8748 62.0637 28.0865 64.7286 28.0865C65.403 28.0726 66.0728 28.2006 66.6945 28.4621L66.5943 29.6747V29.6747Z" fill="#0632AD"/>
<path fill-rule="evenodd" clip-rule="evenodd" d="M68.7605 32.599C68.7605 35.2487 70.3 37.1115 72.9661 37.1115C75.6321 37.1115 77.1716 35.2487 77.1716 32.599C77.1716 30.0115 75.6199 28.0865 72.9661 28.0865C70.3123 28.0865 68.7605 30.0115 68.7605 32.599ZM70.0874 32.599C70.0874 30.8206 71.0381 29.1746 72.9661 29.1868C74.8941 29.1746 75.8458 30.824 75.8458 32.599C75.8458 34.3362 74.982 36.0111 72.9661 36.0111C70.9501 36.0111 70.0874 34.3362 70.0874 32.599V32.599Z" fill="#0632AD"/>
<path fill-rule="evenodd" clip-rule="evenodd" d="M79.939 28.2365H81.1913V35.8611H84.8458V36.9614H79.939V28.2365Z" fill="#0632AD"/>
<path fill-rule="evenodd" clip-rule="evenodd" d="M87.2002 28.2365H88.4514V35.8611H92.107V36.9614H87.2002V28.2365Z" fill="#0632AD"/>
<path fill-rule="evenodd" clip-rule="evenodd" d="M94.536 28.2365H99.4306V29.3368H95.7872V31.8865H99.1044V32.9869H95.7872V35.8611H99.4306V36.9614H94.536V28.2365Z" fill="#0632AD"/>
<path fill-rule="evenodd" clip-rule="evenodd" d="M109.069 29.787C108.456 29.3869 107.793 29.1868 106.666 29.1868C104.65 29.1868 103.311 30.6495 103.311 32.599C103.311 34.6496 104.787 36.0111 106.603 36.0111C107.075 36.0267 107.547 35.9762 108.005 35.8611V33.2114H106.165V32.1866H109.256V36.7236C108.781 36.8858 107.955 37.1115 106.585 37.1115C103.818 37.1115 101.979 35.3331 101.979 32.5612C101.979 29.8748 103.931 28.0865 106.597 28.0865C107.874 28.0865 108.438 28.2743 109.163 28.5244L109.064 29.787H109.069Z" fill="#0632AD"/>
<path fill-rule="evenodd" clip-rule="evenodd" d="M112.537 28.2365H117.431V29.3368H113.788V31.8865H117.106V32.9869H113.788V35.8611H117.431V36.9614H112.537V28.2365Z" fill="#0632AD"/>
<path d="M1.07308 32.2311H55.7498V33.2725H1.07308V32.2311Z" fill="#0632AD"/>
<path d="M122.97 32.0988H179V33.1403H122.97V32.0988Z" fill="#0632AD"/>
<path fill-rule="evenodd" clip-rule="evenodd" d="M21.9384 22.3491C22.0385 23.2527 22.2155 24.6599 23.2964 25.0111C23.8274 25.1677 24.3792 25.2426 24.9328 25.2334C25.0586 25.2334 25.1332 25.2578 25.1332 25.359C25.1332 25.509 24.9105 25.5813 24.6055 25.5813C24.0489 25.5813 21.335 25.5057 20.4033 25.4312C19.8244 25.3801 19.6998 25.3056 19.6998 25.18C19.6998 25.0789 19.7499 25.0289 19.8757 25.0033C20.0014 24.9777 20.0259 24.552 19.9758 24.0997L18.768 11.1446H18.6935L12.5287 24.2075C12.0011 25.3134 11.9254 25.5412 11.6983 25.5412C11.5224 25.5412 11.3966 25.29 10.9191 24.3853C10.2645 23.1527 8.10054 18.808 7.97586 18.5557C7.75323 18.1034 4.93134 12.0748 4.65416 11.3957H4.55398L3.55213 23.0516C3.52652 23.4539 3.52652 23.9063 3.52652 24.3331C3.52937 24.5181 3.59603 24.6966 3.71525 24.8383C3.83448 24.98 3.99899 25.0764 4.18107 25.1111C4.4946 25.1858 4.81505 25.2279 5.13728 25.2367C5.23747 25.2367 5.33765 25.2867 5.33765 25.3623C5.33765 25.5379 5.18737 25.5846 4.88459 25.5846C3.95398 25.5846 2.74619 25.509 2.54693 25.509C2.3243 25.509 1.11317 25.5846 0.43191 25.5846C0.175881 25.5879 0 25.539 0 25.3656C0 25.29 0.125788 25.24 0.251576 25.24C0.503854 25.2435 0.755665 25.2173 1.00185 25.1622C1.83228 25.0111 1.90686 24.0319 2.00371 23.0771L3.82374 6.69873C3.87495 6.42198 3.94953 6.24748 4.10092 6.24748C4.25231 6.24748 4.3525 6.34751 4.47828 6.62315L12.177 22.4236L19.574 6.64872C19.6742 6.42642 19.7744 6.24748 19.9502 6.24748C20.1261 6.24748 20.2029 6.44755 20.253 6.92547L21.9384 22.3491V22.3491Z" fill="#0632AD"/>
<path fill-rule="evenodd" clip-rule="evenodd" d="M26.6237 23.2994C26.2508 24.3353 25.8367 25.12 24.8838 25.2445C24.7179 25.2656 24.4274 25.2856 24.2827 25.2856C24.1792 25.2856 24.0957 25.3278 24.0957 25.4101C24.0957 25.5346 24.2204 25.5757 24.4897 25.5757C25.4638 25.5757 26.6048 25.5134 26.8274 25.5134C27.05 25.5134 27.9461 25.5757 28.4437 25.5757C28.6296 25.5757 28.7543 25.5346 28.7543 25.4101C28.7543 25.3278 28.692 25.2856 28.5473 25.2856H28.3402C27.9873 25.2856 27.5532 25.1 27.5532 24.6865C27.5738 24.2116 27.6716 23.7431 27.8426 23.2994L29.086 19.6383C29.0982 19.5922 29.1249 19.5512 29.1621 19.5213C29.1994 19.4915 29.2453 19.4745 29.2931 19.4727H33.7458C33.7863 19.4695 33.8267 19.48 33.8604 19.5026C33.8941 19.5252 33.9192 19.5585 33.9317 19.5972L35.8586 24.6865C35.9832 25.02 35.8586 25.2033 35.735 25.2422C35.6515 25.2634 35.5892 25.3045 35.5892 25.3867C35.5892 25.5112 35.8174 25.5112 36.2114 25.5323C37.6407 25.5735 39.1535 25.5735 39.4641 25.5735C39.6923 25.5735 39.8782 25.5323 39.8782 25.4079C39.8782 25.3045 39.7958 25.2834 39.6712 25.2834C39.39 25.2859 39.1101 25.2443 38.8419 25.16C38.4077 25.0355 37.8066 24.7054 37.0608 22.8637C35.7962 19.7194 32.5435 11.1757 32.233 10.3888C31.9847 9.74746 31.899 9.64409 31.7766 9.64409C31.6541 9.64409 31.5695 9.76857 31.3213 10.451L26.6237 23.2994ZM29.5246 18.728C29.4623 18.728 29.4211 18.6869 29.4623 18.5835L31.2856 12.9985C31.3895 12.6873 31.4931 12.6873 31.5962 12.9985L33.5643 18.5857C33.5855 18.6691 33.5855 18.7302 33.4819 18.7302L29.5246 18.728Z" fill="#0632AD"/>
<path fill-rule="evenodd" clip-rule="evenodd" d="M42.4318 19.576C42.4318 21.5622 42.4318 23.1972 42.3283 24.0652C42.2459 24.6654 42.1424 25.12 41.7283 25.2033C41.524 25.2509 41.3156 25.2784 41.106 25.2856C40.9814 25.2856 40.9402 25.3478 40.9402 25.4101C40.9402 25.5346 41.0437 25.5757 41.2741 25.5757C41.8953 25.5757 43.201 25.5134 43.2222 25.5134C43.3257 25.5134 44.6303 25.5757 45.7702 25.5757C45.9984 25.5757 46.1042 25.5134 46.1042 25.4101C46.1042 25.3478 46.063 25.2856 45.9383 25.2856C45.6262 25.2741 45.3148 25.2467 45.0055 25.2033C44.3843 25.12 44.2597 24.6654 44.1973 24.0652C44.0938 23.1972 44.0938 21.5622 44.0938 19.576V19.0803C44.0938 18.977 44.1361 18.9147 44.2396 18.9147L46.7877 18.9559C46.8391 18.9545 46.8902 18.965 46.937 18.9866C46.9837 19.0082 47.0248 19.0403 47.057 19.0803C47.4711 19.6183 48.4452 21.0043 49.3157 22.1424C50.4967 23.6984 51.2214 24.7076 52.1131 25.1822C52.6518 25.4723 53.1695 25.5757 54.3294 25.5757H55.801C56.1739 25.5757 56.2975 25.5346 56.2975 25.4101C56.2975 25.3478 56.2151 25.2856 56.1116 25.2856C55.841 25.2869 55.5707 25.2665 55.3034 25.2245C54.7858 25.1411 53.8941 24.9133 52.7754 23.734C51.5743 22.4525 50.165 20.6108 48.4663 18.439C50.3309 16.7218 50.9732 15.1914 50.9732 13.6598C50.9732 12.2327 50.0615 11.2146 49.5428 10.8467C48.4452 10.0598 47.057 9.9364 45.7513 9.9364C45.109 9.9364 43.535 9.99864 43.3023 9.99864C43.1988 9.99864 41.893 9.9364 40.9647 9.9364C40.7365 9.9364 40.6307 9.97752 40.6307 10.1009C40.6307 10.1843 40.7131 10.2254 40.7966 10.2254C41.0329 10.2248 41.2687 10.2456 41.5012 10.2876C42.1847 10.4321 42.3506 10.7633 42.3918 11.4669C42.4329 12.1337 42.4329 12.7084 42.4329 15.936V19.576H42.4318ZM44.0893 10.9712C44.0864 10.9174 44.101 10.8641 44.1309 10.8192C44.1608 10.7743 44.2044 10.7403 44.2552 10.7222C44.7107 10.6293 45.1752 10.5875 45.64 10.5977C47.8574 10.5977 49.2244 12.1538 49.2244 14.7357C49.2244 16.3073 48.6856 17.4254 47.9609 17.9211C47.4845 18.2545 46.9045 18.3145 46.4025 18.3145C45.4908 18.3145 44.5379 18.1689 44.2274 17.9811C44.1822 17.9576 44.1446 17.9219 44.1189 17.8781C44.0931 17.8342 44.0801 17.7841 44.0815 17.7333V10.9712H44.0893Z" fill="#0632AD"/>
<path fill-rule="evenodd" clip-rule="evenodd" d="M59.3798 19.576C59.3798 21.5622 59.3798 23.1972 59.4845 24.0652C59.5457 24.6654 59.6704 25.12 60.2926 25.2033C60.6016 25.2467 60.9126 25.2742 61.2244 25.2856C61.349 25.2856 61.3902 25.3478 61.3902 25.4101C61.3902 25.5134 61.2867 25.5757 61.0563 25.5757C59.9175 25.5757 58.6073 25.5134 58.5082 25.5134C58.4092 25.5134 57.099 25.5757 56.4778 25.5757C56.2496 25.5757 56.1438 25.5346 56.1438 25.4101C56.1438 25.3478 56.185 25.2856 56.3097 25.2856C56.519 25.2785 56.727 25.2509 56.9309 25.2033C57.345 25.12 57.4496 24.6654 57.532 24.0652C57.6355 23.1972 57.6355 21.5622 57.6355 19.576V15.936C57.6355 12.7128 57.6355 12.1293 57.5932 11.4669C57.552 10.7633 57.345 10.4121 56.8897 10.3087C56.6797 10.2555 56.464 10.2275 56.2474 10.2254C56.165 10.2254 56.0815 10.1843 56.0815 10.1009C56.0815 9.97752 56.185 9.9364 56.4155 9.9364C57.099 9.9364 58.4036 9.99864 58.5082 9.99864C58.6129 9.99864 59.9175 9.9364 60.5387 9.9364C60.7613 9.9364 60.8726 9.97752 60.8726 10.1009C60.8726 10.1843 60.7902 10.2254 60.7079 10.2254C60.5335 10.2316 60.36 10.2524 60.1891 10.2876C59.6325 10.391 59.4644 10.7422 59.4221 11.4669C59.381 12.1337 59.381 12.7084 59.381 15.936V19.576H59.3798Z" fill="#0632AD"/>
<path fill-rule="evenodd" clip-rule="evenodd" d="M64.6218 23.2994C64.2488 24.3353 63.8347 25.12 62.8819 25.2445C62.716 25.2656 62.4255 25.2856 62.2808 25.2856C62.1772 25.2856 62.0937 25.3278 62.0937 25.4101C62.0937 25.5346 62.2184 25.5757 62.4878 25.5757C63.4618 25.5757 64.6028 25.5134 64.8255 25.5134C65.0481 25.5134 65.9386 25.5757 66.4407 25.5757C66.6277 25.5757 66.7524 25.5346 66.7524 25.4101C66.7524 25.3278 66.6889 25.2856 66.5442 25.2856H66.3449C65.9932 25.2856 65.5579 25.1 65.5579 24.6865C65.5786 24.2116 65.6763 23.7431 65.8474 23.2994L67.0908 19.6383C67.1029 19.5922 67.1296 19.5512 67.1669 19.5213C67.2042 19.4915 67.2501 19.4745 67.2978 19.4727H71.7505C71.7911 19.4696 71.8316 19.4802 71.8655 19.5028C71.8994 19.5253 71.9247 19.5586 71.9375 19.5972L73.8633 24.6865C73.988 25.02 73.8633 25.2033 73.7397 25.2422C73.6562 25.2634 73.595 25.3045 73.595 25.3867C73.595 25.5112 73.8177 25.5112 74.2162 25.5323C75.6455 25.5735 77.1583 25.5735 77.4689 25.5735C77.6971 25.5735 77.883 25.5323 77.883 25.4079C77.883 25.3045 77.8006 25.2834 77.6759 25.2834C77.3951 25.286 77.1156 25.2443 76.8477 25.16C76.4125 25.0355 75.8113 24.7054 75.0666 22.8637C73.8032 19.7216 70.5483 11.1779 70.241 10.391C69.9917 9.74968 69.9071 9.64632 69.7846 9.64632C69.6622 9.64632 69.5776 9.7708 69.3282 10.4532L64.6218 23.2994ZM67.5227 18.728C67.4603 18.728 67.4192 18.6869 67.4603 18.5835L69.2837 12.9985C69.3876 12.6873 69.4911 12.6873 69.5943 12.9985L71.5635 18.5857C71.5835 18.6691 71.5835 18.7302 71.48 18.7302L67.5227 18.728Z" fill="#0632AD"/>
<path fill-rule="evenodd" clip-rule="evenodd" d="M80.9909 22.7626C81.031 24.4587 81.2392 24.9966 81.798 25.1622C82.1375 25.243 82.4853 25.2844 82.8343 25.2856C82.9379 25.2856 82.9991 25.3278 82.9991 25.4101C82.9991 25.5346 82.8755 25.5757 82.6262 25.5757C81.4462 25.5757 80.6225 25.5134 80.431 25.5134C80.2395 25.5134 79.3735 25.5757 78.4418 25.5757C78.2336 25.5757 78.1078 25.5546 78.1078 25.4101C78.1078 25.3278 78.1701 25.2856 78.2737 25.2856C78.5613 25.2858 78.8474 25.2442 79.123 25.1622C79.6406 25.0166 79.7442 24.4175 79.7442 22.5347L79.7653 10.6811C79.7653 9.87416 79.8277 9.64632 79.988 9.64632C80.1483 9.64632 80.5056 10.1009 80.7126 10.3132C81.0232 10.6644 84.11 13.9954 87.3015 17.4087C89.3609 19.5972 91.6195 22.1213 92.2818 22.8093L92.0592 12.3005C92.038 10.9556 91.8933 10.4999 91.251 10.3354C90.9166 10.2692 90.5767 10.2343 90.2358 10.2309C90.09 10.2309 90.0699 10.1698 90.0699 10.0865C90.0699 9.96197 90.2358 9.94196 90.484 9.94196C91.4158 9.94196 92.4109 10.0042 92.638 10.0042C92.8651 10.0042 93.5497 9.94196 94.3991 9.94196C94.6284 9.94196 94.7731 9.96197 94.7731 10.0865C94.7731 10.1698 94.6896 10.2309 94.5449 10.2309C94.3773 10.2287 94.2102 10.2497 94.0484 10.2932C93.3638 10.4377 93.2814 10.8934 93.2814 12.1349L93.2347 24.2542C93.2347 25.619 93.1935 25.7224 93.0488 25.7224C92.8829 25.7224 92.6336 25.5001 91.536 24.3986C91.3134 24.1919 88.3245 21.151 86.1282 18.7925C83.7249 16.2061 81.3839 13.5998 80.7204 12.8551L80.9909 22.7648V22.7626Z" fill="#0632AD"/>
<path fill-rule="evenodd" clip-rule="evenodd" d="M97.2755 17.7355C97.2755 21.4588 99.6376 25.8658 105.315 25.8658C110.307 25.8658 113.581 22.0379 113.581 17.4043C113.581 12.5839 110.1 9.64632 105.438 9.64632C99.72 9.64632 97.2755 14.3833 97.2755 17.7355ZM99.2436 17.1564C99.2436 12.6261 101.833 10.3499 105.294 10.3499C108.566 10.3499 111.592 13.0174 111.592 17.9833C111.592 24.0041 107.738 25.0789 105.874 25.0789C102.144 25.0789 99.2436 21.9768 99.2436 17.1564Z" fill="#0632AD"/>
<path fill-rule="evenodd" clip-rule="evenodd" d="M118.181 15.936C118.181 12.7128 118.181 12.1293 118.14 11.4669C118.097 10.7633 117.931 10.4321 117.249 10.2876C117.017 10.2456 116.781 10.2248 116.544 10.2254C116.462 10.2254 116.379 10.1843 116.379 10.1009C116.379 9.97752 116.483 9.9364 116.713 9.9364C117.645 9.9364 118.888 9.99864 119.05 9.99864C119.507 9.99864 120.708 9.9364 121.662 9.9364C124.251 9.9364 125.184 10.8056 125.514 11.1157C126.164 11.7724 126.535 12.6536 126.551 13.5764C126.551 16.5151 124.396 18.5013 121.454 18.5013C121.309 18.5048 121.163 18.4977 121.019 18.4802C120.915 18.4802 120.791 18.439 120.791 18.3357C120.791 18.1689 120.915 18.1489 121.348 18.1489C123.358 18.1489 124.932 16.6807 124.932 14.7768C124.932 14.0944 124.87 12.7084 123.772 11.5914C122.675 10.4743 121.41 10.5566 120.934 10.5566C120.582 10.5566 120.229 10.5977 120.043 10.6811C119.918 10.7222 119.877 10.8667 119.877 11.0745V19.576C119.877 21.5622 119.877 23.1972 119.981 24.0652C120.043 24.6654 120.168 25.12 120.789 25.2033C121.098 25.2467 121.409 25.2742 121.721 25.2856C121.845 25.2856 121.887 25.3478 121.887 25.4101C121.887 25.5134 121.784 25.5757 121.553 25.5757C120.414 25.5757 119.104 25.5134 119.005 25.5134C118.942 25.5134 117.638 25.5757 117.015 25.5757C116.793 25.5757 116.681 25.5346 116.681 25.4101C116.681 25.3478 116.723 25.2856 116.846 25.2856C117.056 25.2784 117.264 25.2509 117.468 25.2033C117.882 25.12 117.986 24.6654 118.07 24.0652C118.173 23.1972 118.173 21.5622 118.173 19.576V15.936H118.181Z" fill="#0632AD"/>
<path fill-rule="evenodd" clip-rule="evenodd" d="M128.706 17.7355C128.706 21.4588 131.068 25.8658 136.745 25.8658C141.738 25.8658 145.012 22.0379 145.012 17.4043C145.012 12.5839 141.531 9.64632 136.869 9.64632C131.15 9.64632 128.706 14.3833 128.706 17.7355ZM130.674 17.1564C130.674 12.6261 133.264 10.3499 136.724 10.3499C139.998 10.3499 143.022 13.0174 143.022 17.9833C143.022 24.0041 139.169 25.0789 137.304 25.0789C133.575 25.0789 130.674 21.9768 130.674 17.1564Z" fill="#0632AD"/>
<path fill-rule="evenodd" clip-rule="evenodd" d="M151.351 19.6183C151.351 22.6592 151.435 23.983 151.807 24.3553C152.141 24.6887 152.678 24.831 154.293 24.831C155.392 24.831 156.304 24.8099 156.801 24.2108C157.077 23.8457 157.261 23.42 157.339 22.9693C157.36 22.8037 157.401 22.7003 157.526 22.7003C157.629 22.7003 157.651 22.7837 157.651 23.0104C157.602 23.7071 157.497 24.3987 157.339 25.0789C157.194 25.5546 157.132 25.6346 156.034 25.6346C153.051 25.6346 151.683 25.5101 150.482 25.5101C150.399 25.5101 150.046 25.5312 149.631 25.5312C149.217 25.5512 148.762 25.5723 148.451 25.5723C148.229 25.5723 148.117 25.5312 148.117 25.4067C148.117 25.3445 148.158 25.2823 148.283 25.2823C148.492 25.275 148.7 25.2475 148.904 25.2C149.318 25.1166 149.422 24.6621 149.505 24.0619C149.609 23.1938 149.609 21.5589 149.609 19.5727V15.936C149.609 12.7128 149.609 12.1293 149.568 11.4669C149.527 10.7633 149.36 10.4321 148.677 10.2876C148.445 10.2456 148.21 10.2247 147.974 10.2254C147.89 10.2254 147.807 10.1843 147.807 10.1009C147.807 9.97752 147.911 9.9364 148.141 9.9364C149.072 9.9364 150.378 9.99864 150.478 9.99864C150.579 9.99864 152.095 9.9364 152.716 9.9364C152.938 9.9364 153.05 9.97752 153.05 10.1009C153.05 10.1843 152.967 10.2254 152.884 10.2254C152.655 10.2302 152.427 10.251 152.202 10.2876C151.6 10.391 151.435 10.7422 151.392 11.4669C151.351 12.1337 151.351 12.7084 151.351 15.936V19.6183V19.6183Z" fill="#0632AD"/>
<path fill-rule="evenodd" clip-rule="evenodd" d="M163.203 19.576C163.203 21.5622 163.203 23.1972 163.307 24.0652C163.369 24.6654 163.492 25.12 164.115 25.2033C164.424 25.2467 164.735 25.2742 165.046 25.2856C165.171 25.2856 165.212 25.3478 165.212 25.4101C165.212 25.5134 165.109 25.5757 164.878 25.5757C163.74 25.5757 162.429 25.5134 162.33 25.5134C162.231 25.5134 160.921 25.5757 160.299 25.5757C160.076 25.5757 159.965 25.5346 159.965 25.4101C159.965 25.3478 160.007 25.2856 160.131 25.2856C160.34 25.2785 160.548 25.2509 160.752 25.2033C161.167 25.12 161.271 24.6654 161.353 24.0652C161.456 23.1972 161.456 21.5622 161.456 19.576V15.936C161.456 12.7128 161.456 12.1293 161.415 11.4669C161.374 10.7633 161.167 10.4121 160.711 10.3087C160.501 10.2554 160.285 10.2274 160.068 10.2254C159.986 10.2254 159.904 10.1843 159.904 10.1009C159.904 9.97752 160.007 9.9364 160.238 9.9364C160.921 9.9364 162.227 9.99864 162.33 9.99864C162.434 9.99864 163.74 9.9364 164.361 9.9364C164.583 9.9364 164.695 9.97752 164.695 10.1009C164.695 10.1843 164.611 10.2254 164.529 10.2254C164.354 10.2316 164.181 10.2524 164.01 10.2876C163.453 10.391 163.285 10.7422 163.244 11.4669C163.203 12.1337 163.203 12.7084 163.203 15.936V19.576Z" fill="#0632AD"/>
<path fill-rule="evenodd" clip-rule="evenodd" d="M169.344 25.2622C168.991 25.0866 168.967 24.9866 168.967 24.3086C168.967 23.0516 169.068 22.0479 169.092 21.6411C169.117 21.3644 169.168 21.2388 169.294 21.2388C169.445 21.2388 169.47 21.3144 169.47 21.5155C169.463 21.827 169.488 22.1384 169.545 22.4447C169.923 24.3042 171.584 25.001 173.269 25.001C175.685 25.001 176.866 23.2683 176.866 21.66C176.866 19.9273 176.137 18.9225 173.972 17.1386L172.841 16.2094C170.169 14.0232 169.569 12.4661 169.569 10.7578C169.569 8.07027 171.583 6.23749 174.778 6.23749C175.564 6.22674 176.349 6.31071 177.115 6.48756C177.403 6.56132 177.699 6.60343 177.996 6.61316C178.197 6.61316 178.249 6.66317 178.249 6.78988C178.249 6.91658 178.147 7.7435 178.147 9.45181C178.147 9.85416 178.097 10.0298 177.971 10.0298C177.82 10.0298 177.796 9.90417 177.77 9.703C177.745 9.40179 177.594 8.72381 177.443 8.44706C177.291 8.17031 176.613 7.11331 174.298 7.11331C172.563 7.11331 171.203 8.19364 171.203 10.0275C171.203 11.4591 171.908 12.3138 174.273 14.2511L174.978 14.8068C177.946 17.1408 178.652 18.6969 178.652 20.7108C178.652 21.74 178.25 23.6495 176.513 24.8799C175.431 25.6335 174.073 25.9347 172.715 25.9347C171.532 25.9347 170.377 25.7591 169.343 25.2567L169.344 25.2622Z" fill="#0632AD"/>
</g>
<defs>
<clipPath id="clip0">
<rect width="179" height="37" fill="white"/>
</clipPath>
</defs>
</svg>
