<svg width="498" height="125" viewBox="0 0 498 125" fill="none" xmlns="http://www.w3.org/2000/svg">
<path d="M437.392 115.9C410.389 115.9 390.007 97.0221 396.136 69.2696C401.808 43.5679 426.657 28.0278 452.248 28.1195C465.208 28.1248 479.43 32.3179 487.66 42.852C495.864 53.3519 495.552 67.8745 491.625 79.9951C484.223 102.828 460.744 115.827 437.392 115.9ZM435.661 54.2802C429.574 60.8282 427.357 71.0633 427.357 79.7276C427.399 82.9321 427.76 86.2258 429.239 89.1261C430.519 91.641 435.948 93.8857 434.061 96.2537C434.465 93.078 438.432 95.4775 440.771 95.4775C444.16 95.488 447.494 94.5597 450.31 92.6637C457.859 87.5789 460.57 77.3203 461.576 68.8527C462.471 61.3317 461.747 51.3537 452.884 49.0355C446.723 47.386 439.91 49.6622 435.661 54.2802Z" fill="#E01F22"/>
<path d="M330.614 30.9043C341.172 30.9043 351.731 30.9043 362.289 30.9043C361.668 34.2924 361.048 37.6831 360.412 41.0686C370.384 31.0171 385.628 27.9672 399.264 29.6665C397.395 38.9602 395.521 48.2512 393.652 57.5448C393.694 57.3377 375.663 58.363 373.57 59.0789C362.603 62.8446 355.658 69.3061 352.939 80.6872C352.018 84.5814 348.025 113.493 345.438 113.495C335.236 113.511 325.034 113.524 314.827 113.54C320.09 85.9922 325.351 58.4495 330.614 30.9043Z" fill="#E01F22"/>
<path d="M265.203 107.407C247.341 93.4241 258.023 68.7372 262.122 50.5747C258.25 50.5747 254.378 50.5747 250.508 50.5747C251.715 44.0713 252.921 37.5678 254.127 31.0644C254.233 30.5006 262.547 30.9044 263.495 30.9044C267.061 30.9044 266.28 27.2357 266.892 24.0338C267.101 22.9272 267.399 17.373 268.579 17.0636C271.957 16.1694 275.339 15.2725 278.717 14.3783C285.725 12.5217 292.734 10.6677 299.739 8.81104C298.285 16.1746 296.828 23.5382 295.373 30.9018C302.223 30.9018 309.07 30.9018 315.917 30.9018C315.363 33.9201 314.803 36.9411 314.249 39.962C313.913 41.7767 313.737 49.3816 312.293 50.5721C310.255 52.2557 292.741 48.6394 292.274 50.6901C288.985 65.1078 277.173 96.0202 303.696 92.5928C302.505 99.3768 301.317 106.163 300.122 112.948C299.734 115.179 288.75 114.82 287.029 114.82C279.097 114.736 271.48 112.318 265.203 107.407Z" fill="#E01F22"/>
<path d="M184.179 115.101C167.65 112.73 154.782 102.568 151.675 85.7118C148.51 68.5511 156.107 47.9367 170.376 37.6256C184.224 27.6213 206.187 24.8599 221.919 31.7961C230.448 35.5565 237.585 42.2855 240.998 50.997C242.262 54.2225 245.966 76.6856 240.687 76.6856C223.495 76.6856 206.306 76.5545 189.117 76.4863C186.161 76.4732 183.202 76.4627 180.246 76.4496C176.622 76.4365 184.759 89.4486 185.974 90.5369C198.955 102.157 221.077 95.2913 235.223 89.5457C232.76 96.3323 230.297 103.119 227.835 109.906C226.705 113.013 213.631 114.442 210.862 114.862C202.075 116.178 192.99 116.359 184.179 115.101ZM215.642 60.3378C216.865 51.8466 211.847 45.5267 203.147 45.4376C193.818 45.4376 186.557 51.7365 183.741 60.3378C194.375 60.3378 205.008 60.3378 215.642 60.3378Z" fill="#E01F22"/>
<path d="M51.8272 113.572C54.9973 99.3273 58.1674 85.0853 61.3402 70.8406C62.1928 67.0015 65.1491 60.0759 63.4202 56.0846C60.8703 50.2001 52.6639 52.3216 49.4463 56.1502C47.6804 58.2559 47.3082 60.8547 46.7275 63.4168C43.1535 79.2506 39.5743 95.087 35.9977 110.921C34.9471 115.575 30.2275 113.572 25.7799 113.572C18.4656 113.572 11.1487 113.572 3.83447 113.572C7.712 95.6377 11.0352 77.4883 15.5331 59.7009C21.224 37.201 38.9487 24.8681 62.264 27.7868C67.1525 28.3978 71.8879 29.9581 76.0267 32.6381C77.5656 33.6346 81.6622 38.5568 83.0454 38.7167C91.4709 32.1897 102.512 27.5534 113.305 27.5534C121.557 27.5534 130.666 28.8619 136.967 34.6652C144.64 41.7561 144.766 52.9876 142.737 62.4753C140.749 71.7637 138.759 81.0495 136.771 90.3379C136.33 92.4043 132.952 113.572 131.392 113.572C121.219 113.572 111.046 113.572 100.87 113.572C100.572 113.572 100.276 113.572 99.9782 113.572C102.887 99.524 105.796 85.4734 108.702 71.4228C109.51 67.5312 112.426 60.4168 110.671 56.3888C108.116 50.5252 99.9545 52.5917 96.7131 56.4413C94.8839 58.6126 94.5803 61.1746 94.0524 63.8153C90.9219 79.4866 87.7887 95.1656 84.6582 110.839C83.6973 115.654 78.83 113.575 74.2741 113.575C66.7909 113.572 59.3103 113.572 51.8272 113.572Z" fill="#E01F22"/>
</svg>
