<svg width="618" height="177" viewBox="0 0 618 177" fill="none" xmlns="http://www.w3.org/2000/svg">
<path d="M132.746 33.5905C132.623 32.7228 131.881 32.227 131.263 32.227C130.645 32.227 118.409 31.9791 118.409 31.9791C118.409 31.9791 108.15 22.0632 107.161 20.9476C106.172 19.956 104.195 20.2039 103.453 20.4518C103.453 20.4518 101.476 21.0716 98.262 22.0632C97.7676 20.3279 96.9024 18.2207 95.79 15.9896C92.2056 9.04845 86.7672 5.32996 80.34 5.32996C79.8456 5.32996 79.4748 5.32996 78.9804 5.45391C78.7332 5.20601 78.6096 4.95811 78.3624 4.83416C75.5196 1.85937 71.9352 0.371978 67.6092 0.495928C59.328 0.743827 51.0468 6.81736 44.2488 17.477C39.552 25.0379 35.9676 34.4581 34.8552 41.7711C25.338 44.7459 18.6636 46.8531 18.4164 46.8531C13.596 48.3405 13.4724 48.4644 12.8544 53.0505C12.6072 56.5211 0 154.317 0 154.317L105.802 172.662L151.657 161.259C151.534 161.259 132.87 34.4581 132.746 33.5905ZM92.9472 23.7985C90.4752 24.5421 87.756 25.4098 84.7896 26.4014C84.7896 22.1871 84.1716 16.2375 82.3176 11.2795C88.6212 12.2711 91.7112 19.4602 92.9472 23.7985ZM79.2276 28.0127C73.6656 29.748 67.6092 31.6073 61.5528 33.4665C63.2832 26.8972 66.4968 20.4518 70.452 16.1136C71.9352 14.5022 74.0364 12.7669 76.3848 11.7753C78.8568 16.6094 79.3512 23.4266 79.2276 28.0127ZM67.8564 6.07366C69.834 6.07366 71.4408 6.44551 72.8004 7.4371C70.5756 8.55265 68.3508 10.2879 66.3732 12.519C61.0584 18.2207 56.9796 27.0211 55.3728 35.5737C50.3052 37.185 45.3612 38.6724 40.9116 40.0358C43.878 26.5253 55.1256 6.44551 67.8564 6.07366Z" fill="#95BF47"/>
<path d="M131.263 32.2268C130.645 32.2268 118.409 31.9789 118.409 31.9789C118.409 31.9789 108.15 22.0629 107.161 20.9474C106.791 20.5755 106.296 20.3276 105.802 20.3276V172.662L151.657 161.258C151.657 161.258 132.994 34.4579 132.87 33.5902C132.623 32.7226 131.881 32.2268 131.263 32.2268Z" fill="#5E8E3E"/>
<path d="M80.3401 55.9012L75.0253 75.8571C75.0253 75.8571 69.0925 73.1302 62.0473 73.626C51.6649 74.2458 51.6649 80.8151 51.6649 82.4264C52.2829 91.3508 75.6433 93.334 77.0029 114.281C77.9917 130.767 68.3509 142.046 54.2605 142.914C37.4509 143.781 28.1809 133.866 28.1809 133.866L31.7653 118.62C31.7653 118.62 41.1589 125.685 48.5749 125.189C53.3953 124.941 55.2493 120.851 55.0021 118.124C54.2605 106.473 35.2261 107.216 33.9901 88.0042C33.0013 71.8907 43.5073 55.6533 66.7441 54.1659C75.7669 53.5462 80.3401 55.9012 80.3401 55.9012Z" fill="white"/>
<path d="M213.704 98.416C208.39 95.5652 205.67 93.0862 205.67 89.7396C205.67 85.5253 209.502 82.7984 215.435 82.7984C222.356 82.7984 228.536 85.6492 228.536 85.6492L233.357 70.7753C233.357 70.7753 228.907 67.3047 215.806 67.3047C197.513 67.3047 184.782 77.8404 184.782 92.5904C184.782 101.019 190.715 107.34 198.625 111.927C205.052 115.521 207.277 118.124 207.277 121.966C207.277 125.933 204.064 129.156 198.131 129.156C189.355 129.156 180.95 124.569 180.95 124.569L175.759 139.443C175.759 139.443 183.422 144.649 196.4 144.649C215.188 144.649 228.784 135.353 228.784 118.62C228.66 109.571 221.862 103.126 213.704 98.416Z" fill="white"/>
<path d="M288.606 67.0567C279.336 67.0567 272.044 71.5188 266.482 78.2121L266.234 78.0882L274.268 35.9453H253.38L232.986 143.286H253.874L260.796 106.597C263.515 92.7142 270.684 84.1617 277.358 84.1617C282.055 84.1617 283.909 87.3844 283.909 91.9705C283.909 94.8214 283.662 98.4159 283.044 101.267L275.134 143.286H296.022L304.18 99.9033C305.045 95.3172 305.663 89.8634 305.663 86.1449C305.786 74.2457 299.606 67.0567 288.606 67.0567Z" fill="white"/>
<path d="M353.125 67.0566C327.911 67.0566 311.225 89.8634 311.225 115.273C311.225 131.51 321.236 144.649 340.024 144.649C364.744 144.649 381.43 122.462 381.43 96.4327C381.553 81.4348 372.778 67.0566 353.125 67.0566ZM342.866 128.66C335.698 128.66 332.731 122.586 332.731 114.901C332.731 102.878 338.911 83.294 350.282 83.294C357.698 83.294 360.17 89.7394 360.17 95.9369C360.17 108.828 353.867 128.66 342.866 128.66Z" fill="white"/>
<path d="M435.072 67.0566C420.982 67.0566 412.948 79.5755 412.948 79.5755H412.701L413.937 68.2961H395.397C394.531 75.8571 392.801 87.5083 391.194 96.1848L376.609 173.034H397.498L403.307 141.922H403.801C403.801 141.922 408.127 144.649 416.038 144.649C440.634 144.649 456.702 119.363 456.702 93.8298C456.702 79.6995 450.399 67.0566 435.072 67.0566ZM415.049 128.907C409.611 128.907 406.397 125.809 406.397 125.809L409.858 106.225C412.33 93.0861 419.128 84.4096 426.42 84.4096C432.847 84.4096 434.825 90.3592 434.825 95.9369C434.825 109.571 426.791 128.907 415.049 128.907Z" fill="white"/>
<path d="M486.613 36.937C479.939 36.937 474.624 42.2668 474.624 49.0841C474.624 55.2815 478.579 59.6198 484.512 59.6198H484.759C491.31 59.6198 496.872 55.1576 496.996 47.4727C496.996 41.3992 492.917 36.937 486.613 36.937Z" fill="white"/>
<path d="M457.32 143.162H478.209L492.423 68.792H471.411L457.32 143.162Z" fill="white"/>
<path d="M545.694 68.6681H531.109L531.851 65.1975C533.087 58.0084 537.289 51.687 544.334 51.687C548.042 51.687 551.009 52.8025 551.009 52.8025L555.088 36.3173C555.088 36.3173 551.503 34.458 543.716 34.458C536.3 34.458 528.884 36.5652 523.199 41.3992C516.03 47.4727 512.693 56.2731 511.086 65.1975L510.468 68.6681H500.704L497.614 84.5336H507.378L496.254 143.286H517.142L528.266 84.5336H542.728L545.694 68.6681Z" fill="white"/>
<path d="M596.123 68.792C596.123 68.792 583.021 101.887 577.212 119.983H576.965C576.594 114.158 571.774 68.792 571.774 68.792H549.773L562.38 137.088C562.627 138.576 562.504 139.567 561.886 140.559C559.414 145.269 555.335 149.855 550.515 153.202C546.559 156.052 542.11 157.912 538.649 159.151L544.458 177C548.661 176.132 557.56 172.538 564.976 165.597C574.493 156.672 583.392 142.79 592.415 123.95L618 68.792H596.123Z" fill="white"/>
</svg>
