<svg width="353" height="135" viewBox="0 0 353 135" fill="none" xmlns="http://www.w3.org/2000/svg">
<path d="M299.1 65.2V85V85.7H298.3H288.7H287.9V85V67C287.9 61.7 284.9 59.2 281.1 59.2C277.3 59.2 274.3 61.7 274.3 67V85V85.7H273.5H263.9H263.1V85V67C263.1 57.2 271.1 49.2 280.9 49.2C285.1 49.2 288.9 50.6 291.9 53.1L292.1 53.8L292.3 53.2C292.6 52.9 292.9 52.5 293.3 52.2L294 52.1L293.4 51.8C290.8 48.9 289.2 45 289.2 40.8V1.2V0.5H290H299.6H300.4V1.2V40.6C300.4 44.9 302.9 46.9 305.9 46.9C308.9 46.9 311.4 44.9 311.4 40.6V1.2V0.5H312.2H321.8H322.6V1.2V40.6C322.6 44.8 321 48.7 318.4 51.6L317.8 51.9L318.5 52C318.8 52.3 319.2 52.6 319.5 53L319.7 53.6L319.9 52.9C322.9 50.5 326.8 49 330.9 49C340.7 49 348.7 57 348.7 66.8V84.8V85.5H347.9H338.3H337.5V84.8V66.8C337.5 61.5 334.5 59 330.7 59C327 59 323.9 61.5 323.9 66.8V84.8V85.5H323.1H313.5H312.7V84.8V65C312.7 59.6 309.6 57 305.7 57C302.3 57.1 299.1 59.7 299.1 65.2Z" fill="white"/>
<path d="M83 134.3H93.1V133.2L89.3 132.3V97.8H79V99L83 100.1V111.8C81.2 110.3 78.6 109.1 75 109.1C68.7 109.1 64 114.7 64 122.4C64 130.3 68.3 134.9 75.1 134.9C78.4 134.9 81.2 133.6 83.1 131.9V134.3H83ZM83 129.6C81.6 130.7 79.9 131.7 77.2 131.7C73.7 131.7 70.8 129.2 70.8 122.3C70.8 115.2 73.2 112 77.2 112C79.9 112 81.7 113 83 114.4V129.6Z" fill="white"/>
<path d="M168.1 97.8L156.4 125.8L145.1 97.8H134.9V98.9L138.1 99.9V132.2L134.9 133.2V134.3H146.3V133L141.4 132.2V106.4L153.1 134.3H155.8L167.7 106.5V132.2L162.6 133.1V134.3H178.4V133.2L174.6 132.2V100L178.4 98.9V97.8H168.1Z" fill="white"/>
<path d="M194.3 109.1C187.1 109.1 180.7 114.1 180.7 122C180.7 129.7 187.2 134.9 194.3 134.9C201.5 134.9 208 129.7 208 122C208 114.1 201.5 109.1 194.3 109.1ZM194.3 110.9C198.7 110.9 201 115.8 201 121.9C201 128 198.7 133.1 194.3 133.1C190 133.1 187.6 128.1 187.6 121.9C187.7 115.8 190 110.9 194.3 110.9Z" fill="white"/>
<path d="M326.3 116.7V120.9L320.6 121.2C315.1 121.4 311.7 124.3 311.7 128.4C311.7 132.5 314.8 134.8 318.9 134.8C322.3 134.8 324.7 133.2 326.3 132V134.2H335.6V133.1L332.6 132.2V115.5C332.6 111.9 330.2 108.9 324.8 108.9C319.3 108.9 315.8 110.5 313.8 111.3V117.1H316.6L317.5 112.3C318.1 112 319.9 111.4 322.6 111.7C325.9 112.1 326.3 114.4 326.3 116.7ZM326.3 130.2C325 131 323.9 131.9 321.9 131.9C318.6 132 317.8 129.9 317.8 127.6C317.8 125.2 319.4 123.6 322.4 123.1L326.4 122.7V130.2H326.3Z" fill="white"/>
<path d="M338.5 97.8V99L342.3 100V132.4L338.5 133.3V134.3H352.4V133.3L348.7 132.4V97.8H338.5Z" fill="white"/>
<path d="M30.9999 51.4L25.5999 50.3V49.1H38.1999V50.2L34.2999 51.3V73.4C34.2999 82.6 29.2999 86.3 18.9999 86.3C8.4999 86.3 4.1999 82.3 4.1999 74V51.2L0.399902 50.2V49.1H16.4999V50.3L10.9999 51.3V73.7C10.9999 80.5 13.2999 83.8 20.3999 83.8C28.0999 83.8 30.8999 80.4 30.8999 73.1V51.4H30.9999Z" fill="white"/>
<path d="M52.7999 84.6V85.7H39.0999V84.6L42.7999 83.7V62.8L39.3999 61.8V60.6H49.1999V64.4C50.2999 63.4 53.8999 60.3 58.3999 60.3C63.0999 60.3 65.4999 62.9 65.4999 67.5V83.5L69.0999 84.4V85.5H55.8999V84.4L59.1999 83.6V68.3C59.1999 65.9 58.4999 63.8 55.3999 63.8C52.6999 63.8 49.9999 65.7 49.1999 66.2V83.6L52.7999 84.6Z" fill="white"/>
<path d="M81.4999 83.7L85.1999 84.6V85.7H71.3999V84.6L75.0999 83.7V62.8L71.7999 61.9V60.7H81.4999V83.7Z" fill="white"/>
<path d="M81.7999 52.1C81.7999 54 80.0999 55.6 78.0999 55.6C76.0999 55.6 74.3999 54 74.3999 52.1C74.3999 50.2 76.0999 48.6 78.0999 48.6C80.1999 48.6 81.7999 50.2 81.7999 52.1Z" fill="white"/>
<path d="M191.6 83.7L195.3 84.6V85.7H181.5V84.6L185.2 83.7V62.8L181.9 61.9V60.7H191.6V83.7Z" fill="white"/>
<path d="M191.9 52.1C191.9 54 190.2 55.6 188.2 55.6C186.2 55.6 184.5 54 184.5 52.1C184.5 50.2 186.2 48.6 188.2 48.6C190.3 48.6 191.9 50.2 191.9 52.1Z" fill="white"/>
<path d="M87.1999 62.4L85.3999 61.7V60.7H97.4999V61.7L93.6999 62.7L99.1999 77.9L104.7 62.6L101.4 61.7V60.7H109.7V61.7L107.7 62.7L98.1999 86H96.0999L87.1999 62.4Z" fill="white"/>
<path d="M117.1 71.6H133.6C133.4 64.7 129.8 60.4 122.6 60.4C115.5 60.4 110.2 66.6 110.2 73.3C110.2 81.1 115.3 86.2 122.6 86.2C128.9 86.2 132.1 83.7 134 82.3L132.9 80.6C131.4 81.5 128.5 83.5 123.7 83.2C119 82.9 116.6 77.9 117.1 71.6ZM127.3 69.7H117.4C118 65.4 119.6 62.3 122.6 62.3C125.9 62.3 127 66.2 127.3 69.7Z" fill="white"/>
<path d="M176.5 61.7L175.9 67.8H173.6L173 63.7C172.2 63.3 171 62.3 168.6 62.3C166.6 62.3 165 63.4 165 65.6C165 68.2 167.9 69.2 170.7 70.5C173.4 71.7 177.9 73.4 177.9 77.8C177.9 82.8 173.8 86.3 168.8 86.3C164.2 86.3 161.5 85.2 160.7 85L160.3 78.2L162.7 78L164 82.6C164.7 83.1 166.5 84.6 168.8 84.5C172 84.5 173.5 82.8 173.5 80.4C173.5 77.5 169.5 76.3 166.9 75.1C164.4 73.9 160.6 72.9 160.6 67.8C160.6 63.6 164.1 60.6 168.8 60.6C172.8 60.4 175.3 61.4 176.5 61.7Z" fill="white"/>
<path d="M237.8 52.5L235.4 48.9L226.8 55.6L228.2 57.6L237.8 52.5Z" fill="white"/>
<path d="M222.9 71.6H239.4C239.2 64.7 235.6 60.4 228.4 60.4C221.3 60.4 216 66.6 216 73.3C216 81.1 221.1 86.2 228.4 86.2C234.7 86.2 237.9 83.7 239.8 82.3L238.7 80.6C237.2 81.5 234.3 83.5 229.5 83.2C224.8 82.9 222.4 77.9 222.9 71.6ZM233.1 69.7H223.2C223.8 65.4 225.4 62.3 228.4 62.3C231.7 62.3 232.9 66.2 233.1 69.7Z" fill="white"/>
<path d="M154.6 60.5C151 60.5 148.4 63.4 147 66.6H146.9V60.7H136.8V61.7L140.6 62.8V83.7L136.8 84.6V85.7H152.4V84.5L147 83.6V69.4C148.5 66.1 150.7 64.8 152.1 64.8C153.1 64.8 153.5 65 154.3 65.7C154.6 65.9 155.7 66.2 156.3 65.9C157.5 65.4 157.9 64.5 157.9 63.2C157.8 61.8 156.4 60.5 154.6 60.5Z" fill="white"/>
<path d="M224.2 133.2V134.3H210.6V133.2L214.3 132.3V111.4L210.9 110.4V109.2H220.7V113C221.8 112 225.4 108.9 229.9 108.9C234.6 108.9 237 111.5 237 116.1V132.1L240.6 133V134.1H227.4V133L230.7 132.2V117C230.7 114.6 230 112.5 226.9 112.5C224.2 112.5 221.5 114.4 220.7 114.9V132.3L224.2 133.2Z" fill="white"/>
<path d="M280.1 109.1C276.5 109.1 273.9 112 272.5 115.2H272.4V109.3H262.3V110.3L266.1 111.4V132.3L262.3 133.2V134.3H277.9V133.1L272.5 132.2V118C274 114.7 276.2 113.4 277.6 113.4C278.6 113.4 279 113.6 279.8 114.3C280.1 114.5 281.2 114.8 281.8 114.5C283 114 283.4 113.1 283.4 111.8C283.3 110.4 281.9 109.1 280.1 109.1Z" fill="white"/>
<path d="M214 82.9C213.1 83.5 212.1 84 210.7 84C208.5 84 207.7 82.4 207.7 78.7V62.9L214.1 61.9V60.7H207.7V49.2H205.6C205.2 55.8 202.8 60.1 196.9 60.8H195.9V62L201.2 63V79C201.2 84.1 202.4 86.3 207.2 86.3C210.6 86.3 213.4 85 214.5 83.9L214 82.9Z" fill="white"/>
<path d="M259.3 131.5C258.4 132.1 257.4 132.6 256 132.6C253.8 132.6 253 130.9 253 127.3V111.6L259.4 110.6V109.4H253V97.8H250.9C250.5 104.4 248.1 108.7 242.2 109.4H241.2V110.6L246.5 111.6V127.6C246.5 132.7 247.7 134.9 252.5 134.9C255.9 134.9 258.7 133.6 259.8 132.5L259.3 131.5Z" fill="white"/>
<path d="M101.9 120.3H118.4C118.2 113.4 114.6 109.1 107.4 109.1C100.3 109.1 95 115.3 95 122C95 129.8 100.1 134.9 107.4 134.9C113.7 134.9 116.9 132.4 118.8 131L117.7 129.3C116.2 130.2 113.3 132.2 108.5 131.9C103.8 131.6 101.4 126.5 101.9 120.3ZM112.1 118.3H102.2C102.8 114 104.4 110.9 107.4 110.9C110.8 110.9 111.9 114.9 112.1 118.3Z" fill="white"/>
<path d="M290.7 120.3H307.2C307 113.4 303.4 109.1 296.2 109.1C289.1 109.1 283.8 115.3 283.8 122C283.8 129.8 288.9 134.9 296.2 134.9C302.5 134.9 305.7 132.4 307.6 131L306.5 129.3C305 130.2 302.1 132.2 297.3 131.9C292.6 131.6 290.2 126.5 290.7 120.3ZM305.6 101.1L303.2 97.5L294.6 104.2L296 106.2L305.6 101.1ZM300.9 118.3H291C291.6 114 293.2 110.9 296.2 110.9C299.6 110.9 300.7 114.9 300.9 118.3Z" fill="white"/>
</svg>
