<svg width="308" height="111" viewBox="0 0 308 111" fill="none" xmlns="http://www.w3.org/2000/svg">
<path fill-rule="evenodd" clip-rule="evenodd" d="M63.4334 43.0776C61.3757 41.0231 57.2497 38.4284 57.2497 38.4284C57.2497 38.4284 56.4286 33.6525 55.874 31.8836C59.5846 28.3254 60.1387 27.7852 63.7107 24.3753C63.9879 31.1955 63.8493 34.7431 63.4334 43.0776Z" fill="#000222"/>
<path fill-rule="evenodd" clip-rule="evenodd" d="M66.3225 57.4065C63.849 58.0844 63.5717 58.2221 61.0981 58.9102C58.4863 57.4065 56.1514 56.5909 53.9551 56.8556C54.2323 55.5003 54.6371 54.5363 55.053 53.3081C59.7229 52.6302 63.1558 55.0872 66.3225 57.4065Z" fill="#000222"/>
<path fill-rule="evenodd" clip-rule="evenodd" d="M104.246 55.5001C104.246 68.2403 99.1501 80.4611 90.0876 89.4735C87.4861 92.0576 84.6287 94.3132 81.5582 96.2194C81.5582 96.2194 81.5475 96.23 81.5368 96.23L64.9471 75.6959L78.6901 77.1996C78.6901 77.1996 85.2898 77.8775 86.7929 77.1996C88.1686 76.6594 95.5889 66.281 95.5889 66.281C95.5889 66.281 74.2868 52.9053 67.0047 45.5348C67.8365 33.112 66.0454 16.5913 66.0454 16.729C60.6824 22.0455 60.0003 22.8713 54.6373 27.7853C52.3023 20.277 51.2044 17.6823 48.8694 10.1736C41.8539 15.9032 36.502 25.6037 32.6528 36.9355C31.8107 37.8565 31.0003 38.831 30.201 39.8689C29.6786 40.557 29.1557 41.2561 28.6547 41.9761C27.6205 43.4377 26.6291 44.9733 25.6805 46.5828C25.0087 47.7164 24.3476 48.8813 23.7079 50.0671C19.2404 58.4016 15.5731 67.9542 12.3956 76.5535C12.3742 76.5217 12.3533 76.4792 12.3426 76.4477C9.18652 69.9769 7.50195 62.8286 7.50195 55.5001C7.50195 42.7492 12.5984 30.5284 21.6716 21.516C30.7444 12.5035 43.0481 7.44163 55.8743 7.44163C68.7107 7.44163 81.0144 12.5035 90.0876 21.516C99.1501 30.5284 104.246 42.7492 104.246 55.5001Z" fill="#000222"/>
<path fill-rule="evenodd" clip-rule="evenodd" d="M63.4334 43.0776C61.3757 41.0231 57.2497 38.4284 57.2497 38.4284C57.2497 38.4284 56.4286 33.6525 55.874 31.8836C59.5846 28.3254 60.1387 27.7852 63.7107 24.3753C63.9879 31.1955 63.8493 34.7431 63.4334 43.0776Z" fill="#DD1100"/>
<path fill-rule="evenodd" clip-rule="evenodd" d="M66.3225 57.4065C63.849 58.0844 63.5717 58.2221 61.0981 58.9102C58.4863 57.4065 56.1514 56.5909 53.9551 56.8556C54.2323 55.5003 54.6371 54.5363 55.053 53.3081C59.7229 52.6302 63.1558 55.0872 66.3225 57.4065Z" fill="#DD1100"/>
<path fill-rule="evenodd" clip-rule="evenodd" d="M104.246 55.5001C104.246 68.2403 99.1501 80.4611 90.0876 89.4735C87.4861 92.0576 84.6287 94.3132 81.5582 96.2194C81.5582 96.2194 81.5475 96.23 81.5368 96.23L64.9471 75.6959L78.6901 77.1996C78.6901 77.1996 85.2898 77.8775 86.7929 77.1996C88.1686 76.6594 95.5889 66.281 95.5889 66.281C95.5889 66.281 74.2868 52.9053 67.0047 45.5348C67.8365 33.112 66.0454 16.5913 66.0454 16.729C60.6824 22.0455 60.0003 22.8713 54.6373 27.7853C52.3023 20.277 51.2044 17.6823 48.8694 10.1736C41.8539 15.9032 36.502 25.6037 32.6528 36.9355C31.8107 37.8565 31.0003 38.831 30.201 39.8689C29.6786 40.557 29.1557 41.2561 28.6547 41.9761C27.6205 43.4377 26.6291 44.9733 25.6805 46.5828C25.0087 47.7164 24.3476 48.8813 23.7079 50.0671C19.2404 58.4016 15.5731 67.9542 12.3956 76.5535C12.3742 76.5217 12.3533 76.4792 12.3426 76.4477C9.18652 69.9769 7.50195 62.8286 7.50195 55.5001C7.50195 42.7492 12.5984 30.5284 21.6716 21.516C30.7444 12.5035 43.0481 7.44163 55.8743 7.44163C68.7107 7.44163 81.0144 12.5035 90.0876 21.516C99.1501 30.5284 104.246 42.7492 104.246 55.5001Z" fill="#DD1100"/>
<path fill-rule="evenodd" clip-rule="evenodd" d="M63.4334 43.0776C61.3757 41.0231 57.2497 38.4284 57.2497 38.4284C57.2497 38.4284 56.4286 33.6525 55.874 31.8836C59.5846 28.3254 60.1387 27.7852 63.7107 24.3753C63.9879 31.1955 63.8493 34.7431 63.4334 43.0776Z" fill="white"/>
<path fill-rule="evenodd" clip-rule="evenodd" d="M66.3225 57.4065C63.849 58.0844 63.5717 58.2221 61.0981 58.9102C58.4863 57.4065 56.1514 56.5909 53.9551 56.8556C54.2323 55.5003 54.6371 54.5363 55.053 53.3081C59.7229 52.6302 63.1558 55.0872 66.3225 57.4065Z" fill="white"/>
<path fill-rule="evenodd" clip-rule="evenodd" d="M66.3225 57.4065C63.849 58.0844 63.5717 58.2221 61.0981 58.9102C58.4863 57.4065 56.1514 56.5909 53.9551 56.8556C54.2323 55.5003 54.6371 54.5363 55.053 53.3081C59.7229 52.6302 63.1558 55.0872 66.3225 57.4065Z" fill="black"/>
<path fill-rule="evenodd" clip-rule="evenodd" d="M64.9472 75.6954L81.537 96.23C81.5473 96.23 81.558 96.2194 81.558 96.2194L64.9472 75.6954ZM12.3423 76.4473C12.353 76.4792 12.3744 76.5212 12.3958 76.5531C15.5728 67.9538 19.2406 58.4016 23.7076 50.0671C19.2085 58.3698 15.509 67.8905 12.3423 76.4473Z" fill="#000222"/>
<path fill-rule="evenodd" clip-rule="evenodd" d="M90.0874 89.4735C87.4859 92.0576 84.6285 94.3132 81.5581 96.2194C81.5581 96.2194 81.5474 96.23 81.5367 96.23L64.9473 75.6959L78.69 77.1996C78.69 77.1996 85.2896 77.8775 86.7928 77.1996C88.1684 76.6594 95.5887 66.281 95.5887 66.281C95.5887 66.281 74.2867 52.9054 67.005 45.5348C67.8364 33.112 66.0453 16.5913 66.0453 16.729C60.6826 22.0455 60.0002 22.8713 54.6375 27.7853C52.3026 20.2771 51.2042 17.6823 48.8693 10.1736C41.8542 15.9032 36.5018 25.6038 32.653 36.9355C31.8105 37.8565 31.0006 38.831 30.2008 39.8689C29.6784 40.557 29.156 41.2562 28.6549 41.9761C27.6207 43.4378 26.6289 44.9733 25.6803 46.5829C25.0085 47.7164 24.3474 48.8813 23.7078 50.0671C23.4305 50.5861 23.1532 51.1156 22.8764 51.6452C18.782 59.5879 15.3705 68.4944 12.3959 76.5536C12.3745 76.5217 12.3531 76.4792 12.3424 76.4477C9.18636 69.9769 7.50179 62.8286 7.50179 55.5001C7.50179 42.7492 12.5983 30.5284 21.6715 21.516C30.7447 12.5036 43.048 7.44165 55.8741 7.44165C68.7109 7.44165 81.0142 12.5036 90.0874 21.516C99.1499 30.5284 104.246 42.7492 104.246 55.5001C104.246 68.2403 99.1499 80.4611 90.0874 89.4735ZM55.8741 31.8838C59.5843 28.3255 60.1388 27.7853 63.7103 24.3755C63.9876 31.1952 63.8489 34.7432 63.433 43.0778C61.3754 41.0233 57.2493 38.4285 57.2493 38.4285C57.2493 38.4285 56.4286 33.6522 55.8741 31.8838ZM73.0501 100.678C43.4104 111.321 21.9911 91.7291 17.4175 84.8775C17.4389 84.8137 17.4492 84.761 17.4598 84.6972C21.5756 67.4141 26.6503 46.7312 34.8493 40.6208C39.114 33.2391 40.3506 22.3209 48.0379 16.5913C49.9676 22.3209 52.9953 34.2031 55.053 39.9322C64.1262 48.9447 77.8693 60.1387 87.07 64.7773C88.0297 65.3277 89.2663 69.1507 89.2663 69.1507L85.5562 73.7893L45.9802 69.8286C45.0949 69.7546 44.2101 69.7227 43.3252 69.7227C40.7879 69.7227 38.1864 70.0088 35.1266 70.5065C37.0457 65.7302 41.1717 61.9072 41.1717 61.9072C41.1717 61.9072 37.3229 59.5879 34.4334 59.1854C35.2652 57.2686 37.4616 54.8115 38.0157 54.1341C36.907 54.5361 28.9429 58.0842 28.1111 61.0916C31.9599 62.0449 34.7107 63.2732 34.7107 63.2732C34.7107 63.2732 30.4567 67.5093 29.6249 74.8803C29.6249 74.8803 42.2696 72.9635 51.7588 74.1918C52.0253 74.3295 52.164 74.3295 52.3026 74.3295L57.2493 74.4672L72.9649 100.455L73.0929 100.657C73.0715 100.668 73.0608 100.678 73.0501 100.678ZM93.8725 17.7563C83.7972 7.7485 70.1285 2.12515 55.8741 2.12515C41.63 2.12515 27.9617 7.7485 17.8757 17.7563C7.80045 27.7641 2.13916 41.3407 2.13916 55.5001C2.13916 69.6488 7.80045 83.2254 17.8757 93.2332C27.9617 103.252 41.63 108.875 55.8741 108.875C70.1285 108.875 83.7972 103.252 93.8725 93.2332C103.948 83.2254 109.609 69.6488 109.609 55.5001C109.609 41.3407 103.948 27.7641 93.8725 17.7563Z" fill="black"/>
<path fill-rule="evenodd" clip-rule="evenodd" d="M55.0534 53.3079C59.7233 52.63 63.1562 55.087 66.3229 57.4063C63.8494 58.0842 63.5721 58.2219 61.0985 58.91C58.4863 57.4063 56.1514 56.5907 53.9551 56.8555C54.2323 55.5002 54.6375 54.5362 55.0534 53.3079ZM35.1266 70.5065C38.1868 70.0088 40.7879 69.7228 43.3256 69.7228C44.2105 69.7228 45.0954 69.7547 45.9802 69.8286L85.5566 73.7893L89.2668 69.1507C89.2668 69.1507 88.0302 65.3277 87.0704 64.7769C77.8693 60.1387 64.1266 48.9447 55.0534 39.9323C52.9957 34.2031 49.9676 22.321 48.0379 16.5914C40.351 22.321 39.114 33.2392 34.8493 40.6208C26.6507 46.7313 21.5756 67.4141 17.4603 84.6973C17.4496 84.7611 17.4389 84.8138 17.4175 84.8775C21.9915 91.7292 43.4108 111.321 73.0505 100.678C73.0608 100.678 73.0715 100.668 73.0929 100.657L72.9649 100.456L57.2497 74.4672L52.3026 74.3295C52.1639 74.3295 52.0253 74.3295 51.7587 74.1918C42.2701 72.9635 29.6253 74.8803 29.6253 74.8803C30.4567 67.5093 34.7107 63.2732 34.7107 63.2732C34.7107 63.2732 31.9603 62.0449 28.1115 61.0916C28.9429 58.0842 36.907 54.5362 38.0161 54.1337C37.4615 54.8116 35.2652 57.2686 34.4339 59.1854C37.3229 59.5879 41.1717 61.9072 41.1717 61.9072C41.1717 61.9072 37.0456 65.7302 35.1266 70.5065Z" fill="white"/>
<path d="M135.663 11.203H141.906L147.57 37.3821L151.94 11.203H157.247L150.959 44.8232H144.85L138.784 17.1387L132.72 44.8232H126.61L120.322 11.203H125.629L130 37.3821L135.663 11.203Z" fill="white"/>
<path d="M158.538 33.3511C158.538 26.5296 160.5 21.7457 168.439 21.7457C176.376 21.7457 178.338 26.5296 178.338 33.3511C178.338 40.173 176.376 44.9565 168.439 44.9565C160.5 44.9565 158.538 40.173 158.538 33.3511ZM173.299 33.3511C173.299 28.6118 172.675 25.9096 168.439 25.9096C164.202 25.9096 163.577 28.6118 163.577 33.3511C163.577 38.0909 164.202 40.7931 168.439 40.7931C172.675 40.7931 173.299 38.0909 173.299 33.3511Z" fill="white"/>
<path d="M182.171 38.9768V11.2026H187.166V38.9326C187.166 40.1733 187.612 40.6153 189.039 40.6153V44.6469C189.039 44.6469 188.593 44.7354 188.058 44.7354C184 44.7354 182.171 42.7862 182.171 38.9768Z" fill="white"/>
<path d="M207.768 15.4113C206.965 15.1457 206.028 14.9684 204.468 14.9684C202.238 14.9684 200.454 15.81 200.454 18.335V22.2778H206.742V26.4855H200.454V44.4253H195.46V26.4855H191.401V23.4292L195.46 22.2778V17.8921C195.46 13.1519 198.135 10.6716 204.111 10.6716C205.583 10.6716 206.921 10.8934 207.768 11.2037V15.4113Z" fill="white"/>
<path d="M222.483 26.2635C221.947 26.0863 221.055 25.9979 220.03 25.9979C217.399 25.9979 215.436 26.618 214.322 27.3269V44.4248H209.328V22.2773H212.27L213.073 24.0484C214.723 22.7202 217.22 21.7456 220.119 21.7456C221.055 21.7456 221.859 21.8787 222.483 22.0113V26.2635Z" fill="white"/>
<path d="M232.739 25.998C229.84 25.998 227.477 26.6622 225.782 27.3274V23.0301C227.521 22.2774 230.464 21.7457 233.096 21.7457C240.409 21.7457 242.104 24.935 242.104 29.6301V44.4249H239.16L238.358 42.6534C236.574 44.115 234.077 44.9565 231.624 44.9565C225.871 44.9565 223.954 41.4136 223.954 37.8694C223.954 33.0851 227.075 31.0471 232.115 30.6485L237.109 30.2506V29.1431C237.109 26.8837 236.039 25.998 232.739 25.998ZM232.427 34.1931C230.197 34.4587 228.904 35.2998 228.904 37.6034C228.904 39.2864 229.617 40.8815 232.338 40.8815C234.345 40.8815 235.727 40.3056 237.109 39.4195V33.6614L232.427 34.1931Z" fill="white"/>
<path d="M272.561 28.7887C272.561 26.7065 271.357 25.9538 269.395 25.9538C267.209 25.9538 265.738 26.6181 264.578 27.3271C264.667 28.1244 264.712 28.8771 264.712 29.7628V44.4258H259.717V28.7887C259.717 26.7065 258.558 25.9538 256.552 25.9538C254.499 25.9538 253.028 26.5735 251.869 27.2387V44.4258H246.874V22.2775H249.817L250.62 24.0489C252.493 22.5873 255.169 21.7458 257.354 21.7458C260.341 21.7458 262.125 22.5873 263.062 23.9601C265.069 22.5431 267.744 21.7458 270.197 21.7458C275.459 21.7458 277.556 24.581 277.556 28.7887V44.4258H272.561V28.7887Z" fill="white"/>
<path d="M125.3 84.1607H139.838V88.7236H120.306V55.5012H125.3V84.1607Z" fill="white"/>
<path d="M149.603 70.2958C146.704 70.2958 144.341 70.9601 142.647 71.6253V67.3279C144.386 66.5752 147.329 66.0435 149.96 66.0435C157.274 66.0435 158.969 69.2329 158.969 73.928V88.7227H156.025L155.222 86.9512C153.438 88.4129 150.942 89.2544 148.488 89.2544C142.736 89.2544 140.818 85.7115 140.818 82.1673C140.818 77.3829 143.94 75.345 148.979 74.9463L153.973 74.5485V73.4409C153.973 71.1815 152.903 70.2958 149.603 70.2958ZM149.291 78.4909C147.061 78.7566 145.768 79.5977 145.768 81.9012C145.768 83.5843 146.481 85.1794 149.202 85.1794C151.209 85.1794 152.591 84.6035 153.973 83.7173V77.9592L149.291 78.4909Z" fill="white"/>
<path d="M177.385 88.7231V73.5298C177.385 71.2704 176.225 70.2512 173.861 70.2512C171.543 70.2512 169.937 70.8717 168.733 71.536V88.7231H163.738V66.5748H166.682L167.484 68.3467C169.759 66.7963 172.301 66.0436 174.709 66.0436C180.373 66.0436 182.379 68.8342 182.379 73.086V88.7231H177.385Z" fill="white"/>
<path d="M195.577 82.8763C194.64 82.8763 193.748 82.8321 192.99 82.6991C192.634 83.0536 192.366 83.5406 192.366 83.9835C192.366 84.737 192.767 85.1357 193.704 85.2683L201.776 86.2429C206.191 86.7741 207.751 88.767 207.751 92.4442C207.751 98.1581 201.686 100.329 195.22 100.329C189.245 100.329 184.918 98.4242 184.918 93.8621C184.918 90.8492 187.193 89.0777 189.557 88.3692V88.325C188.442 87.7049 187.818 86.4643 187.818 85.2683C187.818 83.629 188.798 82.4772 189.824 81.6799C187.282 80.2629 186.257 77.6937 186.257 74.4598C186.257 69.4102 188.754 66.0437 195.577 66.0437C197.183 66.0437 198.52 66.2209 199.679 66.5749H207.395V69.72L204.228 70.6058C204.674 71.758 204.897 73.0419 204.897 74.4598C204.897 79.5094 202.4 82.8763 195.577 82.8763ZM194.016 89.3875C191.742 89.7862 189.691 90.805 189.691 92.9313C189.691 95.4121 191.474 96.3862 195.577 96.3862C199.502 96.3862 202.935 95.2349 202.935 92.5768C202.935 91.0715 202.177 90.4072 200.348 90.1849L194.016 89.3875ZM195.577 78.9343C199.323 78.9343 200.171 76.9848 200.171 74.4598C200.171 71.9352 199.323 69.9857 195.577 69.9857C191.831 69.9857 190.983 71.9352 190.983 74.4598C190.983 76.9848 191.831 78.9343 195.577 78.9343Z" fill="white"/>
<path d="M215.287 66.5752V81.7686C215.287 84.028 216.446 85.0463 218.809 85.0463C221.128 85.0463 222.734 84.4267 223.938 83.7624V66.5752H228.933V88.7236H225.989L225.187 86.9517C222.912 88.5013 220.371 89.2544 217.962 89.2544C212.299 89.2544 210.292 86.4642 210.292 82.2115V66.5752H215.287Z" fill="white"/>
<path d="M240.926 70.2958C238.027 70.2958 235.664 70.9601 233.97 71.6253V67.3279C235.708 66.5752 238.652 66.0435 241.283 66.0435C248.597 66.0435 250.292 69.2329 250.292 73.928V88.7227H247.348L246.545 86.9512C244.761 88.4129 242.265 89.2544 239.812 89.2544C234.059 89.2544 232.141 85.7115 232.141 82.1673C232.141 77.3829 235.262 75.345 240.302 74.9463L245.296 74.5485V73.4409C245.296 71.1815 244.226 70.2958 240.926 70.2958ZM240.614 78.4909C238.384 78.7566 237.091 79.5977 237.091 81.9012C237.091 83.5843 237.805 85.1794 240.525 85.1794C242.532 85.1794 243.914 84.6035 245.296 83.7173V77.9592L240.614 78.4909Z" fill="white"/>
<path d="M263.534 82.8763C262.598 82.8763 261.706 82.8321 260.948 82.6991C260.591 83.0536 260.324 83.5406 260.324 83.9835C260.324 84.737 260.725 85.1357 261.661 85.2683L269.733 86.2429C274.148 86.7741 275.709 88.767 275.709 92.4442C275.709 98.1581 269.644 100.329 263.178 100.329C257.202 100.329 252.876 98.4242 252.876 93.8621C252.876 90.8492 255.151 89.0777 257.514 88.3692V88.325C256.4 87.7049 255.775 86.4643 255.775 85.2683C255.775 83.629 256.756 82.4772 257.782 81.6799C255.24 80.2629 254.214 77.6937 254.214 74.4598C254.214 69.4102 256.711 66.0437 263.534 66.0437C265.14 66.0437 266.478 66.2209 267.637 66.5749H275.352V69.72L272.186 70.6058C272.632 71.758 272.855 73.0419 272.855 74.4598C272.855 79.5094 270.357 82.8763 263.534 82.8763ZM261.973 89.3875C259.699 89.7862 257.648 90.805 257.648 92.9313C257.648 95.4121 259.432 96.3862 263.534 96.3862C267.459 96.3862 270.892 95.2349 270.892 92.5768C270.892 91.0715 270.134 90.4072 268.306 90.1849L261.973 89.3875ZM263.534 78.9343C267.28 78.9343 268.128 76.9848 268.128 74.4598C268.128 71.9352 267.28 69.9857 263.534 69.9857C259.789 69.9857 258.941 71.9352 258.941 74.4598C258.941 76.9848 259.789 78.9343 263.534 78.9343Z" fill="white"/>
<path d="M287.704 66.0431C295.552 66.0431 296.801 71.1815 296.801 77.2945C296.801 78.0472 296.755 78.7557 296.712 79.4651H282.842C282.931 82.7874 284.136 84.9571 288.684 84.9571C291.494 84.9571 293.813 84.4709 295.776 83.6285V87.8808C293.233 88.9441 290.335 89.2544 287.926 89.2544C280.479 89.2544 277.803 84.8245 277.803 77.6485C277.803 70.5172 280.434 66.0431 287.704 66.0431ZM282.842 76.0101H291.762C291.762 72.9972 291.583 70.3404 287.704 70.3404C284.046 70.3404 283.021 72.6874 282.842 76.0101Z" fill="white"/>
<path d="M300.527 61.7561H301.919L303.205 65.0495L304.468 61.7561H305.86V66.6318H304.964V62.9044H304.94L303.56 66.6318H302.828L301.447 62.9044H301.424V66.6318H300.527V61.7561ZM296.964 62.5763H295.453V61.7561H299.37V62.5763H297.86V66.6318H296.964V62.5763Z" fill="white"/>
</svg>
