<svg width="153" height="153" viewBox="0 0 153 153" fill="none" xmlns="http://www.w3.org/2000/svg">
<g clip-path="url(#clip0)">
<path d="M37.7748 137.421C37.5182 137.273 37.2234 137.204 36.9276 137.223C36.6318 137.242 36.3484 137.349 36.1131 137.529C35.8779 137.709 35.7014 137.955 35.6061 138.236C35.5107 138.516 35.5007 138.819 35.5773 139.105C35.654 139.391 35.8138 139.649 36.0366 139.844C36.2595 140.039 36.5353 140.164 36.8291 140.203C37.123 140.242 37.4218 140.192 37.6876 140.061C37.9534 139.93 38.1744 139.723 38.3225 139.467C38.4251 139.297 38.4925 139.109 38.5204 138.913C38.5484 138.718 38.5364 138.518 38.4852 138.327C38.4341 138.136 38.3448 137.957 38.2227 137.801C38.1006 137.646 37.9482 137.516 37.7748 137.421Z" fill="#B69477"/>
<path d="M53.2372 144.043L52.3054 140.31L50.0264 139.586L51.5688 145.799L50.5489 149.034L52.5699 149.67L53.5898 146.441L58.4186 142.236L56.1396 141.519L53.2372 144.043Z" fill="#B69477"/>
<path d="M65.1551 143.262C64.2639 143.134 63.3547 143.273 62.5426 143.662C61.7305 144.051 61.052 144.672 60.5929 145.446C60.1337 146.22 59.9146 147.113 59.9632 148.012C60.0118 148.911 60.3259 149.776 60.8658 150.496C61.4058 151.216 62.1473 151.76 62.9965 152.059C63.8458 152.358 64.7647 152.399 65.6369 152.176C66.5092 151.952 67.2957 151.476 67.8969 150.805C68.4981 150.135 68.887 149.302 69.0144 148.411C69.1024 147.819 69.0722 147.216 68.9254 146.635C68.7786 146.055 68.5183 145.51 68.1593 145.031C67.8004 144.552 67.3501 144.15 66.8345 143.846C66.3188 143.542 65.748 143.344 65.1551 143.262ZM66.9116 148.109C66.8194 148.575 66.5926 149.004 66.2593 149.342C65.9259 149.681 65.5006 149.914 65.036 150.013C64.5713 150.113 64.0878 150.074 63.6451 149.901C63.2024 149.729 62.82 149.43 62.5451 149.043C62.2703 148.655 62.1152 148.195 62.0989 147.721C62.0826 147.246 62.2058 146.777 62.4534 146.371C62.701 145.966 63.062 145.642 63.4919 145.439C63.9217 145.237 64.4014 145.165 64.8718 145.232C65.1985 145.279 65.5122 145.392 65.7939 145.564C66.0755 145.735 66.3192 145.963 66.5101 146.232C66.701 146.501 66.835 146.806 66.904 147.129C66.9731 147.452 66.9756 147.785 66.9116 148.109Z" fill="#B69477"/>
<path d="M81.0335 143.898L78.9181 143.967L79.0818 148.833C79.1322 150.438 78.6663 150.967 77.5582 151.004C76.4502 151.042 75.9465 150.545 75.8899 148.94L75.7262 144.08L73.6045 144.15L73.7682 149.009C73.8689 151.879 75.254 153.075 77.6212 153C79.9884 152.924 81.2979 151.628 81.2035 148.757L81.0335 143.898Z" fill="#B69477"/>
<path d="M90.8612 142.211L91.9441 147.423L87.1152 142.985L85.0376 143.42L86.8382 152.087L88.9095 151.659L87.8266 146.441L92.6618 150.879L94.7394 150.451L92.9388 141.777L90.8612 142.211Z" fill="#B69477"/>
<path d="M101.708 142.658L102.451 144.509L104.97 143.489C104.949 143.936 104.791 144.366 104.519 144.722C104.247 145.077 103.872 145.341 103.446 145.478C102.149 146 100.928 145.314 100.374 143.961C100.232 143.654 100.157 143.32 100.151 142.982C100.145 142.644 100.21 142.309 100.341 141.997C100.471 141.685 100.666 141.404 100.911 141.171C101.156 140.938 101.447 140.758 101.765 140.644C102.107 140.508 102.476 140.458 102.841 140.498C103.207 140.537 103.557 140.665 103.862 140.87L104.881 139.146C104.311 138.785 103.663 138.565 102.991 138.504C102.319 138.443 101.642 138.542 101.016 138.793C100.444 139.002 99.9208 139.324 99.4771 139.74C99.0335 140.156 98.6789 140.658 98.4347 141.215C98.1905 141.772 98.0618 142.373 98.0563 142.981C98.0509 143.59 98.1689 144.193 98.4031 144.754C98.6109 145.305 98.9261 145.81 99.3304 146.238C99.7346 146.666 100.22 147.01 100.758 147.25C101.296 147.489 101.877 147.619 102.466 147.633C103.055 147.646 103.64 147.543 104.189 147.329C106.638 146.34 107.721 143.98 106.418 140.757L101.708 142.658Z" fill="#B69477"/>
<path d="M119.639 136.364L115.566 130.85L113.859 132.109L119.123 139.228L123.737 135.816L122.548 134.211L119.639 136.364Z" fill="#B69477"/>
<path d="M127.414 129.886L126.407 128.841L128.208 127.117L126.823 125.675L125.028 127.406L124.04 126.38L126.288 124.221L124.902 122.786L121.125 126.418L127.27 132.794L131.041 129.162L129.656 127.727L127.414 129.886Z" fill="#B69477"/>
<path d="M129.208 117.751L134.308 125.663L135.643 123.919L134.686 122.434L136.638 119.878L138.318 120.407L139.653 118.663L130.675 115.818L129.208 117.751ZM134.61 119.243L133.54 120.653L132.111 118.449L134.61 119.243Z" fill="#B69477"/>
<path d="M141.945 105.495C141.441 105.209 140.883 105.028 140.307 104.963C139.73 104.899 139.147 104.952 138.592 105.12C138.037 105.287 137.521 105.566 137.077 105.939C136.633 106.312 136.269 106.771 136.008 107.289L134.484 110.197L142.329 114.301L143.852 111.393C144.128 110.883 144.297 110.323 144.35 109.746C144.403 109.169 144.338 108.588 144.16 108.036C143.982 107.485 143.693 106.976 143.313 106.539C142.932 106.102 142.467 105.747 141.945 105.495ZM142.083 110.468L141.548 111.494L137.248 109.24L137.79 108.214C138.331 107.176 139.445 106.578 140.975 107.377C142.505 108.177 142.631 109.429 142.083 110.468Z" fill="#B69477"/>
<path d="M146.503 100.472L145.143 99.9878L145.974 97.6399L144.092 96.9727L143.261 99.3206L141.92 98.8485L142.958 95.909L141.076 95.248L139.332 100.183L147.68 103.135L149.424 98.1939L147.548 97.5329L146.503 100.472Z" fill="#B69477"/>
<path d="M146.554 85.5294C146.13 85.4445 145.694 85.4466 145.271 85.5356C144.848 85.6246 144.448 85.7987 144.095 86.0471C143.741 86.2956 143.442 86.6133 143.216 86.9809C142.989 87.3486 142.839 87.7585 142.776 88.1857L142.083 91.6728L150.765 93.4038L151.181 91.3266L148.663 90.8294L148.864 89.8034L151.653 88.8592L152.119 86.5176L148.858 87.6255C148.701 87.0995 148.403 86.6263 147.997 86.2569C147.591 85.8876 147.092 85.636 146.554 85.5294ZM147.038 89.0354L146.755 90.4391L144.482 89.9859L144.759 88.576C144.781 88.4184 144.835 88.267 144.917 88.1311C145 87.9951 145.109 87.8775 145.239 87.7854C145.368 87.6933 145.516 87.6288 145.671 87.5958C145.827 87.5628 145.987 87.5619 146.143 87.5934C146.299 87.6248 146.447 87.6878 146.578 87.7786C146.708 87.8693 146.819 87.9858 146.903 88.1209C146.987 88.256 147.042 88.4069 147.065 88.5641C147.088 88.7214 147.079 88.8818 147.038 89.0354Z" fill="#B69477"/>
<path d="M147.409 77.9632C146.9 78.7626 146.698 79.0018 146.339 78.9829C145.98 78.9641 145.867 78.6745 145.88 78.3535C145.88 77.8688 146.257 77.5604 146.981 77.5919L147.082 75.4769C146.687 75.4313 146.286 75.4686 145.906 75.5864C145.526 75.7042 145.174 75.8999 144.874 76.1611C144.574 76.4223 144.331 76.7432 144.162 77.1033C143.992 77.4635 143.9 77.8549 143.89 78.2528C143.815 79.8012 144.715 81.0412 146.138 81.1105C147.158 81.1608 147.894 80.8587 149.254 78.8507C149.884 77.9569 150.073 77.4911 150.513 77.5163C150.79 77.5163 151.048 77.787 151.023 78.3472C151.027 78.492 150.998 78.6357 150.94 78.7685C150.882 78.9012 150.796 79.0196 150.688 79.1155C150.579 79.2115 150.451 79.2825 150.312 79.3238C150.173 79.365 150.027 79.3754 149.884 79.3543L149.783 81.4756C150.198 81.5031 150.613 81.4453 151.005 81.3056C151.396 81.1659 151.755 80.9474 152.058 80.6636C152.361 80.3797 152.603 80.0366 152.769 79.6555C152.934 79.2743 153.019 78.8633 153.019 78.4479C153.088 76.8995 152.314 75.4769 150.702 75.3951C149.374 75.3258 148.581 76.163 147.409 77.9632Z" fill="#B69477"/>
<path d="M145.678 60.1626C145.744 60.4515 145.894 60.7143 146.11 60.9179C146.325 61.1214 146.596 61.2565 146.888 61.3061C147.18 61.3557 147.481 61.3175 147.751 61.1965C148.022 61.0754 148.25 60.8768 148.408 60.6259C148.566 60.375 148.645 60.083 148.637 59.7868C148.628 59.4906 148.532 59.2036 148.361 58.9619C148.189 58.7203 147.95 58.535 147.673 58.4294C147.396 58.3238 147.094 58.3027 146.805 58.3687C146.612 58.4102 146.429 58.49 146.268 58.6032C146.106 58.7164 145.968 58.8609 145.863 59.0281C145.758 59.1953 145.688 59.3818 145.656 59.5767C145.624 59.7715 145.632 59.9707 145.678 60.1626Z" fill="#B69477"/>
<path d="M62.5738 72.1598C62.9753 72.1584 63.3698 72.0548 63.7203 71.859C64.0707 71.6631 64.3656 71.3813 64.5771 71.0401C64.7887 70.699 64.9099 70.3096 64.9295 69.9087C64.9491 69.5077 64.8664 69.1084 64.6892 68.7482L52.0598 43.0919C51.865 42.6973 51.5636 42.3649 51.1898 42.1325C50.816 41.9 50.3847 41.7767 49.9445 41.7764C49.58 41.7781 49.2206 41.862 48.8931 42.0219C48.3379 42.3016 47.915 42.7886 47.7159 43.3775C47.5169 43.9664 47.5575 44.6099 47.8291 45.1691L60.4395 70.8443C60.6358 71.2418 60.9401 71.5761 61.3175 71.8087C61.695 72.0414 62.1304 72.1631 62.5738 72.1598Z" fill="#B69477"/>
<path d="M84.8361 41.9778C84.5391 41.8445 84.2172 41.7759 83.8917 41.7764C83.4313 41.7765 82.981 41.9113 82.5962 42.164C82.2114 42.4168 81.9089 42.7765 81.7259 43.1989L54.6541 105.401C54.5187 105.687 54.4421 105.997 54.4288 106.312C54.4156 106.628 54.4658 106.943 54.5767 107.239C54.6876 107.535 54.8568 107.806 55.0743 108.036C55.2918 108.265 55.5531 108.448 55.8429 108.575C56.1326 108.701 56.4448 108.768 56.7609 108.772C57.077 108.775 57.3907 108.716 57.6832 108.596C57.9757 108.476 58.2412 108.298 58.4638 108.074C58.6864 107.85 58.8617 107.583 58.9793 107.289L86.0511 45.081C86.1755 44.7975 86.2427 44.4923 86.2489 44.1828C86.2551 43.8733 86.2002 43.5657 86.0873 43.2774C85.9744 42.9892 85.8058 42.726 85.5911 42.503C85.3764 42.28 85.1198 42.1015 84.8361 41.9778Z" fill="#B69477"/>
<path d="M105.064 107.598C105.276 107.258 105.398 106.87 105.419 106.471C105.44 106.071 105.359 105.673 105.184 105.313L102.281 99.3394C102.086 98.9414 101.783 98.6061 101.407 98.3713C101.031 98.1366 100.597 98.0119 100.153 98.0113C99.7533 98.0115 99.3598 98.1134 99.0099 98.3074C98.66 98.5014 98.3652 98.7812 98.1531 99.1203C97.9409 99.4595 97.8185 99.847 97.7973 100.247C97.7761 100.646 97.8568 101.044 98.0317 101.404L99.2909 103.985H72.7605L98.4032 45.081C98.5273 44.7971 98.5942 44.4915 98.6 44.1818C98.6057 43.872 98.5503 43.5642 98.4368 43.2759C98.3234 42.9876 98.1541 42.7245 97.9387 42.5018C97.7234 42.279 97.4661 42.101 97.1818 41.9778C96.8848 41.8445 96.5629 41.7759 96.2374 41.7764C95.7774 41.7781 95.3278 41.9135 94.9433 42.1661C94.5588 42.4186 94.2559 42.7775 94.0717 43.1989L66.9998 105.401C66.843 105.76 66.7781 106.153 66.8111 106.544C66.8441 106.935 66.974 107.311 67.1889 107.639C67.4038 107.967 67.6971 108.236 68.0422 108.422C68.3873 108.609 68.7734 108.706 69.1656 108.706H103.062C103.462 108.706 103.856 108.604 104.206 108.41C104.557 108.217 104.852 107.937 105.064 107.598Z" fill="#B69477"/>
<path d="M32.9963 133.922C19.724 124.546 9.99283 110.977 5.36887 95.4008C0.744898 79.8243 1.49702 63.1453 7.5042 48.048C13.5114 32.9506 24.4243 20.313 38.4867 12.1686C52.5491 4.02426 68.9433 0.846918 85.0309 3.14789C98.7048 5.10262 111.536 10.922 122.013 19.921C132.491 28.9201 140.179 40.7243 144.173 53.9444C144.309 54.2101 144.535 54.4191 144.81 54.5339C145.086 54.6487 145.393 54.6619 145.678 54.5711C145.962 54.4804 146.205 54.2916 146.363 54.0385C146.521 53.7853 146.584 53.4843 146.541 53.189C144.006 44.7801 139.987 36.8925 134.673 29.8994C125.775 18.0794 113.572 9.1612 99.6061 4.2715C85.6406 -0.618198 70.5388 -1.26005 56.2086 2.42702C41.8783 6.11409 28.9625 13.9647 19.0927 24.987C9.22283 36.0094 2.8418 49.7091 0.75564 64.3554C-0.651244 74.0866 -0.113645 84.0001 2.33732 93.5221C4.78828 103.044 9.10393 111.985 15.0345 119.829C20.0711 126.532 24.8118 131.341 31.5357 135.911C31.7433 136.078 31.9982 136.174 32.264 136.187C32.5298 136.199 32.7928 136.127 33.0152 135.981C33.2375 135.835 33.4079 135.622 33.5018 135.373C33.5957 135.124 33.6083 134.852 33.5378 134.596C33.4465 134.312 33.2536 134.072 32.9963 133.922Z" fill="#B69477"/>
</g>
<defs>
<clipPath id="clip0">
<rect width="153" height="153" fill="white"/>
</clipPath>
</defs>
</svg>
