<svg width="159" height="78" viewBox="0 0 159 78" fill="none" xmlns="http://www.w3.org/2000/svg">
<g clip-path="url(#clip0)" style="fill:#e64000;">
<path d="M27.4058 0.123584C23.2833 0.617841 19.4403 2.24735 16.0708 4.93487C15.0848 5.7226 13.5243 7.27487 12.7402 8.25566C10.1937 11.4452 8.62546 14.9822 7.98108 19.0135C7.83357 19.9557 7.81028 20.419 7.78699 24.5353L7.74817 29.0376H3.86633H-0.0155029L0.0155518 30.1729C0.0466064 31.061 0.0931885 31.4394 0.232935 31.8564C0.784155 33.5709 2.01082 34.9996 3.60237 35.7564C4.54177 36.1966 5.06194 36.3048 6.50598 36.3511L7.7637 36.3974V54.6927C7.7637 71.0804 7.77922 73.0497 7.88791 73.5749C8.28386 75.4901 9.76672 77.1196 11.6843 77.7452C12.2278 77.9228 12.4685 77.9537 13.633 77.9846L14.9606 78.0154L15.0072 68.1071C15.0383 62.6549 15.0615 53.2871 15.0615 47.2865V36.382L22.1886 36.3511C28.7489 36.3279 29.3467 36.3202 29.7737 36.1889C31.6836 35.6252 33.2829 34.1269 33.8884 32.3353C34.1291 31.6093 34.2301 30.8757 34.2378 29.8254V29.0376H24.6419H15.046L15.0848 24.96C15.1159 21.7473 15.1469 20.7202 15.2479 20.0792C15.9233 15.7004 18.299 12.0089 21.979 9.59943C23.5007 8.61091 25.3562 7.85408 27.2505 7.44477C28.2132 7.24398 28.2676 7.23626 32.3357 7.1822C36.171 7.13586 36.4893 7.12042 37.0405 6.96596C38.6553 6.52576 39.9674 5.4523 40.6817 3.97725C41.1009 3.09685 41.2251 2.46359 41.2251 1.12755V1.86739e-05L34.7657 0.00774572C29.7815 0.0154667 28.0968 0.0386356 27.4058 0.123584Z" />
<path d="M41.1708 29.0376C39.191 29.5551 37.6228 31.146 37.056 33.2311C36.9318 33.6713 36.9163 34.7293 36.893 45.9505C36.8775 53.959 36.9008 58.639 36.9473 59.4808C37.1337 62.3691 37.7548 64.6782 39.0513 67.304C40.6273 70.4857 42.8089 73.0034 45.6194 74.88C46.3259 75.3511 48.1891 76.3242 48.7481 76.5172C49.0199 76.6099 49.0509 76.5404 48.9189 76.0848C48.8801 75.9457 48.8025 75.5055 48.7559 75.0962C48.5463 73.3509 49.0975 71.2117 50.1378 69.698C50.4173 69.2964 50.4406 69.2269 50.3397 69.1574C48.7714 68.1689 47.9329 67.4893 47.141 66.5549C45.7824 64.9485 44.874 63.1182 44.3927 61.0254L44.2219 60.2762L44.1986 44.5758L44.1753 28.8832L42.9487 28.8909C42.017 28.8909 41.5978 28.9295 41.1708 29.0376Z" />
<path d="M68.8405 44.3442C68.8094 61.1026 68.8405 60.0291 68.3979 61.7127C67.7691 64.1531 66.0456 66.6398 63.8873 68.2462L63.1963 68.7559L63.4292 69.0107C64.1435 69.8293 64.8034 71.0959 65.1139 72.2697C65.3468 73.1578 65.44 74.6869 65.3002 75.4052C65.2537 75.66 65.2304 75.8763 65.2537 75.8994C65.2692 75.9149 65.5953 75.7681 65.9679 75.5673C70.991 72.8798 74.7176 67.8446 75.8045 62.261C76.1694 60.4153 76.1694 60.1141 76.1461 46.7228L76.1228 34.096L75.9442 33.5323C75.6026 32.4279 74.9971 31.4394 74.1664 30.644C72.9164 29.4392 71.5034 28.8832 69.6867 28.8832H68.8715L68.8405 44.3442Z" />
<path d="M95.8425 29.0454C92.0305 29.4006 88.6068 30.6903 85.905 32.7832C85.0665 33.4319 83.6846 34.8683 83.0868 35.7178C81.7126 37.6563 80.944 39.5329 80.6179 41.7802C80.4394 43.0159 80.4937 45.3404 80.7344 46.5143C81.208 48.8388 82.2328 50.7541 83.8864 52.4067C86.1612 54.6927 88.9717 56.0596 92.8147 56.7624C93.9559 56.9709 95.9201 57.1331 98.4821 57.2258C101.44 57.3262 102.807 57.5733 104.499 58.2992C105.858 58.8784 107.24 59.9751 107.705 60.8323C108.373 62.0757 108.396 64.0681 107.752 65.7362C106.983 67.7133 105.105 69.3273 102.605 70.1537C100.912 70.7097 98.552 70.9414 96.4946 70.7406C93.6609 70.4626 91.852 69.698 89.9421 67.9604C88.7543 66.8792 87.7605 66.3232 86.3242 65.937C85.7808 65.7903 85.478 65.7594 84.5464 65.7671C83.2886 65.7671 82.947 65.8366 81.6117 66.3541C80.8353 66.6553 80.812 66.6707 80.8586 66.8715C80.9595 67.304 82.1629 69.5899 82.7452 70.4703C83.5759 71.7059 84.2125 72.4782 85.1364 73.3663C87.7295 75.8608 90.7573 77.2432 94.8798 77.8224C96.1065 77.9923 99.7243 78.0155 100.85 77.861C104.398 77.3667 107.348 76.2547 109.677 74.5325C111.525 73.1733 112.845 71.6673 113.885 69.7289C114.964 67.721 115.438 65.6745 115.446 63.0796C115.446 60.3535 114.941 58.4537 113.714 56.6234C111.222 52.901 107.045 50.7464 100.967 50.0436C100.586 49.9972 99.3051 49.9277 98.1328 49.8891C94.4606 49.7656 92.7137 49.4412 90.9902 48.5763C89.3676 47.7654 88.3661 46.6764 87.9934 45.3327C87.7838 44.5913 87.8071 42.8846 88.0322 42.0505C88.8009 39.2085 91.2542 37.1852 94.8332 36.4592C97.271 35.9572 100.408 36.104 102.527 36.8067C103.847 37.2469 104.841 37.8416 105.966 38.8842C106.851 39.6951 107.403 40.0735 108.334 40.5137C109.297 40.9616 110.097 41.1624 111.176 41.2164C112.309 41.2705 113.14 41.1238 114.374 40.645L115.283 40.2974L115.127 39.8959C114.887 39.3012 114.087 37.7258 113.645 36.9998C112.721 35.4862 111.184 33.7099 109.856 32.6442C107.566 30.7984 104.662 29.6246 101.238 29.1535C100.167 29.0068 96.9527 28.9372 95.8425 29.0454Z" />
<path d="M138.038 29.0067C137.891 29.0222 137.433 29.0762 137.029 29.1226C133.52 29.5164 129.77 31.1305 126.781 33.5246C123.078 36.4901 120.764 40.4596 119.972 45.2168C119.848 45.9968 119.832 46.6687 119.832 53.2871C119.832 61.2416 119.825 61.0717 120.337 63.1568C121.214 66.7016 123.163 70.0687 125.803 72.5709C128.776 75.4052 132.433 77.1814 136.563 77.8224C137.697 77.9923 140.965 78.0155 142.036 77.861C146.291 77.22 149.699 75.6137 152.719 72.8026L153.449 72.1307L152.75 71.4665C151.625 70.3931 150.584 69.7984 149.156 69.4123C148.674 69.281 148.317 69.2501 147.316 69.2424C145.895 69.2347 145.639 69.2887 144.14 69.8834C142.13 70.6865 140.22 70.9568 138.1 70.7329C132.79 70.1691 128.372 66.0374 127.262 60.6083C127.154 60.0909 127.138 59.8747 127.2 59.8438C127.247 59.8129 134.428 57.8667 143.154 55.519L159.016 51.2406L158.977 48.9238C158.93 46.4602 158.86 45.8424 158.418 44.1048C157.96 42.2899 156.943 39.9267 155.933 38.3436C153.985 35.2622 151.159 32.6982 147.906 31.0533C145.22 29.6941 142.704 29.0685 139.746 29.0067C138.954 28.9836 138.186 28.9913 138.038 29.0067ZM140.771 36.2275C142.347 36.3974 144.14 36.9766 145.46 37.7489C147.867 39.1467 149.917 41.4558 150.84 43.8267C151.151 44.599 151.508 45.7806 151.454 45.8347C151.438 45.8501 145.996 47.3252 139.358 49.1168C132.72 50.9008 127.239 52.3836 127.177 52.399C127.022 52.4608 127.099 47.4101 127.278 46.4988C127.969 42.8768 129.692 40.2665 132.72 38.2586C135.212 36.6137 137.929 35.9263 140.771 36.2275Z" />
<path d="M55.9606 70.8874C54.2216 71.4434 53.1735 73.1579 53.4918 74.9187C53.9188 77.2664 56.4109 78.5484 58.6003 77.5367C59.1515 77.2818 59.858 76.6563 60.1452 76.162C60.5878 75.4129 60.7508 74.3163 60.549 73.4513C60.2772 72.262 59.3301 71.2503 58.1422 70.8874C57.5289 70.6943 56.5662 70.702 55.9606 70.8874Z" />
</g>
<defs>
<clipPath id="clip0">
<rect width="159" height="78" fill="none"/>
</clipPath>
</defs>
</svg>
